<?xml version="1.0" encoding="UTF-8"?>
<svg id="Layer_1" data-name="Layer 1" xmlns="http://www.w3.org/2000/svg" width="20mm" height="20mm" viewBox="0 0 56.69 56.69">
  <defs>
    <style>
      .cls-1 {
        fill: #0a2e4d;
      }

      .cls-2 {
        fill: #8595a6;
      }

      .cls-3 {
        fill: #e8eaed;
      }
    </style>
  </defs>
  <circle class="cls-1" cx="28.35" cy="28.35" r="28.35"/>
  <g>
    <path class="cls-2" d="M45.83,43.31c0,.84-.68,1.52-1.52,1.52h-19.42c-.41,0-.74-.33-.74-.74v-9.61c0-.31.25-.56.56-.56h20.38c.41,0,.74.33.74.74v8.66Z"/>
    <path class="cls-3" d="M36.56,15.1c-.33.28-.56.68-.6,1.11-.02.1-.03.2-.04.3-.12.64-.52,1.23-1.1,1.55-.92.49-1.84.42-2.55.02-.42-.25-.93-.3-1.38-.08-.47.23-1,.37-1.56.37-1.1,0-2.07-.49-2.72-1.27-.27-.33-.67-.55-1.1-.53-.07,0-.14,0-.21,0-.29,0-.56-.03-.84-.1-.56-.13-1.12.12-1.53.53-.49.49-1.18.8-1.93.8-.42,0-.8-.09-1.16-.26.02.09.02.17.02.26,0,.89-.58,1.56-1.3,2.02-.65.42-3.76.47-4.82-.01-.48-.22-.68-.7-.68-1.26,0-.08,0-.17,0-.25-1.1-.21-1.94-1.19-1.94-2.36,0-1.02.63-1.88,1.51-2.23-.03-.18-.04-.37-.04-.55,0-2.03,1.64-3.67,3.66-3.67.61,0,1.19.15,1.69.41.4.21.89.13,1.24-.14.44-.35.99-.55,1.6-.55s1.16.21,1.6.55c.36.28.85.35,1.26.14.49-.26,1.06-.41,1.65-.41.48,0,.95.1,1.37.28s.92.06,1.25-.28c.47-.49,1.13-.79,1.87-.79.54,0,1.05.17,1.47.45s.94.34,1.38.1c.66-.36,1.44-.52,2.27-.39,1.53.25,2.76,1.52,2.94,3.06.15,1.29-.38,2.46-1.28,3.19Z"/>
    <path class="cls-2" d="M42.39,27.22v4.69c0,.36-.3.66-.66.66h-18.25c-.38,0-.67.3-.67.67v10.22c0,.36-.3.66-.66.66h-9.36c-.56,0-1-.47-.96-1.04l1.68-20.72c.04-.49.46-.88.96-.88h2.98c.5,0,.92.38.96.88l.49,5.97c.05.7.8,1.1,1.42.76l4.86-2.71c.63-.36,1.42.11,1.42.83v1.14c0,.72.79,1.19,1.42.83l5.06-2.8c.64-.36,1.42.11,1.42.83v1.14c0,.72.79,1.19,1.43.83l5.05-2.8c.63-.36,1.42.11,1.42.83Z"/>
    <rect class="cls-3" x="27.05" y="37.65" width="3.17" height="3.17" rx=".3" ry=".3"/>
    <rect class="cls-3" x="33.35" y="37.65" width="3.17" height="3.17" rx=".3" ry=".3"/>
    <rect class="cls-3" x="39.75" y="37.65" width="3.17" height="3.17" rx=".3" ry=".3"/>
  </g>
</svg>