<?xml version="1.0" encoding="UTF-8"?>
<svg id="Layer_1" data-name="Layer 1" xmlns="http://www.w3.org/2000/svg" viewBox="0 0 56.69 56.69">
  <defs>
    <style>
      .cls-1 {
        fill: #fff;
      }

      .cls-2 {
        fill: none;
        stroke: #b9c3a9;
        stroke-linecap: round;
        stroke-linejoin: round;
        stroke-width: 1.61px;
      }

      .cls-3 {
        fill: #778558;
      }
    </style>
  </defs>
  <path class="cls-1" d="M30.15.46h0c16.66,9.08,26.85,26.72,26.38,45.69h0c-.03,1.28-.71,2.46-1.8,3.12h0c-16.2,9.89-36.56,9.89-52.76,0h0c-1.09-.67-1.77-1.84-1.8-3.12h0C-.31,27.18,9.88,9.54,26.54.46h0c1.12-.61,2.48-.61,3.61,0Z"/>
  <g>
    <g>
      <path class="cls-2" d="M18.5,19.56c0-1.54,1.25-2.78,2.78-2.78s2.78,1.25,2.78,2.78-1.25,2.78-2.78,2.78"/>
      <path class="cls-2" d="M40.53,25.09c.74-1.35,2.43-1.85,3.78-1.11s1.85,2.43,1.11,3.78c-.74,1.35-2.43,1.85-3.78,1.11"/>
      <path class="cls-2" d="M33.85,33.7c.04-1.44,1.23-2.57,2.66-2.53,1.44.04,2.57,1.23,2.53,2.66-.04,1.44-1.23,2.57-2.66,2.53"/>
      <path class="cls-2" d="M29.07,22.34c0-3.34,2.7-6.04,6.04-6.04s6.04,2.7,6.04,6.04-2.7,6.04-6.04,6.04"/>
      <path class="cls-2" d="M41.99,36.37c1.62,0,2.93,1.31,2.93,2.93s-1.31,2.93-2.93,2.93-2.93-1.31-2.93-2.93"/>
      <path class="cls-2" d="M22.08,34.39c0-1.1.89-1.99,1.99-1.99s1.99.89,1.99,1.99-.89,1.99-1.99,1.99"/>
      <line class="cls-2" x1="21.28" y1="22.34" x2="13.92" y2="22.34"/>
      <line class="cls-2" x1="35.11" y1="28.38" x2="20.16" y2="28.38"/>
      <line class="cls-2" x1="41.99" y1="36.37" x2="17.25" y2="36.37"/>
    </g>
    <g id="Artwork_64x64" data-name="Artwork 64x64">
      <path class="cls-3" d="M28.96,26.76c-3.92-3.9-10.26-3.89-14.17.03-3.9,3.92-3.89,10.26.03,14.17,3.63,3.61,9.39,3.91,13.37.69l1.86,1.87,1.46-1.46-1.87-1.86c3.26-3.99,2.96-9.8-.69-13.43ZM16.22,39.5c-3.09-3.12-3.07-8.16.05-11.26,3.12-3.09,8.16-3.07,11.26.05,3.09,3.12,3.07,8.16-.05,11.26-1.49,1.48-3.51,2.31-5.62,2.31-2.12,0-4.15-.85-5.64-2.36Z"/>
      <rect class="cls-3" x="30.82" y="40.31" width="5.02" height="10.03" rx=".91" ry=".91" transform="translate(-22.29 36.85) rotate(-45)"/>
    </g>
  </g>
</svg>