<?xml version="1.0" encoding="UTF-8"?>
<svg id="Layer_1" data-name="Layer 1" xmlns="http://www.w3.org/2000/svg" viewBox="0 0 56.69 56.69">
  <defs>
    <style>
      .cls-1 {
        fill: #c75e70;
      }

      .cls-2 {
        fill: #fff;
      }

      .cls-3 {
        fill: #ebabb7;
      }
    </style>
  </defs>
  <circle class="cls-2" cx="28.35" cy="28.35" r="28.35"/>
  <g>
    <rect class="cls-1" x="23.88" y="34.39" width="23.15" height="11.97" rx="1.01" ry="1.01"/>
    <path class="cls-3" d="M36.79,16.32c-.01.1-.03.21-.05.32-.13.68-.54,1.3-1.15,1.63-.97.52-1.95.45-2.69.02-.45-.26-.99-.32-1.45-.09-.5.25-1.06.39-1.66.39-1.15,0-2.19-.52-2.87-1.34-.29-.35-.71-.58-1.16-.55-.08,0-.16,0-.23,0-.27,0-.54-.03-.79-.09-.62-.14-1.27.1-1.72.55-.52.51-1.23.83-2.02.83-.44,0-.85-.1-1.22-.28.01.09.02.19.02.28,0,.94-.56,1.76-1.37,2.13-.42.19-.61.54-.6.99.02.54-1.12.44-2.21.45s-2.04.11-2.04-.32c0-.22,0-.33.07-.53-.61-.42-1.02-1.13-1.02-1.93,0-.09,0-.18.01-.26-1.16-.23-2.04-1.26-2.04-2.49,0-1.07.66-1.99,1.59-2.36-.04-.19-.05-.39-.05-.59,0-2.14,1.74-3.88,3.87-3.88.64,0,1.25.16,1.78.43.42.22.92.15,1.3-.15.46-.37,1.05-.59,1.69-.59s1.25.23,1.71.61c.36.29.86.36,1.27.14.53-.28,1.13-.45,1.77-.45.48,0,.93.09,1.35.26.49.19,1.06.12,1.42-.26.5-.52,1.2-.84,1.97-.84.58,0,1.11.18,1.55.48s.99.36,1.46.1c.68-.38,1.5-.55,2.37-.42,1.53.23,2.8,1.44,3.1,2.96.29,1.47-.29,2.83-1.31,3.65-.36.29-.6.71-.64,1.17Z"/>
    <path class="cls-1" d="M43.58,27.96v4.86c0,.56-.45,1.01-1.01,1.01h-18.24c-.56,0-1.01.45-1.01,1.01v9.95c0,.56-.45,1.01-1.01,1.01h-9.99c-.59,0-1.06-.5-1.01-1.09l1.78-21.88c.04-.52.48-.93,1.01-.93h3.16c.53,0,.96.4,1.01.93l.51,6.3c.06.73.86,1.16,1.5.8l5.14-2.86c.67-.38,1.5.11,1.5.88v1.2c0,.77.83,1.26,1.5.88l5.34-2.97c.67-.37,1.5.11,1.5.88v1.2c0,.77.83,1.26,1.5.88l5.33-2.97c.67-.38,1.5.11,1.5.88Z"/>
    <rect class="cls-3" x="26.6" y="38.56" width="3.35" height="3.35" rx=".32" ry=".32"/>
    <rect class="cls-3" x="33.71" y="38.56" width="3.35" height="3.35" rx=".32" ry=".32"/>
    <rect class="cls-3" x="40.82" y="38.56" width="3.35" height="3.35" rx=".32" ry=".32"/>
  </g>
</svg>