<?xml version="1.0" encoding="UTF-8"?>
<svg id="Layer_1" data-name="Layer 1" xmlns="http://www.w3.org/2000/svg" width="80mm" height="80mm" viewBox="0 0 226.77 226.77">
  <defs>
    <style>
      .cls-1 {
        fill: #0a2e4d;
      }

      .cls-2 {
        fill: #f4dac4;
        stroke: #cc8544;
      }

      .cls-2, .cls-3, .cls-4, .cls-5, .cls-6, .cls-7, .cls-8 {
        stroke-linecap: round;
        stroke-linejoin: round;
      }

      .cls-2, .cls-3, .cls-5, .cls-7 {
        stroke-width: 3px;
      }

      .cls-3 {
        fill: #bbd2df;
        stroke: #296991;
      }

      .cls-4 {
        fill: #7a855c;
        stroke-width: 3.47px;
      }

      .cls-4, .cls-6, .cls-8 {
        stroke: #0a2e4d;
      }

      .cls-5 {
        fill: #d7dbce;
        stroke: #7a855c;
      }

      .cls-6 {
        fill: #e2a26a;
        stroke-width: 3.47px;
      }

      .cls-9 {
        fill: #f2f2f2;
      }

      .cls-7 {
        fill: #f5cdd5;
        stroke: #c75e70;
      }

      .cls-8 {
        fill: #e28193;
        stroke-width: 3.47px;
      }
    </style>
  </defs>
  <g>
    <path class="cls-9" d="M205.37,65.9v111.85c0,3.09-2.47,5.52-5.52,5.52H26.93c-3.05,0-5.52-2.43-5.52-5.52v-111.85h183.96Z"/>
    <g>
      <path class="cls-1" d="M55.22,112.56c-.63.6-1.41.91-2.22.91s-1.59-.31-2.22-.94l-14.61-14.79c-1.2-1.23-1.2-3.18,0-4.41l14.21-14.4c1.23-1.23,3.21-1.25,4.43-.03,1.23,1.2,1.23,3.18.03,4.41l-12.05,12.21,12.44,12.6c1.2,1.25,1.2,3.23-.03,4.43Z"/>
      <path class="cls-1" d="M111.16,98.14l-14.21,14.4c-.6.63-1.41.94-2.22.94s-1.59-.31-2.22-.91c-1.23-1.2-1.23-3.18-.03-4.43l12.05-12.18-12.44-12.62c-1.2-1.23-1.2-3.21.03-4.41,1.23-1.23,3.21-1.2,4.43.03l14.61,14.79c1.2,1.23,1.2,3.18,0,4.41Z"/>
      <path class="cls-1" d="M84.46,82.7l-16.69,29.18c-.57,1.02-1.62,1.59-2.71,1.59-.52,0-1.07-.13-1.56-.42-1.49-.86-2.01-2.76-1.15-4.28l16.69-29.18c.83-1.51,2.76-2.03,4.25-1.17,1.51.86,2.03,2.76,1.17,4.28Z"/>
    </g>
  </g>
  <path class="cls-5" d="M136.37,172.39l-6.77-15.42-11.43,3.99c-3.08-4.29-6.92-8.01-11.36-10.91l3.5-11.55-15.65-6.13-5.3,10.91c-5.12-.79-10.42-.79-15.76.3l-5.68-10.61-15.38,6.77,3.95,11.44c-4.33,3.16-8.05,6.96-10.91,11.36l-11.59-3.5-6.09,15.69,4.33,2.11,1.62.75,4.97,2.45c-.38,2.26-.56,4.51-.56,6.88h21.44c0-2.26.34-4.51.98-6.58.94-3.24,2.63-6.24,4.93-8.69,3.12-3.5,7.33-6.02,12.26-7.03,12.34-2.52,24.37,5.42,26.89,17.72.34,1.54.49,3.08.49,4.59h21.4c.04-2.9-.26-5.83-.87-8.8l10.61-5.72Z"/>
  <g>
    <path class="cls-2" d="M183.27,124.94c-2.4,4.18-5.89,7.67-10.06,10.1-4.07,2.36-8.76,3.71-13.81,3.71s-9.74-1.34-13.77-3.71c-4.21-2.43-7.67-5.92-10.1-10.1l23.87-13.77,23.87,13.77Z"/>
    <path class="cls-3" d="M192.85,103.38c0,4.01-1.1,7.76-2.99,11.02l-19.1-11.02v-22.09c4.04,0,7.79,1.1,11.05,2.97,3.34,1.95,6.13,4.74,8.05,8.08,1.89,3.26,2.99,7.01,2.99,11.05Z"/>
    <path class="cls-7" d="M159.4,83.55v27.61l-23.87,13.77c-2.36-4.07-3.71-8.76-3.71-13.77s1.34-9.74,3.71-13.81c2.43-4.18,5.89-7.67,10.1-10.1,4.03-2.33,8.76-3.71,13.77-3.71Z"/>
  </g>
  <rect class="cls-3" x="149.77" y="155.06" width="16.24" height="29.92"/>
  <rect class="cls-3" x="174.07" y="167.45" width="16.28" height="17.53"/>
  <path class="cls-1" d="M205.37,32.45H21.41c-6.07,0-11.05,4.94-11.05,11.04v139.78c0,6.11,4.98,11.05,11.05,11.05h183.96c6.07,0,11.05-4.94,11.05-11.05V43.49c0-6.1-4.98-11.04-11.05-11.04ZM205.37,177.75c0,3.09-2.47,5.52-5.52,5.52H26.93c-3.05,0-5.52-2.43-5.52-5.52v-111.85h183.96v111.85Z"/>
  <path class="cls-4" d="M82.6,50.43c0,4.7-3.82,8.48-8.53,8.48s-8.48-3.78-8.48-8.48,3.82-8.48,8.48-8.48,8.53,3.78,8.53,8.48Z"/>
  <path class="cls-6" d="M60.51,50.43c0,4.7-3.82,8.48-8.48,8.48s-8.53-3.78-8.53-8.48,3.82-8.48,8.53-8.48,8.48,3.78,8.48,8.48Z"/>
  <path class="cls-8" d="M38.41,50.43c0,4.71-3.78,8.49-8.49,8.49s-8.52-3.78-8.52-8.49,3.83-8.49,8.52-8.49,8.49,3.78,8.49,8.49Z"/>
</svg>