<?xml version="1.0" encoding="UTF-8"?>
<svg id="Layer_1" data-name="Layer 1" xmlns="http://www.w3.org/2000/svg" viewBox="0 0 56.69 56.69">
  <defs>
    <style>
      .cls-1 {
        fill: #91ceb1;
      }

      .cls-2 {
        fill: #fff;
      }

      .cls-3 {
        fill: #778558;
      }

      .cls-4 {
        fill: none;
        stroke: #b9c3a9;
        stroke-linecap: round;
        stroke-linejoin: round;
        stroke-width: 2.16px;
      }

      .cls-5 {
        fill: #b9c3a9;
      }
    </style>
  </defs>
  <path class="cls-2" d="M30.15.46h0c16.66,9.08,26.85,26.72,26.38,45.69h0c-.03,1.28-.71,2.46-1.8,3.12h0c-16.2,9.89-36.56,9.89-52.76,0h0c-1.09-.67-1.77-1.84-1.8-3.12h0C-.31,27.18,9.88,9.54,26.54.46h0c1.12-.61,2.48-.61,3.61,0Z"/>
  <g>
    <path class="cls-5" d="M20.33,46.54l-1.18.4c-.81.27-1.69-.15-1.99-.96l-1.95-5.79,2.48-.47.27.18c.53-.08.98-.33,1.51-.37l1.84,4.98c.3.83-.14,1.75-.98,2.03Z"/>
    <path class="cls-1" d="M19.53,39.71c-.53.04-1.06.1-1.58.18l1.51-.37.07.18Z"/>
    <path class="cls-3" d="M17.59,39.95c-1.54.27-2.98.68-3.94.99-.82.26-1.72.04-2.32-.58-.86-.89-1.96-2.28-2.33-3.88-.42-1.85.07-3.48.54-4.51.33-.71,1.01-1.19,1.79-1.29,1.03-.13,2.64-.38,4.26-.9,0,0-1.18,2.26-.39,5.7.7,3.09,2.39,4.48,2.39,4.48Z"/>
    <path class="cls-1" d="M19.53,39.71c-.53.04-1.06.1-1.58.18l1.51-.37.07.18Z"/>
    <path class="cls-5" d="M32.52,43.94c-1.86-1.17-6.52-3.38-10.2-4.11-.86-.17-1.82-.2-2.79-.13l-.07-.18-1.51.37h0c-.12.02-.24.04-.35.06,0,0-1.69-1.39-2.39-4.48-.79-3.43.39-5.7.39-5.7.86-.27,1.72-.62,2.49-1.06,3.19-1.8,7.1-5.04,8.98-8.87v.02c-.82,2.27-.65,7.12.58,12.52,1.22,5.42,3.17,9.88,4.88,11.57Z"/>
    <path class="cls-3" d="M34.11,44.65c-.47.1-1.01-.14-1.57-.69,0,0-.02,0-.02-.02-1.71-1.69-3.66-6.15-4.88-11.57-1.22-5.4-1.39-10.25-.58-12.52.27-.76.65-1.23,1.14-1.34,1.94-.43,4.83,5.06,6.47,12.27,1.63,7.22,1.38,13.42-.55,13.86Z"/>
    <path class="cls-5" d="M30.48,37.2c-.5-1.47-.97-3.1-1.36-4.82-.34-1.5-.6-2.95-.78-4.32-.08-.6,4.16.75,4.27,1.16.24.83.46,1.69.66,2.58.17.73.31,1.46.44,2.17.07.4-3.08,3.71-3.24,3.24Z"/>
    <line class="cls-4" x1="36.2" y1="20.43" x2="39.27" y2="17.32"/>
    <line class="cls-4" x1="40.91" y1="41.36" x2="44.63" y2="43.27"/>
    <line class="cls-4" x1="40.22" y1="26.6" x2="46.4" y2="23.91"/>
    <line class="cls-4" x1="41.42" y1="34.15" x2="47.85" y2="34.92"/>
  </g>
</svg>