<?xml version="1.0" encoding="UTF-8"?>
<svg id="Layer_1" data-name="Layer 1" xmlns="http://www.w3.org/2000/svg" viewBox="0 0 56.69 56.69">
  <defs>
    <style>
      .cls-1 {
        fill: #fff;
      }

      .cls-2 {
        fill: none;
        stroke: #8295a8;
        stroke-linecap: round;
        stroke-linejoin: round;
        stroke-width: 3.04px;
      }

      .cls-3 {
        fill: #092d4c;
      }

      .cls-4 {
        fill: #43627b;
      }
    </style>
  </defs>
  <rect class="cls-1" y="0" width="56.69" height="56.69" rx="3.5" ry="3.5"/>
  <g id="Artwork_64x64" data-name="Artwork 64x64">
    <circle class="cls-3" cx="22.2" cy="23.11" r="5.68"/>
    <path class="cls-3" d="M26.97,42.24l.23-8.12c.09-2.38-.84-4.81-3.48-4.81h-7.9c-2.27,0-1.83,3.15-1.83,5.35l.2,7.57"/>
  </g>
  <g>
    <path class="cls-4" d="M42.45,6.95c-4.04,0-7.32,3.28-7.32,7.32s3.28,7.32,7.32,7.32,7.32-3.28,7.32-7.32-3.28-7.32-7.32-7.32ZM42.45,20.01c-3.18.03-5.77-2.52-5.8-5.7-.03-3.18,2.52-5.77,5.7-5.8,3.18-.03,5.77,2.52,5.8,5.7,0,.02,0,.03,0,.05,0,3.15-2.54,5.72-5.7,5.75Z"/>
    <path class="cls-4" d="M44.88,11.9l-1.93,1.49c-.15-.1-.32-.16-.5-.18-.12,0-.24.03-.34.07l-2.05-2.32c-.14-.25-.46-.35-.71-.21-.25.14-.35.46-.21.71.04.08.1.14.17.19l2.09,2.46s0,.1,0,.15c0,.58.47,1.05,1.05,1.05.54,0,1-.41,1.05-.95l2.09-1.63c.24-.16.3-.49.14-.73s-.49-.3-.73-.14c-.02.01-.03.03-.05.04h-.06Z"/>
  </g>
  <polyline class="cls-2" points="36.9 37.26 47.19 37.26 51.02 27.79"/>
  <line class="cls-2" x1="6.76" y1="42" x2="51.02" y2="42"/>
  <path class="cls-3" d="M18.59,49.79l-9.48-4.41c-1.75-.8-2.35-2.97-1.37-4.6,0,0,4.69-9.4,4.69-9.4.92-1.84,3.16-2.59,5-1.67,1.91.95,2.64,3.35,1.57,5.19,0,0-5.24,9.1-5.24,9.1l-1.37-4.6,8.81,5.62c2.82,1.87.45,6.14-2.61,4.77h0Z"/>
  <path class="cls-3" d="M31.04,26.09l2.67,12.33c.39,1.8-.75,3.58-2.55,3.97-1.08.24-2.11-.09-2.91-.74,0,0-7.7-5.59-7.7-5.59-3.9-2.99.33-8.82,4.38-6.03.06.05.13.1.19.15l7.31,6.09-5.46,3.23-1.31-12.55c-.29-3.4,4.58-4.16,5.37-.86h0Z"/>
</svg>