<?xml version="1.0" encoding="UTF-8"?>
<svg id="Layer_1" data-name="Layer 1" xmlns="http://www.w3.org/2000/svg" viewBox="0 0 56.69 56.69">
  <defs>
    <style>
      .cls-1 {
        fill: #8295a8;
      }

      .cls-2 {
        fill: none;
        stroke: #8295a8;
        stroke-linecap: round;
        stroke-miterlimit: 10;
        stroke-width: .98px;
      }

      .cls-3 {
        fill: #fff;
      }

      .cls-4 {
        fill: #092d4c;
      }
    </style>
  </defs>
  <rect class="cls-3" y="0" width="56.69" height="56.69" rx="3.5" ry="3.5"/>
  <g>
    <g>
      <path class="cls-4" d="M40.96,37.23c-.18,8.91-3.95,9.49-4.96,9.79-.68.19-4.48.34-8.81-1.61-.92-.41-1.86-.91-2.8-1.54-.59-.38-1.18-.82-1.76-1.3-.63-.53-1.25-1.1-1.85-1.75-.34-.37-.67-.73-.95-1.08-2.86-3.44-3.44-6.23-3.32-8.14.03-.55.11-1.03.22-1.42.06-.26.15-.49.22-.68.04-.09.07-.19.11-.26.07-.15.14-.26.18-.33.04-.06.06-.1.1-.16.3-.49,1.1-1.7,2.31-2.47.17-.1.32-.2.47-.3,2.25-1.4,2.48-1.18,3.64-1.57.3-.1.59-.18.89-.22.05,0,.09-.02.14-.03,1.59-.25,3.08.08,3.84.29.11.02.21.06.31.09.5.16.98.4,1.45.75.82.6,1.59,1.54,2.23,2.96,0,0,.77-2.12,3.31-2.19.6,0,1.21.11,1.8.43,1.84.99,3.34,3.95,3.21,10.73Z"/>
      <path class="cls-4" d="M21.53,19.61c-.3,2.08-.92,4.57-1.41,6.37-.15.09-.31.19-.47.3-1.2.77-2.01,1.98-2.31,2.47-.04.06-.06.1-.1.16-.05.06-.11.18-.18.33-.04.07-.07.17-.11.26-.08.19-.16.42-.22.68-.11.39-.19.87-.22,1.42-.56-1.33-1.19-3.59-.45-6.17.97-3.37,4.29-5.24,5.47-5.82Z"/>
      <path class="cls-1" d="M24.66,24.19c-.3.05-.59.12-.89.22-1.16.39-1.39.17-3.64,1.57.49-1.81,1.11-4.29,1.41-6.37.19-1.33.26-2.49.07-3.2-.2-.8-.82-2.8-1.07-3.83-.16-.64,2-3.1,2.32-1.59.65,3.13,1.95,4.43,2.47,4.48.03,0,.06.05.08.12-.74,1.02-1.32,2.17-1.5,3.45-.26,1.93.31,3.96.75,5.16Z"/>
      <path class="cls-4" d="M35,16.32c-1.8.62-3.9,1.23-4.43.56-1.14-1.45-1.65-.82-2.24,0-.59.82,1.21,1.74.4,2.54-.31.3-1.73,2.03-2.79,3.33-.56.69-1.01,1.25-1.15,1.43-.05,0-.09.02-.14.03-.44-1.19-1.01-3.23-.75-5.16.19-1.29.76-2.44,1.5-3.45.33-.45.69-.87,1.07-1.26.6-.64,1.24-1.2,1.83-1.69.15-.12.29-.24.43-.35,1.5-1.21,1.37-4.24,1.37-4.24h2.12s-.69,3.41,0,4.24c1,1.22,3.11,1.54,2.78,4.05Z"/>
      <path class="cls-1" d="M28.31,12.63c-.59.49-1.23,1.06-1.83,1.69-.43-1.78-1.21-5.02-1.38-5.41-.24-.53,1.82-1.59,2-.88.06.21.72,3.07,1.21,4.59Z"/>
      <path class="cls-4" d="M37.74,26.5c-.58-.31-1.19-.44-1.8-.43-2.54.06-3.31,2.19-3.31,2.19-.64-1.43-1.41-2.36-2.23-2.96-.47-.35-.95-.59-1.45-.75.48-1.74,2.17-4.29,4.46-5.36.83-.4,1.76-.6,2.73-.5,3.59.37,2.44,5.58,1.59,7.82Z"/>
      <path class="cls-1" d="M38.32,17.48c-.79.22-3.03.84-4.7,1.44-.06.09-.13.18-.2.27-2.3,1.07-3.98,3.62-4.46,5.36-.1-.04-.2-.07-.31-.09-.76-.2-2.25-.54-3.84-.29.14-.18.59-.74,1.15-1.43,1.06-1.3,2.47-3.03,2.79-3.33.82-.8-.99-1.71-.4-2.54.59-.82,1.1-1.45,2.24,0,.53.68,2.63.06,4.43-.56,1.11-.39,2.1-.78,2.53-.86,1.76-.34,2.29,1.59.79,2.02Z"/>
      <path class="cls-1" d="M22.64,42.57c-.05,1.69-.11,3.66-.2,4.97-.04.56-2.16.57-2.2,0-.12-1.51-.31-5.85-.4-7.81.29.35.61.71.95,1.08.6.65,1.22,1.22,1.85,1.75Z"/>
      <path class="cls-1" d="M27.19,45.4c-.08.84-.18,1.9-.28,3.08-.05.55-2.13.55-2.18,0-.16-1.73-.31-3.4-.34-4.62.94.63,1.88,1.13,2.8,1.54Z"/>
    </g>
    <g>
      <path class="cls-2" d="M35.23,27.06s.44,6.29-2.21,10.29c-1.76,2.64-3.56,3-3.56,3"/>
      <path class="cls-2" d="M37.44,40.35s1.2-5.28-2.86-6.14"/>
      <path class="cls-2" d="M18.94,28.3s-.73,5.2,2.68,8.07c1.95,1.64,3.5.27,3.5.27"/>
      <path class="cls-2" d="M22.26,33.36s-1.7,1.29-2.9-.75"/>
      <path class="cls-2" d="M22,24.19s4.3,2,4.76,4.1c.38,1.76-.24,2.97-.24,2.97"/>
      <path class="cls-2" d="M30.01,28.26s-1.06-2.28-3.49-.97"/>
      <path class="cls-2" d="M33.01,37.35s-1.06-1.48-2.66-.96"/>
    </g>
  </g>
</svg>