<?xml version="1.0" encoding="UTF-8"?>
<svg id="Layer_1" data-name="Layer 1" xmlns="http://www.w3.org/2000/svg" viewBox="0 0 56.69 56.69">
  <defs>
    <style>
      .cls-1 {
        fill: #8295a8;
      }

      .cls-2 {
        fill: #fff;
      }

      .cls-3 {
        fill: #092d4c;
      }
    </style>
  </defs>
  <rect class="cls-2" y="0" width="56.69" height="56.69" rx="3.5" ry="3.5"/>
  <g>
    <path class="cls-3" d="M25.22,18.01v22.38s.27,5.33-5.68,6.22c-5.95.89-10.98-.76-11.33-5.47-.36-4.71.52-16.88,5.03-22.69,4.94-6.35,11.99-8.88,11.99-.44Z"/>
    <path class="cls-3" d="M31.58,18.01c0,2.13,0,22.38,0,22.38,0,0-.27,5.33,5.68,6.22,5.95.89,10.98-.76,11.33-5.47.36-4.71-.52-16.88-5.03-22.69-4.94-6.35-11.99-8.88-11.99-.44Z"/>
    <path class="cls-1" d="M38.81,29.29c1.02,0,1.81-.17,1.89-.19.43-.1.7-.52.61-.95-.1-.43-.52-.7-.95-.61-.03,0-2.92.59-4.14-.65,1.04-2.14-.05-5.38-.18-5.75-.15-.42-.6-.63-1.02-.49-.42.15-.63.6-.49,1.02.3.84.91,3.29.22,4.58-.22.4-.54.65-1.01.76-1.61.4-3.01-1.56-3.71-2.77-.53-.92-.81-1.98-.81-3.07v-10.12c0-.44-.36-.8-.8-.8h0c-.44,0-.8.36-.8.8v10.12c0,1.09-.28,2.15-.81,3.07-.69,1.21-2.1,3.17-3.71,2.77-.47-.12-.8-.36-1.01-.76-.69-1.29-.08-3.75.22-4.58.15-.42-.07-.87-.49-1.02-.42-.15-.87.07-1.02.49-.13.37-1.22,3.61-.18,5.75-1.22,1.24-4.11.65-4.14.65-.43-.09-.86.18-.95.61-.1.43.18.86.61.95.08.02.87.19,1.89.19,1.17,0,2.64-.23,3.64-1.18,0,0,0,0,0,0-.72.68-1.53,1.79-2.04,3.53-2.37.3-3.45,2.23-3.69,3.3-.1.43.17.86.6.96.06.01.12.02.18.02.36,0,.69-.25.78-.62.04-.18.41-1.5,1.78-1.95-.25,1.91-.17,4.38.56,7.56.08.37.41.62.78.62.06,0,.12,0,.18-.02.43-.1.7-.53.6-.96-.81-3.55-.78-6.06-.4-7.84.03-.08.05-.17.06-.26.65-2.68,2.11-3.57,2.53-3.77,1.31-.01,2.97-.78,4.6-3.63.08-.13.15-.27.22-.41.07.14.14.28.22.41,1.64,2.85,3.3,3.62,4.6,3.63.42.21,1.88,1.1,2.53,3.77,0,.09.02.18.06.26.38,1.78.41,4.3-.4,7.84-.1.43.17.86.6.96.06.01.12.02.18.02.36,0,.69-.25.78-.62.72-3.18.81-5.65.56-7.56,1.37.45,1.74,1.77,1.78,1.95.09.37.41.62.78.62.06,0,.12,0,.18-.02.43-.1.7-.53.6-.96-.24-1.07-1.32-3-3.69-3.3-.5-1.74-1.32-2.85-2.04-3.53,0,0,0,0,0,0,1.01.95,2.47,1.18,3.64,1.18Z"/>
  </g>
</svg>