<?xml version="1.0" encoding="UTF-8"?>
<svg id="Layer_1" data-name="Layer 1" xmlns="http://www.w3.org/2000/svg" viewBox="0 0 56.69 56.69">
  <defs>
    <style>
      .cls-1 {
        fill: #fff;
      }

      .cls-2 {
        fill: #8bb4c9;
      }

      .cls-3 {
        fill: #296991;
      }
    </style>
  </defs>
  <rect class="cls-1" x="0" width="56.69" height="56.69" rx="3.5" ry="3.5"/>
  <g>
    <path class="cls-3" d="M24.91,17.21v23.16s.28,5.51-5.88,6.43c-6.16.92-11.36-.79-11.73-5.66-.37-4.87.54-17.47,5.2-23.47,5.11-6.57,12.41-9.19,12.41-.46Z"/>
    <path class="cls-3" d="M31.49,17.21v23.16s-.28,5.51,5.88,6.43,11.36-.79,11.73-5.66c.37-4.87-.54-17.47-5.2-23.47-5.11-6.57-12.41-9.19-12.41-.46Z"/>
    <path class="cls-2" d="M38.97,28.88c1.05,0,1.88-.18,1.96-.19.45-.1.73-.54.63-.99-.1-.45-.54-.72-.99-.63-.03,0-3.02.62-4.29-.67,1.08-2.22-.05-5.57-.19-5.95-.15-.43-.63-.66-1.06-.5-.43.15-.66.63-.5,1.06.31.86.95,3.4.23,4.74-.22.42-.56.67-1.05.79-1.67.42-3.12-1.62-3.84-2.86-.55-.95-.83-2.05-.83-3.17v-10.47c0-.46-.37-.83-.83-.83h0c-.46,0-.83.37-.83.83v10.47c0,1.13-.29,2.23-.83,3.17-.72,1.25-2.17,3.28-3.84,2.86-.49-.12-.82-.37-1.05-.79-.72-1.34-.08-3.88.23-4.74.15-.43-.07-.9-.5-1.06-.43-.15-.9.07-1.06.5-.14.38-1.27,3.73-.19,5.95-1.26,1.28-4.25.68-4.29.67-.45-.09-.89.18-.99.63-.1.45.18.89.63.99.08.02.9.19,1.96.19,1.21,0,2.73-.23,3.77-1.22,0,0,0,0,0,0-.75.7-1.59,1.85-2.11,3.65-2.45.31-3.57,2.31-3.82,3.41-.1.45.18.89.62.99.06.01.12.02.19.02.38,0,.71-.26.8-.64.05-.19.43-1.55,1.84-2.02-.26,1.98-.17,4.53.58,7.82.09.38.43.64.81.64.06,0,.12,0,.18-.02.45-.1.72-.54.62-.99-.83-3.67-.8-6.27-.41-8.11.04-.08.05-.17.06-.27.67-2.77,2.18-3.69,2.62-3.91,1.35-.01,3.07-.81,4.76-3.75.08-.14.15-.28.23-.43.07.14.15.29.23.43,1.69,2.95,3.41,3.74,4.76,3.75.44.21,1.94,1.14,2.62,3.91,0,.09.02.19.06.27.39,1.84.43,4.45-.41,8.11-.1.45.18.89.62.99.06.01.12.02.18.02.38,0,.72-.26.81-.64.75-3.29.84-5.84.58-7.82,1.41.47,1.8,1.83,1.84,2.02.09.38.43.64.8.64.06,0,.12,0,.19-.02.45-.1.72-.55.62-.99-.25-1.1-1.37-3.1-3.82-3.41-.52-1.8-1.36-2.95-2.11-3.65,0,0,0,0,0,0,1.04.98,2.56,1.22,3.77,1.22Z"/>
  </g>
</svg>