<?xml version="1.0" encoding="UTF-8"?>
<svg id="Layer_1" data-name="Layer 1" xmlns="http://www.w3.org/2000/svg" viewBox="0 0 59.53 59.53">
  <defs>
    <style>
      .cls-1 {
        fill: #c75e70;
      }

      .cls-2 {
        fill: none;
      }

      .cls-3 {
        fill: #fff;
        stroke: #c75e70;
        stroke-miterlimit: 10;
        stroke-width: 2.67px;
      }

      .cls-4 {
        fill: #ebabb7;
      }
    </style>
  </defs>
  <g id="Circle">
    <circle class="cls-3" cx="29.76" cy="29.76" r="28.35"/>
  </g>
  <g id="Artwork_64x64" data-name="Artwork 64x64">
    <circle class="cls-4" cx="29.76" cy="29.76" r="18.04"/>
    <path class="cls-1" d="M21.09,42.51c.19-.32.24-.71.12-1.07l-1.56-4.68c-.12-.36-.08-.75.12-1.07l1.29-2.16c.21-.35.24-.77.09-1.14l-3.36-8.43c-.16-.4-.51-.7-.94-.79l-3.58-.72c-3.55,8.01-.83,17.4,6.44,22.28l.03-.04,1.35-2.2Z"/>
    <path class="cls-1" d="M38.29,35.1l-2.23-1.08c-.49-.24-1.08-.14-1.47.25l-3.36,3.36c-.47.47-.5,1.22-.08,1.73l2.8,3.36c.29.36.76.53,1.21.45l3.31-.57c.7-.13,1.16-.81,1.03-1.51-.02-.09-.04-.18-.08-.26l-.81-1.93c-.11-.27-.13-.56-.05-.84l.39-1.43c.18-.6-.1-1.25-.66-1.53Z"/>
    <path class="cls-2" d="M44.92,19.98l-.98,7.54c-.07.52-.44.94-.94,1.08l-8.83,2.38c-.21.05-.43.05-.64,0l-6.71-1.61c-.47-.13-.82-.51-.92-.99l-1.1-5.15c-.11-.48.06-.98.44-1.29l3.36-2.74c.2-.17.35-.39.42-.64l1.17-3.87c.09-.3.28-.56.55-.72l2.98-1.87c-1.3-.26-2.62-.38-3.95-.36-9.96,0-18.04,8.08-18.04,18.04,0,9.96,8.08,18.04,18.04,18.04,9.96,0,18.04-8.08,18.04-18.04,0-3.47-1-6.87-2.89-9.79Z"/>
    <path class="cls-1" d="M30.16,14.75l-1.17,3.87c-.07.25-.22.48-.42.64l-3.36,2.71c-.38.31-.55.81-.44,1.29l1.1,5.15c.1.48.47.87.95.99l6.71,1.62c.21.05.43.05.64,0l8.81-2.38c.52-.14.9-.58.95-1.12l1-7.54c-2.58-3.99-6.62-6.8-11.25-7.82l-2.98,1.87c-.26.17-.46.42-.55.72Z"/>
  </g>
</svg>