<?xml version="1.0" encoding="UTF-8"?>
<svg id="Layer_1" data-name="Layer 1" xmlns="http://www.w3.org/2000/svg" width="20mm" height="20mm" viewBox="0 0 56.69 56.69">
  <defs>
    <style>
      .cls-1 {
        fill: #0a2e4d;
      }

      .cls-2 {
        fill: #b8c0ca;
      }

      .cls-3 {
        fill: #bbc2ab;
        stroke: #0a2e4d;
        stroke-miterlimit: 10;
        stroke-width: 2px;
      }
    </style>
  </defs>
  <path class="cls-2" d="M10.98,35.68c-.47-.47-.47-1.22,0-1.69l5.44-5.52c.47-.47,1.23-.48,1.7-.01.47.46.48,1.22.01,1.69l-4.62,4.68,4.77,4.83c.47.48.46,1.24-.01,1.7-.23.23-.54.35-.84.35s-.62-.12-.86-.36l-5.59-5.67Z"/>
  <path class="cls-2" d="M21,39.91l6.4-11.19c.33-.58,1.06-.78,1.63-.45.58.33.78,1.06.45,1.64l-6.4,11.19c-.22.39-.62.61-1.04.61-.2,0-.41-.05-.59-.16-.58-.33-.78-1.06-.45-1.64Z"/>
  <path class="cls-2" d="M32.41,30.15c-.46-.47-.46-1.23.02-1.69.47-.47,1.23-.46,1.69.01l5.6,5.67c.46.47.46,1.22,0,1.69l-5.45,5.52c-.23.24-.54.36-.85.36s-.61-.12-.84-.35c-.48-.46-.48-1.22-.02-1.7l4.62-4.67-4.77-4.84Z"/>
  <g>
    <path class="cls-1" d="M45.34,14.12H5.36c-1.33,0-2.4,1.07-2.4,2.4v30.38c0,1.33,1.07,2.4,2.4,2.4h39.98c1.32,0,2.4-1.07,2.4-2.4v-30.38c0-1.33-1.08-2.4-2.4-2.4ZM45.34,45.7c0,.67-.54,1.2-1.2,1.2H6.56c-.67,0-1.2-.53-1.2-1.2v-22.79h39.98v22.79ZM18.95,18.92c0,.88-.72,1.59-1.6,1.59s-1.6-.71-1.6-1.59.72-1.6,1.6-1.6,1.6.71,1.6,1.6ZM14.15,18.92c0,.88-.71,1.59-1.6,1.59s-1.6-.71-1.6-1.59.72-1.6,1.6-1.6,1.6.71,1.6,1.6ZM7.75,17.32c.89,0,1.6.71,1.6,1.6s-.71,1.59-1.6,1.59-1.59-.71-1.59-1.59.71-1.6,1.59-1.6Z"/>
    <path class="cls-2" d="M18.95,18.92c0,.88-.72,1.59-1.6,1.59s-1.6-.71-1.6-1.59.72-1.6,1.6-1.6,1.6.71,1.6,1.6Z"/>
    <path class="cls-2" d="M14.15,18.92c0,.88-.71,1.59-1.6,1.59s-1.6-.71-1.6-1.59.72-1.6,1.6-1.6,1.6.71,1.6,1.6Z"/>
    <path class="cls-2" d="M9.35,18.92c0,.88-.71,1.59-1.6,1.59s-1.59-.71-1.59-1.59.71-1.6,1.59-1.6,1.6.71,1.6,1.6Z"/>
    <path class="cls-2" d="M5.36,22.91v22.79c0,.67.53,1.2,1.2,1.2h37.58c.66,0,1.2-.53,1.2-1.2v-22.79H5.36ZM18.27,41.36c-.23.23-.54.35-.84.35s-.62-.12-.86-.36l-5.59-5.67c-.47-.47-.47-1.22,0-1.69l5.44-5.52c.47-.47,1.23-.48,1.7-.01.47.46.48,1.22.01,1.69l-4.62,4.68,4.77,4.83c.47.48.46,1.24-.01,1.7ZM29.48,29.91l-6.4,11.19c-.22.39-.62.61-1.04.61-.2,0-.41-.05-.59-.16-.58-.33-.78-1.06-.45-1.64l6.4-11.19c.33-.58,1.06-.78,1.63-.45.58.33.78,1.06.45,1.64ZM39.72,35.83l-5.45,5.52c-.23.24-.54.36-.85.36s-.61-.12-.84-.35c-.48-.46-.48-1.22-.02-1.7l4.62-4.67-4.77-4.84c-.46-.47-.46-1.23.02-1.69.47-.47,1.23-.46,1.69.01l5.6,5.67c.46.47.46,1.22,0,1.69Z"/>
    <g>
      <path class="cls-1" d="M18.27,41.36c-.23.23-.54.35-.84.35s-.62-.12-.86-.36l-5.59-5.67c-.47-.47-.47-1.22,0-1.69l5.44-5.52c.47-.47,1.23-.48,1.7-.01.47.46.48,1.22.01,1.69l-4.62,4.68,4.77,4.83c.47.48.46,1.24-.01,1.7Z"/>
      <path class="cls-1" d="M39.72,35.83l-5.45,5.52c-.23.24-.54.36-.85.36s-.61-.12-.84-.35c-.48-.46-.48-1.22-.02-1.7l4.62-4.67-4.77-4.84c-.46-.47-.46-1.23.02-1.69.47-.47,1.23-.46,1.69.01l5.6,5.67c.46.47.46,1.22,0,1.69Z"/>
      <path class="cls-1" d="M29.48,29.91l-6.4,11.19c-.22.39-.62.61-1.04.61-.2,0-.41-.05-.59-.16-.58-.33-.78-1.06-.45-1.64l6.4-11.19c.33-.58,1.06-.78,1.63-.45.58.33.78,1.06.45,1.64Z"/>
    </g>
  </g>
  <g>
    <circle class="cls-3" cx="43.81" cy="17.32" r="9.92"/>
    <path class="cls-1" d="M41.35,21.64l-3.22-3.22c-.27-.27-.27-.72,0-.99,0,0,0,0,0,0l.49-.49c.27-.27.72-.27.99,0h0s2.23,2.23,2.23,2.23l6.15-6.16c.27-.27.72-.27.99,0,0,0,0,0,0,0l.5.5c.27.27.27.71,0,.99l-7.16,7.15c-.27.26-.7.26-.97,0Z"/>
  </g>
</svg>