<?xml version="1.0" encoding="UTF-8"?>
<svg id="Layer_1" data-name="Layer 1" xmlns="http://www.w3.org/2000/svg" width="20mm" height="20mm" viewBox="0 0 56.69 56.69">
  <defs>
    <style>
      .cls-1 {
        fill: #ebabb7;
        stroke: #0a2e4d;
        stroke-miterlimit: 10;
        stroke-width: 2px;
      }

      .cls-2 {
        fill: #0a2e4d;
      }

      .cls-3 {
        fill: #b8c0ca;
      }
    </style>
  </defs>
  <path class="cls-3" d="M10.98,35.68c-.46-.47-.46-1.22,0-1.69l5.45-5.52c.47-.47,1.23-.48,1.7-.01.47.46.47,1.22.01,1.69l-4.62,4.68,4.77,4.83c.46.48.46,1.24-.01,1.7-.24.23-.54.35-.85.35s-.61-.12-.85-.36l-5.6-5.67Z"/>
  <path class="cls-3" d="M21.01,39.91l6.4-11.19c.32-.58,1.06-.78,1.63-.45.58.33.78,1.06.45,1.64l-6.4,11.19c-.22.39-.62.61-1.04.61-.2,0-.41-.05-.6-.16-.57-.33-.77-1.06-.44-1.64Z"/>
  <path class="cls-3" d="M32.42,30.15c-.46-.47-.46-1.23.01-1.69.47-.47,1.23-.46,1.7.01l5.6,5.67c.46.47.46,1.22,0,1.69l-5.45,5.52c-.23.24-.54.36-.85.36s-.61-.12-.85-.35c-.47-.46-.47-1.22-.01-1.7l4.62-4.67-4.77-4.84Z"/>
  <g>
    <path class="cls-2" d="M45.35,14.12H5.36c-1.32,0-2.4,1.07-2.4,2.4v30.38c0,1.33,1.08,2.4,2.4,2.4h39.99c1.32,0,2.4-1.07,2.4-2.4v-30.38c0-1.33-1.08-2.4-2.4-2.4ZM45.35,45.7c0,.67-.54,1.2-1.2,1.2H6.56c-.66,0-1.2-.53-1.2-1.2v-22.79h39.99v22.79ZM18.96,18.92c0,.88-.72,1.59-1.6,1.59s-1.6-.71-1.6-1.59.72-1.6,1.6-1.6,1.6.71,1.6,1.6ZM14.16,18.92c0,.88-.72,1.59-1.6,1.59s-1.6-.71-1.6-1.59.72-1.6,1.6-1.6,1.6.71,1.6,1.6ZM7.76,17.32c.89,0,1.6.71,1.6,1.6s-.71,1.59-1.6,1.59-1.6-.71-1.6-1.59.72-1.6,1.6-1.6Z"/>
    <path class="cls-3" d="M5.36,22.91v22.79c0,.67.54,1.2,1.2,1.2h37.59c.66,0,1.2-.53,1.2-1.2v-22.79H5.36ZM18.28,41.36c-.24.23-.54.35-.85.35s-.61-.12-.85-.36l-5.6-5.67c-.46-.47-.46-1.22,0-1.69l5.45-5.52c.47-.47,1.23-.48,1.7-.01.47.46.47,1.22.01,1.69l-4.62,4.68,4.77,4.83c.46.48.46,1.24-.01,1.7ZM29.49,29.91l-6.4,11.19c-.22.39-.62.61-1.04.61-.2,0-.41-.05-.6-.16-.57-.33-.77-1.06-.44-1.64l6.4-11.19c.32-.58,1.06-.78,1.63-.45.58.33.78,1.06.45,1.64ZM39.73,35.83l-5.45,5.52c-.23.24-.54.36-.85.36s-.61-.12-.85-.35c-.47-.46-.47-1.22-.01-1.7l4.62-4.67-4.77-4.84c-.46-.47-.46-1.23.01-1.69.47-.47,1.23-.46,1.7.01l5.6,5.67c.46.47.46,1.22,0,1.69Z"/>
    <path class="cls-3" d="M18.96,18.92c0,.88-.72,1.59-1.6,1.59s-1.6-.71-1.6-1.59.72-1.6,1.6-1.6,1.6.71,1.6,1.6Z"/>
    <path class="cls-3" d="M14.16,18.92c0,.88-.72,1.59-1.6,1.59s-1.6-.71-1.6-1.59.72-1.6,1.6-1.6,1.6.71,1.6,1.6Z"/>
    <path class="cls-3" d="M9.36,18.92c0,.88-.71,1.59-1.6,1.59s-1.6-.71-1.6-1.59.72-1.6,1.6-1.6,1.6.71,1.6,1.6Z"/>
    <g>
      <path class="cls-2" d="M18.28,41.36c-.24.23-.54.35-.85.35s-.61-.12-.85-.36l-5.6-5.67c-.46-.47-.46-1.22,0-1.69l5.45-5.52c.47-.47,1.23-.48,1.7-.01.47.46.47,1.22.01,1.69l-4.62,4.68,4.77,4.83c.46.48.46,1.24-.01,1.7Z"/>
      <path class="cls-2" d="M39.73,35.83l-5.45,5.52c-.23.24-.54.36-.85.36s-.61-.12-.85-.35c-.47-.46-.47-1.22-.01-1.7l4.62-4.67-4.77-4.84c-.46-.47-.46-1.23.01-1.69.47-.47,1.23-.46,1.7.01l5.6,5.67c.46.47.46,1.22,0,1.69Z"/>
      <path class="cls-2" d="M29.49,29.91l-6.4,11.19c-.22.39-.62.61-1.04.61-.2,0-.41-.05-.6-.16-.57-.33-.77-1.06-.44-1.64l6.4-11.19c.32-.58,1.06-.78,1.63-.45.58.33.78,1.06.45,1.64Z"/>
    </g>
  </g>
  <g>
    <circle class="cls-1" cx="43.81" cy="17.32" r="9.92"/>
    <g>
      <path class="cls-2" d="M46.64,21.63l-.98-.98h0s-1.53-1.53-1.53-1.53l-4.64-4.65c-.09-.1-.15-.22-.18-.34-.01-.05-.02-.1-.01-.15,0-.18.07-.35.2-.48h0s.5-.5.5-.5c.27-.27.71-.27.99,0l.98.98h0s1.53,1.53,1.53,1.53l4.64,4.65c.07.07.12.15.15.23.03.08.05.16.05.24,0,.18-.07.36-.2.5l-.5.5c-.27.27-.71.27-.99,0Z"/>
      <path class="cls-2" d="M39.5,20.14l.98-.98h0s1.52-1.52,1.52-1.52l4.65-4.64c.1-.09.22-.15.34-.18.05-.01.1-.02.15-.01.18,0,.35.07.48.2h0s.5.5.5.5c.27.27.27.71,0,.99l-.98.98h0s-1.52,1.52-1.52,1.52l-4.65,4.64c-.07.07-.15.12-.23.15-.08.03-.16.05-.24.05-.18,0-.36-.07-.5-.2l-.5-.5c-.27-.27-.27-.71,0-.99Z"/>
    </g>
  </g>
</svg>