<?xml version="1.0" encoding="UTF-8"?>
<svg id="Layer_1" data-name="Layer 1" xmlns="http://www.w3.org/2000/svg" viewBox="0 0 56.69 56.69">
  <defs>
    <style>
      .cls-1 {
        fill: #fff;
      }

      .cls-2 {
        fill: #778558;
      }

      .cls-3 {
        fill: #d6dbcd;
      }
    </style>
  </defs>
  <path class="cls-1" d="M30.15.46h0c16.66,9.08,26.85,26.72,26.38,45.69h0c-.03,1.28-.71,2.46-1.8,3.12h0c-16.2,9.89-36.56,9.89-52.76,0h0c-1.09-.67-1.77-1.84-1.8-3.12h0C-.31,27.18,9.88,9.54,26.54.46h0c1.12-.61,2.48-.61,3.61,0Z"/>
  <g>
    <g>
      <path class="cls-2" d="M15.01,33.7l2.93,2.59c.12.11.26.21.41.3l1.94,1.19c.95.75,1.73,1.7,2.29,2.81l1.81,4.93-5.86,2.27c-1.14-1.04-5.36-5.23-5.56-5.4-1.26-1.14-2.21-2.6-2.75-4.21l-3.26-9.76c-.11-.33.08-.71.43-.84,1.28-.47,2.83,1.06,3.47,2.78.59,1.57,1.09,2.85,1.26,3.28-.37.72-.35,1.76,1.09,3.1.67.61,3.41,3.28,3.44,3.31.13.13.35.13.48,0,.13-.13.12-.35,0-.48-.11-.11-2.78-2.7-3.45-3.32-1.32-1.22-1.15-1.97-.92-2.35.02-.02.04-.05.05-.08.04-.06.08-.1.11-.14.23-.28.53-.44.87-.46.42-.03.85.15,1.24.5Z"/>
      <rect class="cls-3" x="20.63" y="43.4" width="2.7" height="9.01" rx=".57" ry=".57" transform="translate(-14.75 85.7) rotate(-111.17)"/>
    </g>
    <g>
      <path class="cls-2" d="M43.7,33.7l-2.93,2.59c-.12.11-.26.21-.41.3l-1.94,1.19c-.95.75-1.73,1.7-2.29,2.81l-1.81,4.93,5.86,2.27c1.14-1.04,5.36-5.23,5.56-5.4,1.26-1.14,2.21-2.6,2.75-4.21l3.26-9.76c.11-.33-.08-.71-.43-.84-1.28-.47-2.83,1.06-3.47,2.78-.59,1.57-1.09,2.85-1.26,3.28.37.72.35,1.76-1.09,3.1-.67.61-3.41,3.28-3.44,3.31-.13.13-.35.13-.48,0-.13-.13-.12-.35,0-.48.11-.11,2.78-2.7,3.45-3.32,1.32-1.22,1.15-1.97.92-2.35-.02-.02-.04-.05-.05-.08-.04-.06-.08-.1-.11-.14-.23-.28-.53-.44-.87-.46-.42-.03-.85.15-1.24.5Z"/>
      <rect class="cls-3" x="35.38" y="43.4" width="2.7" height="9.01" rx=".57" ry=".57" transform="translate(-21.2 64.86) rotate(-68.83)"/>
    </g>
    <g>
      <g>
        <path class="cls-3" d="M35.39,23.84h-2.01c-2.78,0-5.03,2.25-5.03,5.03h12.07c0-2.78-2.25-5.03-5.03-5.03Z"/>
        <circle class="cls-3" cx="34.38" cy="19.82" r="3.02"/>
      </g>
      <g>
        <path class="cls-3" d="M23.32,23.84h-2.01c-2.78,0-5.03,2.25-5.03,5.03h12.07c0-2.78-2.25-5.03-5.03-5.03Z"/>
        <circle class="cls-3" cx="22.31" cy="19.82" r="3.02"/>
      </g>
      <g>
        <path class="cls-2" d="M29.59,24.59h-2.59c-3.57,0-6.46,2.89-6.46,6.46h15.52c0-3.57-2.89-6.46-6.46-6.46Z"/>
        <circle class="cls-2" cx="28.3" cy="19.41" r="3.88"/>
      </g>
    </g>
  </g>
</svg>