<?xml version="1.0" encoding="UTF-8"?>
<svg id="Layer_1" data-name="Layer 1" xmlns="http://www.w3.org/2000/svg" viewBox="0 0 56.69 56.69">
  <defs>
    <style>
      .cls-1 {
        fill: #fff;
      }

      .cls-2 {
        fill: #bbd2df;
      }

      .cls-3 {
        fill: #8bb4c9;
      }

      .cls-4 {
        fill: #e9f0f5;
      }

      .cls-5 {
        fill: #296991;
      }
    </style>
  </defs>
  <rect class="cls-1" width="56.69" height="56.69" rx="3.5" ry="3.5"/>
  <g id="Artwork_64x64" data-name="Artwork 64x64">
    <rect class="cls-5" x="12.69" y="17.16" width="31.32" height="17.9" rx="1.12" ry="1.12"/>
    <circle class="cls-2" cx="28.27" cy="26.11" r="5.59"/>
    <path class="cls-5" d="M28.67,22.83c.54,0,1.07.12,1.56.33l-.37.92c-.34-.15-.71-.24-1.08-.26-.18-.01-.35.05-.48.18-.12.14-.18.32-.17.51v.77h1.5v.87h-1.5v.56c.02.42-.22.81-.6.99h2.86v1.03h-4.18v-.95c.22-.08.41-.22.56-.4.11-.19.17-.41.16-.63v-.56h-.71v-.92h.72v-.78c-.03-.46.13-.91.45-1.24.36-.31.82-.47,1.29-.44Z"/>
    <path class="cls-3" d="M18.28,28.35c-3.09,0-5.59,2.5-5.59,5.59s2.5,5.59,5.59,5.59,5.59-2.5,5.59-5.59-2.5-5.59-5.59-5.59Z"/>
    <path class="cls-4" d="M18.28,38.69c-2.63,0-4.75-2.13-4.75-4.75s2.13-4.75,4.75-4.75,4.75,2.13,4.75,4.75c0,2.62-2.13,4.75-4.75,4.75ZM18.28,29.74c-2.32,0-4.19,1.88-4.19,4.19s1.88,4.19,4.19,4.19,4.19-1.88,4.19-4.19-1.88-4.19-4.19-4.19h0Z"/>
    <path class="cls-4" d="M18.53,31.18c.45,0,.9.1,1.31.27l-.31.78c-.29-.13-.6-.2-.92-.22-.15,0-.3.05-.4.15-.1.12-.15.27-.14.43v.65h1.26v.73h-1.26v.48c.02.36-.18.69-.51.84h2.4v.88h-3.52v-.84c.19-.07.35-.19.48-.34.09-.16.14-.34.13-.53v-.49h-.58v-.73h.6v-.66c-.02-.39.12-.76.39-1.04.3-.26.69-.39,1.08-.36Z"/>
    <polygon class="cls-3" points="40.09 19.4 37.29 19.4 37.29 21.08 40.09 21.08 40.09 23.87 41.77 23.87 41.77 21.08 41.77 19.4 40.09 19.4"/>
    <polygon class="cls-3" points="19.4 19.4 16.6 19.4 14.92 19.4 14.92 21.08 14.92 23.87 16.6 23.87 16.6 21.08 19.4 21.08 19.4 19.4"/>
    <polygon class="cls-3" points="40.09 28.35 40.09 31.14 37.29 31.14 37.29 32.82 40.09 32.82 41.77 32.82 41.77 31.14 41.77 28.35 40.09 28.35"/>
  </g>
</svg>