<?xml version="1.0" encoding="UTF-8"?>
<svg id="Layer_1" data-name="Layer 1" xmlns="http://www.w3.org/2000/svg" viewBox="0 0 56.69 56.69">
  <defs>
    <style>
      .cls-1 {
        fill: #fff;
      }

      .cls-2 {
        fill: none;
        stroke: #c75e70;
        stroke-linecap: round;
        stroke-linejoin: round;
        stroke-width: 1.62px;
      }

      .cls-3 {
        fill: #ebabb7;
      }
    </style>
  </defs>
  <circle class="cls-1" cx="28.35" cy="28.35" r="28.35"/>
  <g>
    <line class="cls-2" x1="12.48" y1="41.81" x2="44.2" y2="41.81"/>
    <g>
      <path class="cls-3" d="M28.35,39.51s3.69-.12,3.69-3.04v-6.37l-3.69,1.55v7.86Z"/>
      <path class="cls-3" d="M28.35,28.24s3.79-.53,3.85-3.11c.06-2.58,0-3.26,0-3.26l-3.85,1.65v4.72Z"/>
      <path class="cls-3" d="M28.35,19.88s5.06.82,5.06-4.6c0-1.26-5.31-.38-5.06,4.6Z"/>
      <path class="cls-3" d="M28.34,39.51s-3.69-.12-3.69-3.04,0-6.37,0-6.37l3.69,1.55v7.86Z"/>
      <path class="cls-3" d="M28.34,28.24s-3.79-.53-3.85-3.11,0-3.26,0-3.26l3.85,1.65v4.72Z"/>
      <path class="cls-3" d="M28.34,19.88s-5.06.82-5.06-4.6c0-1.26,5.31-.38,5.06,4.6Z"/>
      <line class="cls-2" x1="28.35" y1="15.3" x2="28.35" y2="41.81"/>
    </g>
    <g>
      <path class="cls-3" d="M16.09,39.51s3.69-.12,3.69-3.04v-6.37l-3.69,1.55v7.86Z"/>
      <path class="cls-3" d="M16.09,28.24s3.79-.53,3.85-3.11c.06-2.58,0-3.26,0-3.26l-3.85,1.65v4.72Z"/>
      <path class="cls-3" d="M16.09,19.88s5.06.82,5.06-4.6c0-1.26-5.31-.38-5.06,4.6Z"/>
      <path class="cls-3" d="M16.08,39.51s-3.69-.12-3.69-3.04,0-6.37,0-6.37l3.69,1.55v7.86Z"/>
      <path class="cls-3" d="M16.08,28.24s-3.79-.53-3.85-3.11,0-3.26,0-3.26l3.85,1.65v4.72Z"/>
      <path class="cls-3" d="M16.08,19.88s-5.06.82-5.06-4.6c0-1.26,5.31-.38,5.06,4.6Z"/>
      <line class="cls-2" x1="16.09" y1="15.3" x2="16.09" y2="41.81"/>
    </g>
    <g>
      <path class="cls-3" d="M40.62,39.51s3.69-.12,3.69-3.04v-6.37l-3.69,1.55v7.86Z"/>
      <path class="cls-3" d="M40.62,28.24s3.79-.53,3.85-3.11,0-3.26,0-3.26l-3.85,1.65v4.72Z"/>
      <path class="cls-3" d="M40.62,19.88s5.06.82,5.06-4.6c0-1.26-5.31-.38-5.06,4.6Z"/>
      <path class="cls-3" d="M40.6,39.51s-3.69-.12-3.69-3.04v-6.37s3.69,1.55,3.69,1.55v7.86Z"/>
      <path class="cls-3" d="M40.6,28.24s-3.79-.53-3.85-3.11c-.06-2.58,0-3.26,0-3.26l3.85,1.65v4.72Z"/>
      <path class="cls-3" d="M40.6,19.88s-5.06.82-5.06-4.6c0-1.26,5.31-.38,5.06,4.6Z"/>
      <line class="cls-2" x1="40.62" y1="15.3" x2="40.62" y2="41.81"/>
    </g>
  </g>
</svg>