<?xml version="1.0" encoding="UTF-8"?>
<svg id="Layer_1" data-name="Layer 1" xmlns="http://www.w3.org/2000/svg" viewBox="0 0 56.69 56.69">
  <defs>
    <style>
      .cls-1 {
        fill: #fff;
      }
    </style>
  </defs>
  <circle cx="28.35" cy="28.35" r="28.35"/>
  <g>
    <path class="cls-1" d="M40.67,20.27l-2.81,2.81h-.01s-4.35,4.35-4.35,4.35l-13.3,13.26c-.28.27-.62.44-.97.52-.14.03-.28.05-.42.04-.5-.01-.99-.2-1.37-.58h0s-1.42-1.43-1.42-1.43c-.78-.78-.78-2.04,0-2.82l2.81-2.81h.01s4.35-4.35,4.35-4.35l13.3-13.26c.2-.19.42-.33.65-.42.22-.09.46-.14.69-.13.52,0,1.03.19,1.42.58l1.42,1.42c.78.78.78,2.04,0,2.82Z"/>
    <path class="cls-1" d="M36.43,40.67l-2.81-2.81h0s-4.36-4.36-4.36-4.36l-13.26-13.3c-.27-.28-.44-.62-.52-.97-.03-.14-.05-.28-.04-.42.01-.5.2-.99.58-1.37h.01l1.42-1.42c.78-.78,2.04-.78,2.82,0l2.81,2.81h-.01s4.36,4.36,4.36,4.36l13.26,13.3c.19.2.33.42.42.65.09.22.14.46.13.69,0,.52-.19,1.03-.58,1.42l-1.42,1.42c-.78.78-2.04.78-2.82,0Z"/>
  </g>
</svg>