<?xml version="1.0" encoding="UTF-8"?>
<svg id="Layer_1" data-name="Layer 1" xmlns="http://www.w3.org/2000/svg" viewBox="0 0 56.69 56.69">
  <defs>
    <style>
      .cls-1 {
        fill: none;
        stroke: #cc8544;
        stroke-linecap: round;
        stroke-linejoin: round;
        stroke-width: 1.63px;
      }

      .cls-2 {
        fill: #fff;
      }

      .cls-3 {
        fill: #cc8544;
      }

      .cls-4 {
        fill: #f4bf96;
      }
    </style>
  </defs>
  <path class="cls-2" d="M51.49,12.76L30.27.52c-1.19-.69-2.66-.69-3.85,0L5.21,12.76c-1.19.69-1.93,1.96-1.93,3.34v24.49c0,1.38.73,2.65,1.93,3.34l21.21,12.25c1.19.69,2.66.69,3.85,0l21.21-12.25c1.19-.69,1.93-1.96,1.93-3.34v-24.49c0-1.38-.73-2.65-1.93-3.34Z"/>
  <g>
    <g>
      <rect class="cls-3" x="15.22" y="22.51" width="13.13" height="3.46" rx="1.14" ry="1.14"/>
      <path class="cls-3" d="M20.25,18.55h7.67c.23,0,.42.19.42.42v1.9c0,.63-.51,1.14-1.14,1.14h-6.96c-.63,0-1.14-.51-1.14-1.14v-1.18c0-.63.51-1.14,1.14-1.14Z"/>
      <path class="cls-3" d="M24.17,14.59h3.76c.23,0,.42.19.42.42v1.9c0,.63-.51,1.14-1.14,1.14h-3.04c-.63,0-1.14-.51-1.14-1.14v-1.18c0-.63.51-1.14,1.14-1.14Z"/>
      <path class="cls-3" d="M27.34,14.09h0c-.55,0-1-.45-1-1v-1.45c0-.55.45-1,1-1h0c.55,0,1-.18,1,1v1.45c0,1.29-.45,1-1,1Z"/>
      <path class="cls-3" d="M24.54,38.36h3.38c.23,0,.42.19.42.42v1.9c0,.63-.51,1.14-1.14,1.14h-2.67c-.63,0-1.14-.51-1.14-1.14v-1.18c0-.63.51-1.14,1.14-1.14Z"/>
      <path class="cls-3" d="M18.3,34.39h9.62c.23,0,.42.19.42.42v1.9c0,.63-.51,1.14-1.14,1.14h-8.9c-.63,0-1.14-.51-1.14-1.14v-1.18c0-.63.51-1.14,1.14-1.14Z"/>
      <path class="cls-3" d="M14.76,30.43h13.17c.23,0,.42.19.42.42v1.9c0,.63-.51,1.14-1.14,1.14h-12.45c-.63,0-1.14-.51-1.14-1.14v-1.18c0-.63.51-1.14,1.14-1.14Z"/>
      <path class="cls-3" d="M13.87,26.47h14.05c.23,0,.42.19.42.42v1.9c0,.63-.51,1.14-1.14,1.14h-13.34c-.63,0-1.14-.51-1.14-1.14v-1.18c0-.63.51-1.14,1.14-1.14Z"/>
      <rect class="cls-4" x="28.35" y="22.51" width="14.08" height="3.46" rx="1.14" ry="1.14" transform="translate(70.77 48.48) rotate(-180)"/>
      <rect class="cls-4" x="28.35" y="18.55" width="10.39" height="3.46" rx="1.14" ry="1.14" transform="translate(67.09 40.56) rotate(-180)"/>
      <path class="cls-4" d="M29.49,14.59h3.84c.63,0,1.14.51,1.14,1.14v1.9c0,.23-.19.42-.42.42h-4.55c-.63,0-1.14-.51-1.14-1.14v-1.18c0-.63.51-1.14,1.14-1.14Z" transform="translate(62.81 32.64) rotate(-180)"/>
      <rect class="cls-4" x="28.35" y="10.63" width="3.25" height="3.46" rx="1.14" ry="1.14" transform="translate(59.94 24.72) rotate(-180)"/>
      <path class="cls-4" d="M29.49,38.36h2.12c.23,0,.42.19.42.42v1.9c0,.63-.51,1.14-1.14,1.14h-1.4c-.63,0-1.14-.51-1.14-1.14v-1.18c0-.63.51-1.14,1.14-1.14Z" transform="translate(60.37 80.17) rotate(-180)"/>
      <path class="cls-4" d="M29.49,34.39h7.95c.23,0,.42.19.42.42v2.61c0,.23-.19.42-.42.42h-7.95c-.63,0-1.14-.51-1.14-1.14v-1.18c0-.63.51-1.14,1.14-1.14Z" transform="translate(66.21 72.25) rotate(-180)"/>
      <path class="cls-4" d="M29.49,30.43h11.57c.23,0,.42.19.42.42v2.61c0,.23-.19.42-.42.42h-11.57c-.63,0-1.14-.51-1.14-1.14v-1.18c0-.63.51-1.14,1.14-1.14Z" transform="translate(69.82 64.33) rotate(-180)"/>
      <path class="cls-4" d="M29.49,26.47h14.05c.23,0,.42.19.42.42v1.9c0,.63-.51,1.14-1.14,1.14h-13.34c-.63,0-1.14-.51-1.14-1.14v-1.18c0-.63.51-1.14,1.14-1.14Z" transform="translate(72.31 56.4) rotate(-180)"/>
    </g>
    <polyline class="cls-1" points="28.35 8.19 28.35 43.17 43.96 43.17"/>
    <line class="cls-1" x1="12.73" y1="43.17" x2="28.35" y2="43.17"/>
  </g>
</svg>