<?xml version="1.0" encoding="UTF-8"?>
<svg id="Layer_1" data-name="Layer 1" xmlns="http://www.w3.org/2000/svg" viewBox="0 0 56.69 56.69">
  <defs>
    <style>
      .cls-1 {
        fill: #fff;
      }

      .cls-2 {
        fill: none;
        stroke: #8295a8;
        stroke-linecap: round;
        stroke-linejoin: round;
        stroke-width: 1.39px;
      }

      .cls-3 {
        fill: #092d4c;
      }
    </style>
  </defs>
  <rect class="cls-1" y="0" width="56.69" height="56.69" rx="3.5" ry="3.5"/>
  <g>
    <path class="cls-2" d="M42.91,46.74s-2.51-3.27-2.34-7.13c.18-3.86,6.83-12.73,4.79-20.68-2.04-7.94-9.17-11.39-15.95-10.75-6.78.64-11.74,2.98-14.31,7.71-2.57,4.73-.35,9.35-.35,9.35,0,0-4.09,5.25-4.09,6.89,0,.88,2.92,1.75,2.92,1.75,0,0-.41,2.16-.35,2.69s1.46,1.46,1.46,2.28-.78,3.67.41,4.44c2.63,1.69,6.47-.44,7.89.12,1.64.64,3.45,2.1,3.33,3.74"/>
    <g>
      <g>
        <line class="cls-2" x1="22.61" y1="26.42" x2="22.04" y2="27.99"/>
        <line class="cls-2" x1="29.19" y1="26.42" x2="28.62" y2="27.99"/>
        <line class="cls-2" x1="35.76" y1="26.42" x2="35.19" y2="27.99"/>
        <line class="cls-2" x1="25.88" y1="31.24" x2="25.31" y2="32.81"/>
        <line class="cls-2" x1="32.46" y1="31.24" x2="31.89" y2="32.81"/>
      </g>
      <path class="cls-3" d="M19.55,18.78c-.72,1.92.25,4.06,2.17,4.79.31.1.63.15.96.15h13.88c.91.02,1.81-.25,2.55-.79,1.06-.69,1.62-1.93,1.46-3.18-.14-1.34-1.04-2.47-2.31-2.9-.22-.07-.36-.27-.35-.5-.19-2.43-2.04-4.4-4.45-4.73-1.84-.31-3.7.37-4.91,1.79-.08.11-.23.14-.35.09-1.44-.4-2.97-.02-4.06,1-.57.55-.98,1.25-1.19,2.02-1.1-.1-2.17.38-2.84,1.26-.24.3-.42.63-.56.99Z"/>
    </g>
  </g>
</svg>