<?xml version="1.0" encoding="UTF-8"?>
<svg id="Layer_1" data-name="Layer 1" xmlns="http://www.w3.org/2000/svg" viewBox="0 0 56.69 56.69">
  <defs>
    <style>
      .cls-1 {
        fill: #fff;
      }

      .cls-2 {
        fill: #8595a6;
      }

      .cls-3 {
        fill: #132d4a;
      }

      .cls-4 {
        fill: none;
        stroke: #496279;
        stroke-linecap: round;
        stroke-linejoin: round;
        stroke-width: 1.13px;
      }
    </style>
  </defs>
  <rect class="cls-1" y="0" width="56.69" height="56.69" rx="3.5" ry="3.5"/>
  <g>
    <g>
      <path class="cls-2" d="M39.71,32.08s-.89.33-1.28,2.36c-.36,1.89.55,3.71.69,3.97-.14-.24-.98-1.55-2.48-1.72-1.65-.17-2.87,1.18-2.87,1.18,0,0-2.68-4.18-6.55-2.43-2.14.97-3.03,2.31-3.32,3.55-.36.3-1.87,1.4-4.67,1.28-2.59-.11-3.46-1.97-3.7-2.71.68-.48,1.27-1.34,1.63-2.79.82-3.26-2.51-3.8-2.51-3.8,0,0,1.72-.92,1.8-2.1.08-1.18-1.44-2.54-1.44-2.54,0,0,1.09-.48,1.34-2.27.21-1.54-.45-2.48-.84-3.1.27.03.55.03.83.03,1.89-.03,2.97-1.47,2.97-1.47,0,0,.75,1.26,2.58,1.83.18.06.36.09.53.1,1.61.19,3.02-1.01,3.21-.82.21.21,1.08,1.4,3.39,1.33,1.63-.06,3.65-1.36,3.65-1.36,0,0,1.76.55,2.69.46,1.71-.16,2.74-.79,3.47-1.36-.21.47-.5,1.32-.5,2.51,0,1.9,1.76,3.25,1.76,3.25,0,0-1.18,1.15-1.4,2.87-.21,1.72,1.04,3.76,1.04,3.76Z"/>
      <g>
        <path class="cls-4" d="M19.15,36.77c3.7.46,3.46-2.12,5.3-2.19,2.32-.08,2.54,1.69,2.54,1.69"/>
        <path class="cls-4" d="M18.19,23.39c2.32,1.35,1.59,2.29,2.45,4.43.68,1.69,4.29,4.84,7.12,2.83s1.82-4.06,1.56-4.6c-.5-1.04-2.06-2.43-2.61-2.66"/>
        <path class="cls-4" d="M25.98,27.67s-2.59-.52-3.23-2.49c-.64-1.96-.47-3.83-.47-3.83"/>
        <path class="cls-4" d="M17.59,27.68s2.28-1.01,3.55.98"/>
        <path class="cls-4" d="M17.59,30.83s3.46,1.81,4.92-.74"/>
        <path class="cls-4" d="M21.65,33.58s-2.29,0-1.37-2.13"/>
        <path class="cls-4" d="M24.92,31.29s2.44,1.86,0,3.3"/>
        <path class="cls-4" d="M28.39,33.15c.91.09,1.44-.48,2.39-1.7,1.31-1.69,4.06-1.55,5.22-.16.87,1.05.84,2.91-1.38,3.64"/>
        <path class="cls-4" d="M30.68,35.68s.32-2.53,3.32-2.99"/>
        <path class="cls-4" d="M30.96,22.8s-2.56,4.22.04,6.53c1.64,1.46,4.55.96,5.12-.67"/>
        <path class="cls-4" d="M36.83,23.24s-2.08,3.19,1.81,4.44"/>
        <path class="cls-4" d="M33.6,27.34s-1.78-2.42,1.61-6.38"/>
      </g>
    </g>
    <path class="cls-3" d="M46.96,36.56c-.83,3.22-4.13,4.62-4.13,4.62-.08,1.29-.71,2.08-2.79,3.03-2.79,1.26-5.7-1.31-5.7-1.31,0,0-.36,1.5-2.72,1.28-.61-.06-1.14-.23-1.6-.47,0,0,1.5,4.28-.44,4.67-.95.19-5.16.39-5.88-.18s-1.64-3.55.54-5.84c0,0-.79-1.59-.35-3.37.29-1.24,1.18-2.58,3.32-3.55,3.87-1.74,6.55,2.43,6.55,2.43,0,0,1.22-1.35,2.87-1.18,1.5.17,2.34,1.49,2.48,1.72-.14-.26-1.05-2.08-.69-3.97.39-2.04,1.28-2.36,1.28-2.36,0,0-1.25-2.04-1.04-3.76.21-1.72,1.4-2.87,1.4-2.87,0,0-1.76-1.35-1.76-3.25,0-1.19.28-2.04.5-2.51-.73.57-1.76,1.2-3.47,1.36-.93.09-2.69-.46-2.69-.46,0,0-2.01,1.31-3.65,1.36-2.31.07-3.17-1.11-3.39-1.33-.19-.19-1.6,1.01-3.21.82-.17-.01-.35-.05-.53-.1-1.82-.57-2.58-1.83-2.58-1.83,0,0-1.08,1.44-2.97,1.47-.28,0-.56,0-.83-.03.39.62,1.06,1.55.84,3.1-.25,1.79-1.34,2.27-1.34,2.27,0,0,1.52,1.36,1.44,2.54-.08,1.18-1.8,2.1-1.8,2.1,0,0,3.33.54,2.51,3.8-.36,1.45-.96,2.31-1.63,2.79-.82.61-1.76.68-2.49.68-1.33,0-3.61-1.36-3.73-3.25-.1-1.9,1.08-3.33,1.08-3.33,0,0-1.72-1.47-1.79-3.08-.08-1.61,1.79-2.65,1.79-2.65,0,0-1.76-.64-1.62-2.22.15-1.58,1.33-2.05,1.33-2.05,0,0-.86-1.22-.57-2.51.29-1.28.87-1.28.87-1.28,0,0-1.72-3.87,1.53-5.34,3.26-1.47,4.38.84,4.38.84.6-.23,1.32-.36,2.18-.27,2.76.28,3.25,2.58,3.25,2.58,0,0,1.58-1,2.69-.9,1.1.11,2.58,1.47,2.58,1.47,0,0,1.4-2.48,3.4-2.54,1.35-.05,2.32-.06,3.33.46,0,0-.07-1.22,1.9-1.97,1.97-.75,2.47-.19,2.47-.19,0,0,2.87-4.6,6.24-3.23,3.14,1.27,3.05,4.29,1.65,6.4,0,0,1.42,2.1.84,5.16-.57,3.04-2.36,4.04-2.36,4.04,0,0,1.9,2.16,1.69,3.78-.21,1.62-1.33,3.49-1.33,3.49,0,0,2.95,1.68,2.13,4.91Z"/>
  </g>
</svg>