<?xml version="1.0" encoding="UTF-8"?>
<svg id="Layer_1" data-name="Layer 1" xmlns="http://www.w3.org/2000/svg" viewBox="0 0 56.69 56.69">
  <defs>
    <style>
      .cls-1 {
        fill: #89b1bd;
      }

      .cls-2 {
        fill: #fff;
      }

      .cls-3 {
        fill: #8595a6;
      }

      .cls-4 {
        fill: #b8c0ca;
      }

      .cls-5 {
        fill: #132d4a;
      }
    </style>
  </defs>
  <rect class="cls-2" y="0" width="56.69" height="56.69" rx="3.5" ry="3.5"/>
  <g>
    <g>
      <path class="cls-5" d="M13.58,15.45c-.18.35-.43.62-.67.84,0,0,0,0,0,0-.36.31-.72.49-.93.58-.05.02-.09.03-.14.04.12-.08.5-.39.48-1.05,0-.16-.03-.3-.06-.42,0-.03-.01-.06-.02-.09,0-.02-.01-.04-.02-.06-.01-.04-.02-.07-.04-.1-.01-.02-.02-.05-.03-.07-.02-.05-.05-.09-.07-.13-.03-.04-.05-.08-.08-.12-.02-.02-.03-.04-.05-.06-.01-.02-.03-.03-.04-.05-.03-.04-.06-.07-.09-.1-.03-.03-.06-.07-.09-.1-.02-.02-.03-.04-.05-.05-.03-.03-.06-.07-.09-.1-.02-.02-.03-.04-.05-.06-.02-.02-.03-.04-.04-.06-.05-.07-.09-.15-.13-.23,0-.02-.02-.04-.02-.06-.03-.08-.05-.16-.07-.26,0-.03,0-.05-.01-.08h0c-.02-.18-.24-.26-.36-.13,0,0-.02.02-.02.03-.02.02-.04.05-.06.07-.02.02-.04.05-.06.08-.09.13-.18.29-.26.48-.01.04-.03.08-.04.11-.01.03-.02.07-.03.1,0,0,0,.02,0,.03-.01.04-.02.08-.03.12,0,.03-.01.06-.02.09,0,.02,0,.04,0,.07,0,.04,0,.07-.01.11,0,.05,0,.1,0,.15,0,.03,0,.05,0,.08v.02s0,.04,0,.07c0,.01,0,.03,0,.04,0,.04,0,.09.01.13.01.09-.07.16-.16.13-.05-.01-.1-.03-.15-.05,0,0,0,0,0,0-.04-.02-.07-.04-.11-.07-.08-.06-.19,0-.2.09,0,.04,0,.09,0,.15,0,0,0,.01,0,.02,0,.03,0,.06,0,.08,0,.04,0,.08.01.11,0,.03,0,.05.01.08.01.06.02.12.04.18,0,.03.02.06.03.1,0,0,0,.01,0,.02.07.19.17.4.32.62.01.01.02.03.04.03-.23-.1-.45-.23-.64-.39-.02,0-.03-.02-.05-.03-.55-.45-1.18-1.3-.85-2.67.36-1.5,1.28-1.64,1.88-2.74.22-.41.29-.84.29-1.16,0-.19.23-.28.36-.14.39.41.97,1.11,1.25,1.86.14.39.2.76.2,1.08,0,.3-.04.57-.08.77-.04.18.15.32.31.23.13-.08.27-.18.38-.31.02-.02.04-.05.06-.08.1-.14.3-.12.37.03.19.45.37,1.25-.12,2.18Z"/>
      <g>
        <path class="cls-3" d="M12.31,15.88c.02.66-.35.96-.48,1.05-.13.04-.27.06-.41.08-.04,0-.08,0-.12,0-.07,0-.15,0-.23,0-.03,0-.07,0-.1,0h0s-.06,0-.09-.01c-.04,0-.08-.01-.11-.02-.02,0-.04,0-.05-.01-.03,0-.07-.01-.1-.02,0,0-.01,0-.02,0-.03,0-.06-.01-.09-.02-.03,0-.06-.02-.08-.02-.02,0-.04-.01-.06-.02-.02,0-.03-.01-.04-.01-.03-.01-.06-.02-.09-.04-.01,0-.03-.02-.04-.03-.15-.22-.26-.43-.32-.62,0,0,0-.02,0-.02-.01-.03-.02-.07-.03-.1-.02-.06-.03-.12-.04-.18,0-.03-.01-.06-.01-.08,0-.04,0-.08-.01-.11,0-.04,0-.07,0-.1,0-.05,0-.1,0-.15,0-.1.12-.15.2-.09.04.03.07.05.11.07,0,0,0,0,0,0,.05.03.1.04.15.05.09.02.17-.05.16-.13,0-.04-.01-.09-.01-.13,0-.02,0-.03,0-.04,0-.02,0-.04,0-.07v-.02s0-.05,0-.08c0-.05,0-.1,0-.15,0-.04,0-.07.01-.11,0-.02,0-.04,0-.07,0-.03.01-.06.02-.09,0-.04.02-.08.03-.12,0-.01,0-.02,0-.03,0-.04.02-.07.03-.1.01-.04.03-.08.04-.11.07-.18.16-.34.26-.48.02-.03.04-.05.06-.08.02-.02.04-.05.06-.07,0,0,.02-.02.02-.03.12-.13.34-.05.36.13h0s0,.06.01.08c.01.1.04.18.07.26,0,.02.01.04.02.06.04.08.08.16.13.23.01.02.03.04.04.06.02.02.03.04.05.06.03.03.06.07.09.1.02.02.03.03.05.05.03.03.06.07.09.1.03.03.06.07.09.1.01.02.03.03.04.05.02.02.03.04.05.06.03.04.06.08.08.12.03.04.05.08.07.13.01.02.02.05.03.07.02.03.03.07.04.1,0,.02.01.04.02.06,0,.03.02.06.02.09.03.12.05.26.06.42Z"/>
        <path class="cls-1" d="M10.43,16.82s.06.02.09.04c-.03,0-.05-.02-.07-.02,0,0-.02,0-.02-.01Z"/>
      </g>
    </g>
    <g id="Artwork_64x64" data-name="Artwork 64x64">
      <path class="cls-5" d="M28.99,10.2h-2.11c-.58,0-1.05.47-1.05,1.05v3.29l-5.2-5.2c-.62-.62-1.62-.62-2.23,0l-9.42,9.42v13.17c0,.87.71,1.58,1.58,1.58h17.91c.87,0,1.58-.71,1.58-1.58V11.26c0-.58-.47-1.05-1.05-1.05ZM14.24,26.05h-2.11v-2.11h2.11v2.11ZM14.24,22.89h-2.11v-2.11h2.11v2.11ZM17.4,26.05h-2.11v-2.11h2.11v2.11ZM17.4,22.89h-2.11v-2.11h2.11v2.11Z"/>
      <path class="cls-3" d="M31.59,21.92l-11.34-11.32c-.41-.41-1.07-.41-1.49,0l-11.34,11.32c-.3.31-.8.31-1.11,0,0,0,0,0,0,0l-.37-.37c-.31-.31-.31-.81,0-1.12l11.34-11.32c1.23-1.23,3.23-1.23,4.47,0l11.34,11.34c.31.31.31.81,0,1.12l-.37.37c-.31.3-.81.3-1.11,0,0,0,0,0,0,0Z"/>
      <rect class="cls-3" x="20.56" y="27.18" width="4.21" height="6.32"/>
    </g>
    <g>
      <path class="cls-5" d="M11.66,31.63c-.25.47-.57.84-.9,1.13,0,0,0,0-.01.01-.48.42-.97.66-1.25.78-.06.02-.12.04-.19.06.17-.11.68-.52.64-1.4,0-.22-.04-.4-.08-.57,0-.04-.02-.08-.03-.12,0-.03-.02-.05-.03-.08-.02-.05-.03-.09-.05-.14-.01-.03-.03-.07-.04-.1-.03-.06-.06-.12-.1-.18-.04-.06-.07-.11-.11-.16-.02-.03-.04-.06-.06-.08-.02-.02-.04-.04-.05-.06-.04-.05-.08-.09-.12-.13-.04-.04-.08-.09-.12-.13-.02-.02-.04-.05-.06-.07-.04-.04-.08-.09-.12-.13-.02-.03-.04-.05-.07-.08-.02-.03-.04-.05-.06-.08-.07-.09-.13-.2-.17-.31,0-.02-.02-.05-.03-.08-.04-.1-.07-.22-.09-.34,0-.04-.01-.07-.01-.11h0c-.03-.24-.32-.35-.48-.17,0,.01-.02.02-.03.04-.03.03-.05.06-.08.09-.03.03-.05.07-.08.1-.13.18-.25.39-.35.64-.02.05-.04.1-.05.15-.01.04-.03.09-.04.14,0,.01,0,.03,0,.04-.01.05-.03.1-.04.16,0,.04-.01.08-.02.13,0,.03,0,.06-.01.09,0,.05-.01.1-.01.15,0,.07,0,.13,0,.21,0,.04,0,.07,0,.11v.03s0,.06,0,.09c0,.02,0,.04,0,.06,0,.06.01.12.02.17.02.12-.1.21-.21.18-.06-.02-.13-.04-.2-.07,0,0,0,0-.01,0-.05-.03-.1-.06-.15-.1-.1-.08-.25,0-.26.13,0,.06,0,.13,0,.2,0,0,0,.02,0,.03,0,.04,0,.08,0,.11,0,.05,0,.1.02.15,0,.04.01.07.02.11.01.08.03.16.06.24.01.04.03.09.04.13,0,0,0,.02,0,.03.09.25.23.53.43.83.01.02.03.04.05.04-.31-.13-.6-.31-.86-.52-.02,0-.04-.02-.06-.04-.73-.61-1.58-1.74-1.14-3.59.48-2.01,1.73-2.21,2.52-3.68.3-.55.38-1.13.39-1.56,0-.25.31-.38.48-.19.52.56,1.3,1.49,1.67,2.5.19.52.26,1.02.27,1.45,0,.41-.05.76-.11,1.03-.05.24.2.42.41.3.17-.1.36-.24.51-.41.03-.03.05-.07.08-.1.13-.18.4-.17.49.04.26.61.5,1.68-.16,2.93Z"/>
      <g>
        <path class="cls-3" d="M9.95,32.21c.03.88-.48,1.29-.64,1.4-.18.05-.36.09-.55.1-.05,0-.11,0-.17.01-.1,0-.2,0-.31,0-.04,0-.09,0-.13,0h0s-.08,0-.12-.01c-.05,0-.1-.01-.15-.02-.03,0-.05,0-.07-.01-.04,0-.09-.02-.13-.03,0,0-.02,0-.03,0-.04,0-.08-.02-.12-.03-.04-.01-.08-.02-.11-.03-.03,0-.05-.02-.08-.02-.02,0-.04-.01-.06-.02-.04-.02-.09-.03-.13-.05-.02,0-.04-.03-.05-.04-.21-.3-.34-.58-.43-.83,0-.01,0-.02,0-.03-.01-.04-.03-.09-.04-.13-.02-.08-.04-.17-.06-.24,0-.04-.01-.08-.02-.11,0-.05-.01-.1-.02-.15,0-.05,0-.09,0-.14,0-.07,0-.14,0-.2,0-.13.16-.21.26-.13.05.04.1.07.15.1,0,0,0,0,.01,0,.07.04.14.06.2.07.12.03.23-.06.21-.18,0-.06-.01-.12-.02-.17,0-.02,0-.04,0-.06,0-.03,0-.06,0-.09v-.03s0-.07,0-.11c0-.07,0-.14,0-.21,0-.05,0-.1.01-.15,0-.03,0-.06.01-.09,0-.04.01-.08.02-.13,0-.05.02-.11.04-.16,0-.01,0-.03,0-.04.01-.05.03-.09.04-.14.02-.05.04-.1.05-.15.1-.25.22-.46.35-.64.03-.04.05-.07.08-.1.03-.03.05-.06.08-.09,0-.01.02-.02.03-.04.16-.17.45-.07.48.17h0s0,.08.01.11c.02.13.05.24.09.34,0,.03.02.05.03.08.05.11.11.22.17.31.02.03.04.05.06.08.02.03.04.06.07.08.04.04.08.09.12.13.02.02.04.04.06.07.04.04.08.09.12.13.04.04.09.09.12.13.02.02.04.04.05.06.02.03.04.05.06.08.04.05.08.1.11.16.04.05.07.11.1.18.02.03.03.06.04.1.02.04.04.09.05.14,0,.03.02.05.03.08.01.04.02.08.03.12.04.16.07.35.08.57Z"/>
        <path class="cls-1" d="M7.44,33.48s.08.03.13.05c-.04-.01-.07-.02-.09-.03-.01,0-.02,0-.03-.02Z"/>
      </g>
    </g>
  </g>
  <g>
    <g id="Artwork_64x64-2" data-name="Artwork 64x64">
      <circle class="cls-5" cx="40.74" cy="21.23" r="2.83"/>
      <path class="cls-5" d="M43.15,24.89h-6.18c-1.13,0-.91,1.57-.91,2.66l.12,9.98v10.72c.03.96.83,1.72,1.79,1.69.89-.03,1.62-.72,1.68-1.61l.49-10.8.49,10.8c.07.96.91,1.68,1.86,1.6.89-.07,1.58-.79,1.61-1.68v-10.72l.49-10.22c.05-1.18-.15-2.43-1.46-2.43Z"/>
    </g>
    <path class="cls-5" d="M31.9,36.01l2.98-9.64c.89-2.65,4.82-1.44,4.06,1.26-.02.06-.04.12-.06.17l-3.8,9.35c-.83,1.96-3.78.9-3.18-1.14h0Z"/>
    <path class="cls-5" d="M46.37,21.23l4.4,5.51c.67.84.54,2.08-.31,2.75-.47.38-1.05.49-1.6.4,0,0-5.8-.61-5.8-.61-2.87-.38-2.43-4.59.46-4.36.04,0,.09.01.14.02l5.75.98-1.91,3.15-3.74-5.98c-1.04-1.7,1.36-3.39,2.61-1.85h0Z"/>
    <path class="cls-4" d="M41.33,13.05l-.64,2.31-.64-.83,1.64-.26h.07c.46-.1.82.45.57.84,0,0-1.48,2.45-1.48,2.45-.15.26-.58.07-.48-.22,0,0,.86-2.72.86-2.72l.64.84-1.64.26h-.08c-.46.1-.82-.45-.56-.83,0,0,1.26-2.04,1.26-2.04.15-.26.57-.07.48.21h0Z"/>
    <path class="cls-4" d="M46.77,15.18l-1.91,1.45v-1.05s1.46.79,1.46.79l.06.03c.42.21.37.87-.06,1.02,0,0-2.66,1.05-2.66,1.05-.14.05-.29-.01-.34-.15-.05-.12,0-.24.09-.31l2.34-1.64v1.06s-1.46-.79-1.46-.79l-.07-.04c-.42-.21-.37-.86.07-1.01,0,0,2.24-.86,2.24-.86.28-.12.5.29.26.46h0Z"/>
    <path class="cls-4" d="M35.08,15.29l1.45,1.91h-1.05s.79-1.46.79-1.46l.03-.06c.21-.42.87-.37,1.02.06,0,0,1.05,2.66,1.05,2.66.12.28-.29.5-.46.25,0,0-1.64-2.34-1.64-2.34h1.06s-.79,1.46-.79,1.46l-.04.07c-.21.42-.86.37-1.01-.07,0,0-.86-2.24-.86-2.24-.12-.28.29-.5.46-.26h0Z"/>
  </g>
</svg>