<?xml version="1.0" encoding="UTF-8"?>
<svg id="Layer_1" data-name="Layer 1" xmlns="http://www.w3.org/2000/svg" viewBox="0 0 56.69 56.69">
  <defs>
    <style>
      .cls-1 {
        fill: #fff;
      }

      .cls-2 {
        fill: #778558;
      }

      .cls-3 {
        fill: #96a57f;
      }

      .cls-4 {
        fill: none;
        stroke: #b9c3a9;
        stroke-linecap: round;
        stroke-linejoin: round;
        stroke-width: 1.85px;
      }
    </style>
  </defs>
  <path class="cls-1" d="M30.07.44l1.04.56c15.97,8.7,25.73,25.61,25.28,43.79l-.03,1.18c-.03,1.23-.68,2.35-1.73,2.99l-1.01.61c-15.52,9.48-35.04,9.48-50.57,0l-1.01-.61c-1.05-.64-1.7-1.77-1.73-2.99l-.03-1.18C-.15,26.61,9.61,9.71,25.58,1l1.04-.56c1.08-.59,2.38-.59,3.46,0Z"/>
  <g>
    <g>
      <circle class="cls-3" cx="22.22" cy="14.58" r="2.32"/>
      <circle class="cls-3" cx="28.92" cy="40.02" r="3.43"/>
      <path class="cls-2" d="M42.09,34.8h0c.24.9-.3,1.83-1.2,2.06l-23.95,6.31c-.9.24-1.83-.3-2.06-1.2h0c-.38-1.43-.17-2.95.58-4.23l.11-.19c.69-1.18.92-2.56.65-3.89-.63-3.17-1.56-9.29-.25-12.64,1.9-4.87,4.14-5.88,6.26-6.44s4.57-.78,8.62,2.52c2.85,2.33,5.09,8.33,6.07,11.34.38,1.15,1.16,2.13,2.21,2.74l.39.23c1.28.74,2.21,1.97,2.58,3.4Z"/>
    </g>
    <path class="cls-4" d="M11.4,43.14s-.88,3.39,2.95,4.77"/>
    <path class="cls-4" d="M8.55,45.9s.22,2.44,2.75,3.61"/>
    <path class="cls-4" d="M45.18,39.01s2.91-1.95.95-5.53"/>
    <path class="cls-4" d="M49.14,38.82s1.45-1.97.33-4.53"/>
  </g>
</svg>