<?xml version="1.0" encoding="UTF-8"?>
<svg id="Layer_1" data-name="Layer 1" xmlns="http://www.w3.org/2000/svg" viewBox="0 0 56.69 56.69">
  <defs>
    <style>
      .cls-1 {
        fill: #fff;
      }

      .cls-2 {
        fill: #778558;
      }

      .cls-3 {
        fill: #96a57f;
      }

      .cls-4 {
        fill: #d6dbcd;
      }
    </style>
  </defs>
  <path class="cls-1" d="M30.07.44l1.04.56c15.97,8.7,25.73,25.61,25.28,43.79l-.03,1.18c-.03,1.23-.68,2.35-1.73,2.99l-1.01.61c-15.52,9.48-35.04,9.48-50.57,0l-1.01-.61c-1.05-.64-1.7-1.77-1.73-2.99l-.03-1.18C-.15,26.61,9.61,9.71,25.58,1l1.04-.56c1.08-.59,2.38-.59,3.46,0Z"/>
  <g id="Artwork_64x64" data-name="Artwork 64x64">
    <path class="cls-4" d="M45.24,19.49h-11.69c-2.87,0-5.2,2.33-5.2,5.2,0-2.87-2.33-5.2-5.2-5.2h-11.69c-.72,0-1.3.58-1.3,1.3v23.39c0,.72.58,1.3,1.3,1.3h11.69c1.66,0,3.21.8,4.2,2.13.46.55,1.28.63,1.83.17.06-.05.12-.11.17-.17.98-1.34,2.54-2.13,4.2-2.13h11.69c.72,0,1.3-.58,1.3-1.3v-23.39c0-.72-.58-1.3-1.3-1.3Z"/>
    <path class="cls-3" d="M23.8,38.85h-9.1c-.54,0-.97-.44-.97-.97s.44-.97.97-.97h9.1c.54,0,.97.44.97.97s-.44.97-.97.97Z"/>
    <path class="cls-3" d="M19.9,34.3h-5.2c-.54,0-.97-.44-.97-.97s.44-.97.97-.97h5.2c.54,0,.97.44.97.97s-.44.97-.97.97Z"/>
    <path class="cls-3" d="M41.99,29.58h-9.1c-.54,0-.97-.44-.97-.97s.44-.97.97-.97h9.1c.54,0,.97.44.97.97s-.44.97-.97.97Z"/>
    <path class="cls-3" d="M41.99,34.13h-9.1c-.54,0-.97-.44-.97-.97s.44-.97.97-.97h9.1c.54,0,.97.44.97.97s-.44.97-.97.97Z"/>
    <path class="cls-3" d="M41.99,38.67h-9.1c-.54,0-.97-.44-.97-.97s.44-.97.97-.97h9.1c.54,0,.97.44.97.97s-.44.97-.97.97Z"/>
    <polygon class="cls-2" points="15.35 19.49 15.35 28.58 17.95 25.99 20.55 28.58 20.55 19.49 15.35 19.49"/>
  </g>
</svg>