<?xml version="1.0" encoding="UTF-8"?>
<svg id="Layer_1" data-name="Layer 1" xmlns="http://www.w3.org/2000/svg" width="20mm" height="20mm" viewBox="0 0 56.69 56.69">
  <path d="M52.44,7.5H4.25c-2.33,0-4.25,1.92-4.25,4.26v33.19c0,2.33,1.92,4.25,4.25,4.25h48.19c2.34,0,4.25-1.92,4.25-4.25V11.76c0-2.34-1.91-4.26-4.25-4.26ZM49.27,11.07l-18.85,16.82c-.57.51-1.3.79-2.07.79s-1.5-.28-2.07-.79L7.43,11.07h41.84ZM52.95,43.89c0,.96-.78,1.75-1.74,1.75H5.49c-.96,0-1.74-.79-1.74-1.75V14.14l19.36,17.28c1.44,1.3,3.3,2.01,5.24,2.01s3.79-.71,5.24-2l19.36-17.29v29.75Z"/>
</svg>