<?xml version="1.0" encoding="UTF-8"?>
<svg id="Layer_1" data-name="Layer 1" xmlns="http://www.w3.org/2000/svg" viewBox="0 0 59.53 59.53">
  <defs>
    <style>
      .cls-1 {
        fill: #f4dac4;
      }

      .cls-2 {
        fill: #cc8544;
      }

      .cls-3 {
        fill: #fff;
        stroke: #cc8544;
        stroke-miterlimit: 10;
        stroke-width: 2.67px;
      }
    </style>
  </defs>
  <g id="Circle">
    <circle class="cls-3" cx="29.76" cy="29.76" r="28.35"/>
  </g>
  <g>
    <g>
      <path class="cls-2" d="M46.36,35.65l-13.03-22.56c-.75-1.29-2.07-2.06-3.57-2.06s-2.82.77-3.56,2.06l-13.03,22.56c-.75,1.29-.75,2.83,0,4.11.74,1.29,2.07,2.06,3.56,2.06h26.05c1.49,0,2.82-.77,3.57-2.06.74-1.29.74-2.83,0-4.11ZM44.33,38.59c-.32.56-.9.89-1.54.89h-26.05c-.64,0-1.22-.33-1.54-.89-.32-.56-.32-1.23,0-1.79l13.03-22.56c.32-.55.9-.89,1.54-.89s1.23.34,1.55.89l13.02,22.56c.32.56.32,1.23,0,1.79Z"/>
      <path class="cls-1" d="M44.33,36.81l-13.02-22.56c-.32-.55-.9-.89-1.55-.89s-1.22.34-1.54.89l-13.03,22.56c-.32.56-.32,1.23,0,1.79.32.56.9.89,1.54.89h26.05c.65,0,1.23-.33,1.54-.89.32-.56.32-1.23,0-1.79ZM29.75,36.8c-1.17,0-2.12-.94-2.12-2.11s.94-2.12,2.12-2.12,2.11.94,2.11,2.12-.94,2.11-2.11,2.11ZM32.18,21.69l-.51,8.54c-.02.28-.25.5-.53.5h-2.75c-.28,0-.51-.22-.53-.5l-.53-8.54c-.02-.29.21-.54.5-.55.01,0,.02,0,.03,0h3.79c.29,0,.53.24.53.53v.03Z"/>
    </g>
    <g>
      <path class="cls-2" d="M31.86,34.69c0,1.17-.94,2.11-2.11,2.11s-2.12-.94-2.12-2.11.94-2.12,2.12-2.12,2.11.94,2.11,2.12Z"/>
      <path class="cls-2" d="M32.18,21.66v.03l-.51,8.54c-.02.28-.25.5-.53.5h-2.75c-.28,0-.51-.22-.53-.5l-.53-8.54c-.02-.29.21-.54.5-.55.01,0,.02,0,.03,0h3.79c.29,0,.53.24.53.53Z"/>
    </g>
  </g>
</svg>