<?xml version="1.0" encoding="UTF-8"?>
<svg id="Layer_1" data-name="Layer 1" xmlns="http://www.w3.org/2000/svg" viewBox="0 0 56.69 56.69">
  <defs>
    <style>
      .cls-1 {
        fill: none;
        stroke: #eaaab6;
        stroke-linecap: round;
        stroke-miterlimit: 10;
        stroke-width: 1.62px;
      }

      .cls-2 {
        fill: #fff;
      }

      .cls-3 {
        fill: #c65e70;
      }
    </style>
  </defs>
  <circle class="cls-2" cx="28.35" cy="28.35" r="28.35"/>
  <g>
    <path class="cls-3" d="M47.56,26.25H9.24c-.51,0-.9-.47-.77-.96.43-1.71,1.98-2.97,3.82-2.97.41,0,.82.07,1.19.18.81-2.53,3.19-4.37,6-4.37.47,0,.91.05,1.35.15,1.77-3.07,5.07-5.14,8.86-5.14,3.4,0,6.42,1.68,8.28,4.24.62-.19,1.27-.31,1.94-.31,3.47,0,6.29,2.81,6.29,6.29,0,.18,0,.36-.03.54.89,0,1.66.47,2.08,1.18.3.53-.09,1.18-.69,1.18Z"/>
    <g>
      <line class="cls-1" x1="12.62" y1="29.98" x2="11.95" y2="31.81"/>
      <line class="cls-1" x1="20.29" y1="29.98" x2="19.62" y2="31.81"/>
      <line class="cls-1" x1="27.95" y1="29.98" x2="27.29" y2="31.81"/>
      <line class="cls-1" x1="35.62" y1="29.98" x2="34.95" y2="31.81"/>
      <line class="cls-1" x1="43.29" y1="29.98" x2="42.62" y2="31.81"/>
      <line class="cls-1" x1="12.62" y1="41.23" x2="11.95" y2="43.06"/>
      <line class="cls-1" x1="20.29" y1="41.23" x2="19.62" y2="43.06"/>
      <line class="cls-1" x1="27.95" y1="41.23" x2="27.29" y2="43.06"/>
      <line class="cls-1" x1="35.62" y1="41.23" x2="34.95" y2="43.06"/>
      <line class="cls-1" x1="43.29" y1="41.23" x2="42.62" y2="43.06"/>
      <line class="cls-1" x1="16.43" y1="35.6" x2="15.77" y2="37.44"/>
      <line class="cls-1" x1="24.1" y1="35.6" x2="23.43" y2="37.44"/>
      <line class="cls-1" x1="31.77" y1="35.6" x2="31.1" y2="37.44"/>
      <line class="cls-1" x1="39.43" y1="35.6" x2="38.77" y2="37.44"/>
    </g>
  </g>
</svg>