<?xml version="1.0" encoding="UTF-8"?>
<svg id="Layer_1" data-name="Layer 1" xmlns="http://www.w3.org/2000/svg" viewBox="0 0 56.69 56.69">
  <defs>
    <style>
      .cls-1 {
        fill: #f4dac4;
      }

      .cls-2 {
        fill: #fff;
      }

      .cls-3 {
        fill: #cc8544;
      }

      .cls-4 {
        fill: #e2a26a;
      }
    </style>
  </defs>
  <path class="cls-2" d="M51.65,12.93L30.04.45c-1.05-.61-2.34-.61-3.39,0L5.04,12.93c-1.05.61-1.69,1.72-1.69,2.94v24.96c0,1.21.65,2.33,1.69,2.94l21.61,12.48c1.05.61,2.34.61,3.39,0l21.61-12.48c1.05-.61,1.69-1.72,1.69-2.94V15.87c0-1.21-.65-2.33-1.69-2.94Z"/>
  <g>
    <path class="cls-3" d="M40.35,25.56h-14.43c-.34,0-.62-.28-.62-.62l1.71-.74c2.5.6,2.64-.85,2.98-.85h10.36c.34,0,.62.28.62.62v.98c0,.34-.28.62-.62.62Z"/>
    <path class="cls-4" d="M39.93,29.3h5.44c.34,0,.62.28.62.62v12.98h-6.05v-13.6h0Z"/>
    <path class="cls-4" d="M26.34,42.9h-6.05v-10.8c0-.67-.11-1.59,2.41-1.59l3.64-1.2v13.6Z"/>
    <rect class="cls-1" x="26.34" y="25.56" width="13.6" height="17.34"/>
    <rect class="cls-3" x="32.17" y="27.59" width="2.06" height="5.41"/>
    <rect class="cls-3" x="32.17" y="27.59" width="2.06" height="5.41" transform="translate(63.49 -2.9) rotate(90)"/>
    <path class="cls-4" d="M30.78,38.08h4.87c.34,0,.62.28.62.62v4.21h-6.11v-4.21c0-.34.28-.62.62-.62Z"/>
    <rect class="cls-3" x="19.25" y="42.9" width="27.78" height="1.34" rx=".67" ry=".67"/>
    <g>
      <g>
        <rect class="cls-1" x="41.09" y="30.91" width="1.49" height="1.49" rx=".14" ry=".14"/>
        <rect class="cls-1" x="43.34" y="30.91" width="1.49" height="1.49" rx=".14" ry=".14"/>
        <rect class="cls-1" x="41.09" y="33.26" width="1.49" height="1.49" rx=".14" ry=".14"/>
        <rect class="cls-1" x="43.34" y="33.26" width="1.49" height="1.49" rx=".14" ry=".14"/>
        <rect class="cls-1" x="41.09" y="35.61" width="1.49" height="1.49" rx=".14" ry=".14"/>
        <rect class="cls-1" x="43.34" y="35.61" width="1.49" height="1.49" rx=".14" ry=".14"/>
        <rect class="cls-1" x="41.09" y="37.97" width="1.49" height="1.49" rx=".14" ry=".14"/>
        <rect class="cls-1" x="43.34" y="37.97" width="1.49" height="1.49" rx=".14" ry=".14"/>
        <rect class="cls-1" x="41.09" y="40.32" width="1.49" height="1.49" rx=".14" ry=".14"/>
        <rect class="cls-1" x="43.34" y="40.32" width="1.49" height="1.49" rx=".14" ry=".14"/>
      </g>
      <g>
        <rect class="cls-1" x="19.83" y="30.16" width="1.49" height="1.49" rx=".14" ry=".14" transform="translate(5.14 -2.86) rotate(9.08)"/>
        <rect class="cls-1" x="22.78" y="30.8" width="1.49" height="1.49" rx=".14" ry=".14" transform="translate(5.27 -3.32) rotate(9.08)"/>
        <rect class="cls-1" x="20.86" y="33.09" width="1.49" height="1.49" rx=".14" ry=".14" transform="translate(5.61 -2.99) rotate(9.08)"/>
        <rect class="cls-1" x="23.31" y="33" width="1.49" height="1.49" rx=".14" ry=".14"/>
        <rect class="cls-1" x="19.75" y="35.65" width="1.49" height="1.49" rx=".14" ry=".14" transform="translate(-10.81 8.74) rotate(-19.16)"/>
        <rect class="cls-1" x="23.11" y="35.43" width="1.49" height="1.49" rx=".14" ry=".14" transform="translate(14.87 -6.21) rotate(21.43)"/>
        <rect class="cls-1" x="21.44" y="37.97" width="1.49" height="1.49" rx=".14" ry=".14"/>
        <rect class="cls-1" x="23.7" y="37.97" width="1.49" height="1.49" rx=".14" ry=".14"/>
        <rect class="cls-1" x="21.44" y="40.32" width="1.49" height="1.49" rx=".14" ry=".14"/>
        <rect class="cls-1" x="23.7" y="40.32" width="1.49" height="1.49" rx=".14" ry=".14"/>
      </g>
    </g>
  </g>
  <path class="cls-4" d="M8.97,18.38c-.81,1.1-.67,3.63.57,5.66s3.83,2.62,2.74,4.56-2.91,4.9-1.58,7.59c1.22,2.46,2.98,3.11,3.47,4.6.48,1.5-1.93,2-1.33,2,.79,0,3.02-.51,2.4-2.63-.52-1.78-1.82-2.58-1.66-5.44.15-2.77,4.73-3.52,5.21-6.73.34-2.27-1.52-2.84-1.24-5.34.27-2.43,3.14-2.1,3.01-3.91s-9.6-3.09-11.59-.35Z"/>
  <path class="cls-3" d="M36.13,20.11H6.34c-.4,0-.7-.37-.6-.75.34-1.33,1.54-2.31,2.97-2.31.32,0,.64.05.92.14.63-1.97,2.48-3.4,4.66-3.4.36,0,.71.04,1.05.12,1.37-2.39,3.94-4,6.89-4,2.65,0,4.99,1.31,6.43,3.3.48-.15.98-.24,1.51-.24,2.7,0,4.89,2.19,4.89,4.89,0,.14,0,.28-.02.42.69,0,1.29.36,1.61.92.23.41-.07.92-.53.92Z"/>
  <path class="cls-3" d="M45.45,16.82h-20.19c-.27,0-.47-.25-.41-.51.23-.9,1.04-1.57,2.01-1.57.22,0,.43.04.63.1.43-1.33,1.68-2.3,3.16-2.3.25,0,.48.03.71.08.93-1.62,2.67-2.71,4.67-2.71,1.79,0,3.38.88,4.36,2.23.32-.1.67-.16,1.02-.16,1.83,0,3.31,1.48,3.31,3.31,0,.1,0,.19-.01.28.47,0,.88.25,1.09.62.16.28-.05.62-.36.62Z"/>
  <circle class="cls-4" cx="8.43" cy="27.74" r=".49"/>
  <circle class="cls-4" cx="16.36" cy="34.99" r=".49"/>
  <circle class="cls-3" cx="21.44" cy="23.53" r=".49"/>
  <path class="cls-3" d="M26.01,21.86c0,.33-.72,1.18-1.05,1.18s-.95.07-.95-.26.84-1.33,1.16-1.33.83.08.83.41Z"/>
  <circle class="cls-3" cx="20.28" cy="21.73" r=".49"/>
  <path class="cls-4" d="M21.08,26.31s-1.52.42-1.32.74,1.46.82,1.9.79,1.99-.72,1.61-.83c-.3-.08-1.83-.79-2.19-.7Z"/>
  <path class="cls-4" d="M8.49,29.91s-.44.73-.16.8,1.25-.33,1.48-.57.48-.99.26-.98-1.43.51-1.58.75Z"/>
</svg>