<?xml version="1.0" encoding="UTF-8"?>
<svg id="Layer_1" data-name="Layer 1" xmlns="http://www.w3.org/2000/svg" viewBox="0 0 56.69 56.69">
  <defs>
    <style>
      .cls-1 {
        fill: #fbf3ec;
      }

      .cls-2 {
        fill: #fff;
      }

      .cls-3 {
        fill: #cc8544;
      }

      .cls-4 {
        fill: #f4bf96;
      }
    </style>
  </defs>
  <path class="cls-2" d="M51.65,12.93L30.04.45c-1.05-.61-2.34-.61-3.39,0L5.04,12.93c-1.05.61-1.69,1.72-1.69,2.94v24.96c0,1.21.65,2.33,1.69,2.94l21.61,12.48c1.05.61,2.34.61,3.39,0l21.61-12.48c1.05-.61,1.69-1.72,1.69-2.94V15.87c0-1.21-.65-2.33-1.69-2.94Z"/>
  <g id="Artwork_64x64" data-name="Artwork 64x64">
    <rect class="cls-3" x="12.69" y="18.38" width="31.32" height="17.9" rx="1.12" ry="1.12"/>
    <circle class="cls-1" cx="28.27" cy="27.33" r="5.59"/>
    <path class="cls-3" d="M28.67,24.05c.54,0,1.07.12,1.56.33l-.37.92c-.34-.15-.71-.24-1.08-.26-.18-.01-.35.05-.48.18-.12.14-.18.32-.17.51v.77h1.5v.87h-1.5v.56c.02.42-.22.81-.6.99h2.86v1.03h-4.18v-.95c.22-.08.41-.22.56-.4.11-.19.17-.41.16-.63v-.56h-.71v-.92h.72v-.78c-.03-.46.13-.91.45-1.24.36-.31.82-.47,1.29-.44Z"/>
    <path class="cls-4" d="M18.28,29.57c-3.09,0-5.59,2.5-5.59,5.59s2.5,5.59,5.59,5.59,5.59-2.5,5.59-5.59-2.5-5.59-5.59-5.59Z"/>
    <path class="cls-1" d="M18.28,39.91c-2.63,0-4.75-2.13-4.75-4.75s2.13-4.75,4.75-4.75,4.75,2.13,4.75,4.75c0,2.62-2.13,4.75-4.75,4.75ZM18.28,30.96c-2.32,0-4.19,1.88-4.19,4.19s1.88,4.19,4.19,4.19,4.19-1.88,4.19-4.19-1.88-4.19-4.19-4.19h0Z"/>
    <path class="cls-1" d="M18.53,32.4c.45,0,.9.1,1.31.27l-.31.78c-.29-.13-.6-.2-.92-.22-.15,0-.3.05-.4.15-.1.12-.15.27-.14.43v.65h1.26v.73h-1.26v.48c.02.36-.18.69-.51.84h2.4v.88h-3.52v-.84c.19-.07.35-.19.48-.34.09-.16.14-.34.13-.53v-.49h-.58v-.73h.6v-.66c-.02-.39.12-.76.39-1.04.3-.26.69-.39,1.08-.36Z"/>
    <polygon class="cls-4" points="40.09 20.62 37.29 20.62 37.29 22.3 40.09 22.3 40.09 25.09 41.77 25.09 41.77 22.3 41.77 20.62 40.09 20.62"/>
    <polygon class="cls-4" points="19.4 20.62 16.6 20.62 14.92 20.62 14.92 22.3 14.92 25.09 16.6 25.09 16.6 22.3 19.4 22.3 19.4 20.62"/>
    <polygon class="cls-4" points="40.09 29.57 40.09 32.36 37.29 32.36 37.29 34.04 40.09 34.04 41.77 34.04 41.77 32.36 41.77 29.57 40.09 29.57"/>
  </g>
</svg>