<?xml version="1.0" encoding="UTF-8"?>
<svg id="Layer_1" data-name="Layer 1" xmlns="http://www.w3.org/2000/svg" viewBox="0 0 56.69 56.69">
  <defs>
    <style>
      .cls-1 {
        fill: #8295a8;
      }

      .cls-2 {
        fill: #fff;
      }

      .cls-3 {
        fill: none;
        stroke: #092d4c;
        stroke-linecap: round;
        stroke-linejoin: round;
        stroke-width: 1.48px;
      }
    </style>
  </defs>
  <rect class="cls-2" width="56.69" height="56.69" rx="3.5" ry="3.5"/>
  <g>
    <line class="cls-3" x1="11.21" y1="43.83" x2="45.48" y2="43.83"/>
    <g>
      <path class="cls-1" d="M28.37,41.34s3.99-.13,3.99-3.29v-6.88l-3.99,1.68v8.49Z"/>
      <path class="cls-1" d="M28.37,29.16s4.09-.57,4.16-3.35,0-3.52,0-3.52l-4.16,1.78v5.1Z"/>
      <path class="cls-1" d="M28.37,20.14s5.46.89,5.46-4.96c0-1.36-5.74-.41-5.46,4.96Z"/>
      <path class="cls-1" d="M28.35,41.34s-3.99-.13-3.99-3.29,0-6.88,0-6.88l3.99,1.68v8.49Z"/>
      <path class="cls-1" d="M28.35,29.16s-4.09-.57-4.16-3.35,0-3.52,0-3.52l4.16,1.78v5.1Z"/>
      <path class="cls-1" d="M28.35,20.14s-5.46.89-5.46-4.96c0-1.36,5.74-.41,5.46,4.96Z"/>
      <line class="cls-3" x1="28.37" y1="15.19" x2="28.37" y2="43.83"/>
    </g>
    <g>
      <path class="cls-1" d="M15.12,41.34s3.99-.13,3.99-3.29v-6.88l-3.99,1.68v8.49Z"/>
      <path class="cls-1" d="M15.12,29.16s4.09-.57,4.16-3.35c.07-2.78,0-3.52,0-3.52l-4.16,1.78v5.1Z"/>
      <path class="cls-1" d="M15.12,20.14s5.46.89,5.46-4.96c0-1.36-5.74-.41-5.46,4.96Z"/>
      <path class="cls-1" d="M15.1,41.34s-3.99-.13-3.99-3.29c0-3.15,0-6.88,0-6.88l3.99,1.68v8.49Z"/>
      <path class="cls-1" d="M15.1,29.16s-4.09-.57-4.16-3.35,0-3.52,0-3.52l4.16,1.78v5.1Z"/>
      <path class="cls-1" d="M15.1,20.14s-5.46.89-5.46-4.96c0-1.36,5.74-.41,5.46,4.96Z"/>
      <line class="cls-3" x1="15.12" y1="15.19" x2="15.12" y2="43.83"/>
    </g>
    <g>
      <path class="cls-1" d="M41.61,41.34s3.99-.13,3.99-3.29v-6.88l-3.99,1.68v8.49Z"/>
      <path class="cls-1" d="M41.61,29.16s4.09-.57,4.16-3.35c.07-2.78,0-3.52,0-3.52l-4.16,1.78v5.1Z"/>
      <path class="cls-1" d="M41.61,20.14s5.46.89,5.46-4.96c0-1.36-5.74-.41-5.46,4.96Z"/>
      <path class="cls-1" d="M41.59,41.34s-3.99-.13-3.99-3.29,0-6.88,0-6.88l3.99,1.68v8.49Z"/>
      <path class="cls-1" d="M41.59,29.16s-4.09-.57-4.16-3.35,0-3.52,0-3.52l4.16,1.78v5.1Z"/>
      <path class="cls-1" d="M41.59,20.14s-5.46.89-5.46-4.96c0-1.36,5.74-.41,5.46,4.96Z"/>
      <line class="cls-3" x1="41.61" y1="15.19" x2="41.61" y2="43.83"/>
    </g>
  </g>
</svg>