<?xml version="1.0" encoding="UTF-8"?>
<svg id="Layer_1" data-name="Layer 1" xmlns="http://www.w3.org/2000/svg" viewBox="0 0 56.69 56.69">
  <defs>
    <style>
      .cls-1 {
        stroke: #8bb4c9;
        stroke-width: 1.48px;
      }

      .cls-1, .cls-2 {
        fill: none;
        stroke-linecap: round;
        stroke-miterlimit: 10;
      }

      .cls-3 {
        fill: #fff;
      }

      .cls-4 {
        fill: #8bb4c9;
      }

      .cls-5 {
        fill: #296991;
      }

      .cls-2 {
        stroke: #bbd2df;
        stroke-width: 1.68px;
      }
    </style>
  </defs>
  <rect class="cls-3" x="0" width="56.69" height="56.69" rx="3.5" ry="3.5"/>
  <g>
    <g>
      <circle class="cls-1" cx="36.27" cy="23.13" r="4.58"/>
      <circle class="cls-1" cx="44.57" cy="13.6" r="3.25"/>
      <circle class="cls-1" cx="46.55" cy="31.36" r="3.28"/>
      <circle class="cls-1" cx="19.43" cy="16.57" r="2.04"/>
      <circle class="cls-1" cx="34.29" cy="40.46" r="2.17"/>
      <circle class="cls-1" cx="19.43" cy="45.29" r="2.1"/>
      <line class="cls-1" x1="19.43" y1="18.61" x2="19.43" y2="24.99"/>
      <line class="cls-1" x1="19.43" y1="43.19" x2="19.43" y2="37.74"/>
      <line class="cls-1" x1="32.41" y1="39.4" x2="28.29" y2="37.18"/>
      <line class="cls-1" x1="32.41" y1="25.59" x2="28.72" y2="27.71"/>
      <line class="cls-1" x1="39.17" y1="19.58" x2="42.48" y2="16.09"/>
      <line class="cls-1" x1="43.93" y1="29.4" x2="39.91" y2="25.91"/>
    </g>
    <g>
      <rect class="cls-4" x="5.57" y="31.82" width="27.55" height="3.56" rx="1.78" ry="1.78"/>
      <path class="cls-5" d="M12.54,40.74c1.06,0,11.95.05,12.91,0,.97-.05,5.07-.68,5.11-5.36H7.34s-.09,5.34,5.19,5.36Z"/>
      <path class="cls-5" d="M30.74,31.82s-.4-7.47-11.31-7.47c-11.48,0-12.09,7.47-12.09,7.47h23.4Z"/>
      <path class="cls-2" d="M12.54,28.66c-.37.33-.49.57-.53.9"/>
      <path class="cls-2" d="M16.17,26.25c-.29.25-.37.69-.37.79"/>
      <path class="cls-2" d="M18.86,29.43c.02.41.16.59.57.75"/>
      <path class="cls-2" d="M22.51,26.4c.16.08.2.29.18.92"/>
      <path class="cls-2" d="M26.13,28.79c.37.23.62.63.62.63"/>
    </g>
  </g>
</svg>