<?xml version="1.0" encoding="UTF-8"?>
<svg id="Layer_1" data-name="Layer 1" xmlns="http://www.w3.org/2000/svg" width="80mm" height="80mm" viewBox="0 0 226.77 226.77">
  <defs>
    <style>
      .cls-1, .cls-2, .cls-3, .cls-4 {
        fill: none;
      }

      .cls-5 {
        fill: #ebabb7;
      }

      .cls-6 {
        fill: #c75e70;
      }

      .cls-7, .cls-8 {
        fill: #f4dac4;
      }

      .cls-9 {
        stroke: #778558;
      }

      .cls-9, .cls-10, .cls-11, .cls-8, .cls-12, .cls-13, .cls-14, .cls-15, .cls-16 {
        stroke-width: 3px;
      }

      .cls-9, .cls-10, .cls-11, .cls-2, .cls-13, .cls-15, .cls-4 {
        stroke-miterlimit: 10;
      }

      .cls-9, .cls-10, .cls-11, .cls-13, .cls-15 {
        fill: #fff;
      }

      .cls-17 {
        fill: #d7dbce;
      }

      .cls-18 {
        fill: #8bb4c9;
      }

      .cls-19 {
        fill: #778558;
      }

      .cls-20 {
        fill: #092d4c;
      }

      .cls-10, .cls-12 {
        stroke: #296991;
      }

      .cls-11 {
        stroke: #092d4c;
      }

      .cls-8, .cls-2, .cls-3, .cls-12, .cls-14, .cls-16 {
        stroke-linecap: round;
      }

      .cls-8, .cls-3, .cls-12, .cls-14, .cls-16 {
        stroke-linejoin: round;
      }

      .cls-8, .cls-13 {
        stroke: #cc8544;
      }

      .cls-2, .cls-4 {
        stroke: #b9c3a9;
        stroke-width: 1.27px;
      }

      .cls-3 {
        stroke: #7a855c;
        stroke-dasharray: 6.03 8.03;
        stroke-width: 2.8px;
      }

      .cls-12 {
        fill: #bbd2df;
      }

      .cls-21 {
        fill: #cc8544;
      }

      .cls-22 {
        fill: #296991;
      }

      .cls-14 {
        fill: #b8c0ca;
        stroke: #0a2e4d;
      }

      .cls-15, .cls-16 {
        stroke: #c75e70;
      }

      .cls-16 {
        fill: #f5cdd5;
      }
    </style>
  </defs>
  <rect class="cls-16" x="7.79" y="8.26" width="212.47" height="30.25" rx="5.05" ry="5.05"/>
  <rect class="cls-8" x="7.79" y="53.04" width="212.47" height="30.25" rx="5.05" ry="5.05"/>
  <g>
    <rect class="cls-17" x="21.03" y="97.81" width="184.71" height="30.25" rx="4.71" ry="4.71"/>
    <rect class="cls-3" x="21.03" y="97.81" width="184.71" height="30.25" rx="4.71" ry="4.71"/>
  </g>
  <rect class="cls-14" x="7.79" y="142.59" width="212.47" height="30.25" rx="5.05" ry="5.05"/>
  <rect class="cls-12" x="7.79" y="187.37" width="212.47" height="30.25" rx="5.05" ry="5.05"/>
  <g>
    <g id="Circle">
      <circle class="cls-13" cx="113.39" cy="68.16" r="17.97"/>
    </g>
    <g>
      <g>
        <path class="cls-21" d="M123.91,71.89l-8.26-14.31c-.47-.82-1.32-1.3-2.26-1.3s-1.79.49-2.26,1.3l-8.26,14.31c-.47.82-.47,1.79,0,2.61.47.82,1.32,1.3,2.26,1.3h16.52c.94,0,1.79-.49,2.26-1.3.47-.82.47-1.8,0-2.61ZM122.62,73.76c-.2.36-.57.56-.98.56h-16.52c-.41,0-.77-.21-.98-.56-.21-.36-.21-.78,0-1.13l8.26-14.31c.21-.35.57-.56.98-.56s.78.21.98.56l8.26,14.31c.21.36.21.78,0,1.13Z"/>
        <path class="cls-7" d="M122.62,72.63l-8.26-14.31c-.21-.35-.57-.56-.98-.56s-.77.21-.98.56l-8.26,14.31c-.21.36-.21.78,0,1.13.21.36.57.56.98.56h16.52c.41,0,.78-.21.98-.56.21-.36.21-.78,0-1.13ZM113.37,72.62c-.74,0-1.34-.6-1.34-1.34s.6-1.34,1.34-1.34,1.34.6,1.34,1.34-.6,1.34-1.34,1.34ZM114.92,63.04l-.32,5.41c-.01.18-.16.32-.33.32h-1.74c-.18,0-.32-.14-.33-.32l-.34-5.41c-.01-.18.13-.34.32-.35,0,0,.01,0,.02,0h2.4c.18,0,.33.15.33.34v.02Z"/>
      </g>
      <g>
        <path class="cls-21" d="M114.71,71.28c0,.74-.6,1.34-1.34,1.34s-1.34-.6-1.34-1.34.6-1.34,1.34-1.34,1.34.6,1.34,1.34Z"/>
        <path class="cls-21" d="M114.92,63.02v.02l-.32,5.41c-.01.18-.16.32-.33.32h-1.74c-.18,0-.32-.14-.33-.32l-.34-5.41c-.01-.18.13-.34.32-.35,0,0,.01,0,.02,0h2.4c.18,0,.33.15.33.34Z"/>
      </g>
    </g>
  </g>
  <g>
    <g id="Circle-2" data-name="Circle">
      <circle class="cls-9" cx="113.39" cy="113.39" r="17.97"/>
    </g>
    <g>
      <line class="cls-2" x1="108.5" y1="113.53" x2="117.95" y2="113.53"/>
      <rect class="cls-19" x="116.76" y="108.86" width="9.34" height="9.34" rx=".78" ry=".78"/>
      <path class="cls-4" d="M110.71,118.01c-.11.2-.32.32-.55.32h-9.34c-.23,0-.44-.12-.55-.32-.12-.2-.12-.44,0-.64l4.67-8.08c.12-.2.32-.32.55-.32s.44.12.55.32l4.67,8.08c.11.2.11.44,0,.64Z"/>
      <polyline class="cls-2" points="112.71 111.54 114.72 113.54 112.72 115.54"/>
    </g>
  </g>
  <g>
    <g id="Circle-3" data-name="Circle">
      <circle class="cls-15" cx="113.39" cy="23.28" r="17.97"/>
    </g>
    <g id="Artwork_64x64" data-name="Artwork 64x64">
      <circle class="cls-5" cx="113.39" cy="23.28" r="11.44"/>
      <path class="cls-6" d="M107.88,31.36c.12-.2.15-.45.07-.68l-.99-2.97c-.08-.23-.05-.47.07-.68l.82-1.37c.13-.22.15-.49.06-.72l-2.13-5.34c-.1-.26-.33-.44-.6-.5l-2.27-.45c-2.25,5.08-.53,11.03,4.08,14.13l.02-.02.85-1.39Z"/>
      <path class="cls-6" d="M118.79,26.66l-1.41-.68c-.31-.15-.69-.09-.93.16l-2.13,2.13c-.3.3-.32.77-.05,1.1l1.77,2.13c.19.23.48.34.77.29l2.1-.36c.44-.08.73-.51.65-.96-.01-.06-.03-.11-.05-.16l-.51-1.23c-.07-.17-.08-.36-.03-.54l.25-.91c.12-.38-.06-.79-.42-.97Z"/>
      <path class="cls-1" d="M122.99,17.07l-.62,4.78c-.04.33-.28.6-.6.68l-5.6,1.51c-.13.03-.27.03-.41,0l-4.25-1.02c-.3-.08-.52-.32-.58-.62l-.69-3.27c-.07-.3.04-.62.28-.82l2.13-1.74c.13-.11.22-.25.27-.41l.74-2.45c.06-.19.18-.35.35-.46l1.89-1.18c-.82-.17-1.66-.24-2.5-.23-6.32,0-11.44,5.12-11.44,11.44,0,6.32,5.12,11.44,11.44,11.44,6.32,0,11.44-5.12,11.44-11.44,0-2.2-.64-4.36-1.83-6.21Z"/>
      <path class="cls-6" d="M113.63,13.75l-.74,2.45c-.04.16-.14.3-.27.41l-2.13,1.72c-.24.2-.35.51-.28.82l.69,3.27c.06.31.3.55.6.62l4.26,1.03c.13.03.27.03.41,0l5.58-1.51c.33-.09.57-.37.6-.71l.63-4.78c-1.63-2.53-4.2-4.31-7.14-4.96l-1.89,1.18c-.17.11-.29.27-.35.46Z"/>
    </g>
  </g>
  <g>
    <g id="Circle-4" data-name="Circle">
      <circle class="cls-11" cx="113.39" cy="157.72" r="17.97"/>
    </g>
    <g>
      <g id="Artwork_64x64-2" data-name="Artwork 64x64">
        <circle class="cls-20" cx="113.28" cy="148.58" r="3.28"/>
        <path class="cls-20" d="M116.76,152.82h-7.15c-1.31,0-1.05,1.82-1.05,3.09l-.61,13.29s1.96.86,5.4.93c3.05.06,5.29-.85,5.29-.85l-.18-13.64c.05-1.37-.17-2.82-1.69-2.82Z"/>
      </g>
      <path class="cls-20" d="M103.08,164.9l4.67-10.78c1.19-2.56,4.98-.92,3.92,1.7-.02.05-.05.1-.07.14l-5.46,10.4c-1.03,1.9-3.89.52-3.07-1.47h0Z"/>
      <path class="cls-20" d="M120.57,166.37l-5.46-10.4c-1.28-2.63,2.61-4.49,3.85-1.84,0,0,4.67,10.78,4.67,10.78.83,1.99-2.04,3.36-3.07,1.47h0Z"/>
    </g>
  </g>
  <g>
    <g id="Circle-5" data-name="Circle">
      <circle class="cls-10" cx="113.39" cy="202.49" r="17.97"/>
    </g>
    <g id="Artwork_64x64-3" data-name="Artwork 64x64">
      <path class="cls-22" d="M123.42,196.07c-2.19-2.53-6.01-2.8-8.54-.61-.14.12-.27.25-.4.38l-.98.97c-.07.07-.17.07-.24,0,0,0,0,0,0,0l-1.11-1.11c-2.33-2.33-6.12-2.33-8.45,0h0c-2.33,2.33-2.33,6.11,0,8.45,0,0,0,0,0,0l8.5,8.52c.65.65,1.7.65,2.35,0l8.51-8.5c2.2-2.2,2.35-5.71.34-8.09Z"/>
      <path class="cls-18" d="M112.38,208.83c-.24,0-.46-.14-.56-.36l-2.39-5.39-1.16,1.99c-.11.19-.31.3-.53.3h-3.96c-.34,0-.61-.27-.61-.61s.27-.61.61-.61h3.61l1.58-2.72c.12-.2.33-.31.56-.31.23.02.43.15.53.36l2.28,5.13,2.86-7.59c.08-.24.31-.4.56-.41.25,0,.48.14.58.38l2.19,5.17h4.3c.34,0,.61.27.61.61s-.27.61-.61.61h-4.71c-.25,0-.47-.15-.56-.37l-1.74-4.12-2.86,7.55c-.08.24-.3.4-.56.41h-.02Z"/>
    </g>
  </g>
</svg>