<?xml version="1.0" encoding="UTF-8"?>
<svg id="Layer_1" data-name="Layer 1" xmlns="http://www.w3.org/2000/svg" width="20mm" height="20mm" xmlns:xlink="http://www.w3.org/1999/xlink" viewBox="0 0 56.69 56.69">
  <defs>
    <style>
      .cls-1 {
        fill: none;
      }

      .cls-2 {
        fill: #fff;
      }

      .cls-3 {
        clip-path: url(#clippath);
      }
    </style>
    <clipPath id="clippath">
      <rect class="cls-1" x="0" width="56.69" height="55.54"/>
    </clipPath>
  </defs>
  <g class="cls-3">
    <path class="cls-2" d="M23.97,40.14c-7.31-.89-12.46-6.15-12.46-12.96,0-2.77,1-5.76,2.66-7.75-.72-1.83-.61-5.7.22-7.31,2.21-.28,5.2.89,6.98,2.49,2.1-.66,4.32-1,7.03-1s4.93.33,6.92.94c1.72-1.55,4.76-2.71,6.98-2.44.78,1.49.89,5.37.17,7.25,1.77,2.1,2.71,4.93,2.71,7.81,0,6.81-5.15,11.96-12.57,12.9,1.88,1.22,3.16,3.88,3.16,6.92v5.76c0,1.66,1.38,2.6,3.05,1.94,10.02-3.82,17.88-13.84,17.88-26.24C56.69,12.79,43.96,0,28.29,0S0,12.79,0,28.46c0,12.29,7.81,22.48,18.33,26.3,1.49.55,2.93-.44,2.93-1.94v-4.43c-.78.33-1.77.55-2.66.55-3.65,0-5.81-1.99-7.36-5.7-.61-1.49-1.27-2.38-2.55-2.55-.66-.06-.89-.33-.89-.66,0-.66,1.11-1.16,2.21-1.16,1.61,0,2.99,1,4.43,3.05,1.11,1.61,2.27,2.33,3.65,2.33s2.27-.5,3.54-1.77c.94-.94,1.66-1.77,2.33-2.33Z"/>
  </g>
</svg>