<?xml version="1.0" encoding="UTF-8"?>
<svg id="Layer_1" data-name="Layer 1" xmlns="http://www.w3.org/2000/svg" viewBox="0 0 56.69 56.69">
  <defs>
    <style>
      .cls-1 {
        fill: #fff;
      }

      .cls-2 {
        fill: #cc8544;
      }

      .cls-3 {
        fill: none;
        stroke: #f4bf96;
        stroke-linecap: round;
        stroke-miterlimit: 10;
        stroke-width: 1.39px;
      }
    </style>
  </defs>
  <path class="cls-1" d="M51.65,12.93L30.04.45c-1.05-.61-2.34-.61-3.39,0L5.04,12.93c-1.05.61-1.69,1.72-1.69,2.94v24.96c0,1.21.65,2.33,1.69,2.94l21.61,12.48c1.05.61,2.34.61,3.39,0l21.61-12.48c1.05-.61,1.69-1.72,1.69-2.94V15.87c0-1.21-.65-2.33-1.69-2.94Z"/>
  <g>
    <path class="cls-3" d="M13.61,43.15v-12.07c0-2.28,2.96-2.13,2.96,0h0"/>
    <g>
      <g id="Artwork_64x64" data-name="Artwork 64x64">
        <circle class="cls-2" cx="24.06" cy="14.75" r="2.91"/>
        <path class="cls-2" d="M24.6,18.21h-3.98c-1.16,0-2.12,1.61-2.12,2.74l.13,10.26v11.02c.03.99.85,1.76,1.84,1.73.91-.03,1.66-.74,1.73-1.65l.51-11.1.51,11.1c.07.98.93,1.72,1.92,1.65.91-.07,1.62-.81,1.65-1.73v-11.02l.5-10.5c.05-1.22-1.33-2.5-2.68-2.5Z"/>
      </g>
      <path class="cls-2" d="M14.31,28.16l4.52-8.97c1.1-2.1,4.26-.51,3.22,1.62,0,0-4.66,8.92-4.66,8.93-1.08,1.99-4.07.46-3.08-1.58h0Z"/>
      <path class="cls-2" d="M28.65,30.01l-4.71-8.48c-.48-.87-.17-1.97.7-2.45.88-.49,1.99-.16,2.47.73l4.58,8.55c1.04,2.01-1.91,3.62-3.04,1.66h0Z"/>
    </g>
    <path class="cls-2" d="M17.27,38.2l1.36-11.25h8.35l1.22,11.28c.03.7-.53,1.28-1.23,1.28h-8.47c-.71,0-1.27-.6-1.23-1.3Z"/>
  </g>
  <g>
    <g>
      <g id="Artwork_64x64-2" data-name="Artwork 64x64">
        <circle class="cls-2" cx="38.17" cy="22.54" r="2.57"/>
        <path class="cls-2" d="M35.6,25.74h4.28c.91,0,1.66,1.26,1.66,2.14l-.1,5.69v8.62c-.02.77-.67,1.38-1.44,1.36-.72-.02-1.3-.58-1.35-1.29l-.4-8.68-.4,8.68c-.06.77-.73,1.35-1.5,1.29-.71-.05-1.27-.64-1.29-1.35v-8.62s-.39-5.88-.39-5.88c-.04-.95-.12-1.95.93-1.95Z"/>
      </g>
      <path class="cls-2" d="M42.41,34.62l-3.79-6.69c-.38-.68-.15-1.54.53-1.92.68-.39,1.56-.14,1.93.55l3.7,6.75c.82,1.56-1.47,2.85-2.37,1.32h0Z"/>
      <path class="cls-2" d="M29.42,28.49l5.59-2.6c1.69-.75,2.86,1.75,1.19,2.56,0,0-5.65,2.5-5.66,2.51-1.62.69-2.71-1.7-1.12-2.47h0Z"/>
    </g>
    <path class="cls-2" d="M42.41,36.85l-.98-6.2-6.67-1.63-.95,7.81c-.02.54.42,1,.96,1l6.68.04c.55,0,.99-.47.96-1.02Z"/>
  </g>
</svg>