<?xml version="1.0" encoding="UTF-8"?>
<svg id="Layer_1" data-name="Layer 1" xmlns="http://www.w3.org/2000/svg" viewBox="0 0 56.69 56.69">
  <defs>
    <style>
      .cls-1 {
        fill: #fff;
      }

      .cls-2 {
        fill: #bbd2df;
      }

      .cls-3 {
        fill: #5190b0;
      }

      .cls-4 {
        fill: #296991;
      }
    </style>
  </defs>
  <rect class="cls-1" x="0" y="0" width="56.69" height="56.69" rx="3.5" ry="3.5"/>
  <g>
    <rect class="cls-4" x="14.36" y="15.46" width="23.11" height="3.26" rx=".91" ry=".91"/>
    <path class="cls-3" d="M35.94,24.24h8.02c.5,0,.91.41.91.91v19.15h-8.93v-20.06h0Z"/>
    <path class="cls-3" d="M7.87,24.24h8.02v20.06H6.96v-19.15c0-.5.41-.91.91-.91Z"/>
    <rect class="cls-2" x="15.89" y="18.72" width="20.06" height="25.59"/>
    <rect class="cls-4" x="24.49" y="21.71" width="3.04" height="7.98"/>
    <rect class="cls-4" x="24.49" y="21.71" width="3.04" height="7.98" transform="translate(51.71 -.3) rotate(90)"/>
    <path class="cls-3" d="M22.43,37.18h7.19c.5,0,.91.41.91.91v6.21h-9.01v-6.21c0-.5.41-.91.91-.91Z"/>
    <rect class="cls-4" x="5.43" y="44.3" width="40.99" height="1.97" rx=".99" ry=".99"/>
    <g>
      <g>
        <rect class="cls-2" x="37.65" y="26.61" width="2.2" height="2.2" rx=".21" ry=".21"/>
        <rect class="cls-2" x="40.98" y="26.61" width="2.2" height="2.2" rx=".21" ry=".21"/>
        <rect class="cls-2" x="37.65" y="30.08" width="2.2" height="2.2" rx=".21" ry=".21"/>
        <rect class="cls-2" x="40.98" y="30.08" width="2.2" height="2.2" rx=".21" ry=".21"/>
        <rect class="cls-2" x="37.65" y="33.55" width="2.2" height="2.2" rx=".21" ry=".21"/>
        <rect class="cls-2" x="40.98" y="33.55" width="2.2" height="2.2" rx=".21" ry=".21"/>
        <rect class="cls-2" x="37.65" y="37.02" width="2.2" height="2.2" rx=".21" ry=".21"/>
        <rect class="cls-2" x="40.98" y="37.02" width="2.2" height="2.2" rx=".21" ry=".21"/>
        <rect class="cls-2" x="37.65" y="40.5" width="2.2" height="2.2" rx=".21" ry=".21"/>
        <rect class="cls-2" x="40.98" y="40.5" width="2.2" height="2.2" rx=".21" ry=".21"/>
      </g>
      <g>
        <rect class="cls-2" x="8.66" y="26.61" width="2.2" height="2.2" rx=".21" ry=".21"/>
        <rect class="cls-2" x="11.99" y="26.61" width="2.2" height="2.2" rx=".21" ry=".21"/>
        <rect class="cls-2" x="8.66" y="30.08" width="2.2" height="2.2" rx=".21" ry=".21"/>
        <rect class="cls-2" x="11.99" y="30.08" width="2.2" height="2.2" rx=".21" ry=".21"/>
        <rect class="cls-2" x="8.66" y="33.55" width="2.2" height="2.2" rx=".21" ry=".21"/>
        <rect class="cls-2" x="11.99" y="33.55" width="2.2" height="2.2" rx=".21" ry=".21"/>
        <rect class="cls-2" x="8.66" y="37.02" width="2.2" height="2.2" rx=".21" ry=".21"/>
        <rect class="cls-2" x="11.99" y="37.02" width="2.2" height="2.2" rx=".21" ry=".21"/>
        <rect class="cls-2" x="8.66" y="40.5" width="2.2" height="2.2" rx=".21" ry=".21"/>
        <rect class="cls-2" x="11.99" y="40.5" width="2.2" height="2.2" rx=".21" ry=".21"/>
      </g>
    </g>
  </g>
  <g>
    <g>
      <path class="cls-4" d="M49.34,18.24l-6.56-11.37c-.38-.65-1.05-1.04-1.8-1.04s-1.42.39-1.79,1.04l-6.56,11.37c-.38.65-.38,1.42,0,2.07.37.65,1.05,1.04,1.79,1.04h13.13c.75,0,1.42-.39,1.8-1.04.37-.65.37-1.43,0-2.07ZM48.32,19.72c-.16.28-.45.45-.78.45h-13.13c-.32,0-.61-.17-.78-.45-.16-.28-.16-.62,0-.9l6.56-11.37c.16-.28.45-.45.78-.45s.62.17.78.45l6.56,11.37c.16.28.16.62,0,.9Z"/>
      <path class="cls-2" d="M48.32,18.82l-6.56-11.37c-.16-.28-.45-.45-.78-.45s-.61.17-.78.45l-6.56,11.37c-.16.28-.16.62,0,.9.16.28.45.45.78.45h13.13c.33,0,.62-.17.78-.45.16-.28.16-.62,0-.9ZM40.97,18.82c-.59,0-1.07-.47-1.07-1.06s.47-1.07,1.07-1.07,1.06.47,1.06,1.07-.47,1.06-1.06,1.06ZM42.2,11.2l-.26,4.3c0,.14-.13.25-.26.25h-1.39c-.14,0-.26-.11-.26-.25l-.27-4.3c0-.15.1-.27.25-.28,0,0,.01,0,.02,0h1.91c.15,0,.27.12.27.27h0Z"/>
    </g>
    <g>
      <path class="cls-4" d="M42.03,17.76c0,.59-.47,1.06-1.06,1.06s-1.07-.47-1.07-1.06.47-1.07,1.07-1.07,1.06.47,1.06,1.07Z"/>
      <path class="cls-4" d="M42.2,11.19h0s-.26,4.32-.26,4.32c0,.14-.13.25-.26.25h-1.39c-.14,0-.26-.11-.26-.25l-.27-4.3c0-.15.1-.27.25-.28,0,0,.01,0,.02,0h1.91c.15,0,.27.12.27.27Z"/>
    </g>
  </g>
</svg>