<?xml version="1.0" encoding="UTF-8"?>
<svg id="Layer_1" data-name="Layer 1" xmlns="http://www.w3.org/2000/svg" viewBox="0 0 59.53 59.53">
  <defs>
    <style>
      .cls-1 {
        fill: #778558;
      }

      .cls-2 {
        fill: #fff;
        stroke: #778558;
        stroke-dasharray: 5.29;
        stroke-linecap: round;
        stroke-miterlimit: 10;
        stroke-width: 1.76px;
      }

      .cls-3 {
        fill: #d6dbcd;
      }
    </style>
  </defs>
  <path class="cls-2" d="M53.07,14.35L31.46,1.87c-1.05-.61-2.34-.61-3.39,0L6.46,14.35c-1.05.61-1.69,1.72-1.69,2.94v24.96c0,1.21.65,2.33,1.69,2.94l21.61,12.48c1.05.61,2.34.61,3.39,0l21.61-12.48c1.05-.61,1.69-1.72,1.69-2.94v-24.96c0-1.21-.65-2.33-1.69-2.94Z"/>
  <g>
    <g>
      <path class="cls-1" d="M35.8,11.37c-4.02-2.49-8.05-2.49-12.07,0-.25.15-.37.44-.33.72l.54,3.19c.05.29.26.51.54.57.05.02.11.02.17.02h10.23c.06,0,.11,0,.17-.02.27-.06.49-.28.54-.57l.54-3.19c.05-.28-.08-.57-.32-.72ZM31.89,13.74h-1.41v1.42h-1.42v-1.42h-1.42v-1.41h1.42v-1.41h1.42v1.41h1.41v1.41Z"/>
      <polygon class="cls-3" points="31.89 12.33 31.89 13.74 30.47 13.74 30.47 15.16 29.06 15.16 29.06 13.74 27.64 13.74 27.64 12.33 29.06 12.33 29.06 10.92 30.47 10.92 30.47 12.33 31.89 12.33"/>
    </g>
    <g>
      <path class="cls-1" d="M29.76,26.39c3.5,0,6.34-2.84,6.34-6.34,0-1.15-.31-2.22-.84-3.15h-11c-.53.93-.84,2-.84,3.15,0,3.5,2.84,6.34,6.34,6.34Z"/>
      <path class="cls-1" d="M29.76,28.35c-8.21,0-14.87,6.66-14.87,14.87,0,0,4.3,5.07,14.87,5.07,11.54,0,14.87-5.07,14.87-5.07,0-8.21-6.66-14.87-14.87-14.87Z"/>
    </g>
  </g>
</svg>