<?xml version="1.0" encoding="UTF-8"?>
<svg id="Layer_1" data-name="Layer 1" xmlns="http://www.w3.org/2000/svg" viewBox="0 0 59.53 59.53">
  <defs>
    <style>
      .cls-1 {
        fill: #fff;
        stroke: #296991;
        stroke-miterlimit: 10;
        stroke-width: 2.67px;
      }

      .cls-2 {
        fill: #8bb4c9;
      }

      .cls-3 {
        fill: #296991;
      }
    </style>
  </defs>
  <g id="Circle">
    <circle class="cls-1" cx="29.76" cy="29.76" r="28.35"/>
  </g>
  <g id="Artwork_64x64" data-name="Artwork 64x64">
    <path class="cls-3" d="M45.59,19.63c-3.45-3.99-9.48-4.42-13.47-.96-.22.19-.43.39-.63.6l-1.54,1.53c-.1.1-.27.1-.37,0,0,0,0,0,0,0l-1.75-1.75c-3.68-3.68-9.65-3.68-13.33,0h0c-3.68,3.68-3.68,9.64,0,13.32,0,0,0,0,0,0l13.41,13.43c1.03,1.02,2.69,1.02,3.71,0l13.43-13.41c3.47-3.46,3.71-9.01.54-12.76Z"/>
    <path class="cls-2" d="M28.17,39.76c-.38,0-.73-.22-.88-.57l-3.78-8.5-1.83,3.14c-.17.3-.49.48-.84.48h-6.24c-.53,0-.97-.43-.97-.97s.43-.97.97-.97h5.69l2.5-4.3c.19-.31.53-.5.89-.48.36.02.68.24.83.57l3.59,8.09,4.51-11.97c.13-.38.48-.63.88-.64.4-.01.76.23.91.59l3.46,8.16h6.78c.53,0,.97.43.97.97s-.43.97-.97.97h-7.42c-.39,0-.74-.23-.89-.59l-2.74-6.5-4.51,11.91c-.13.37-.48.63-.88.64l-.03-.02Z"/>
  </g>
</svg>