<?xml version="1.0" encoding="UTF-8"?>
<svg id="Layer_1" data-name="Layer 1" xmlns="http://www.w3.org/2000/svg" viewBox="0 0 56.69 56.69">
  <defs>
    <style>
      .cls-1 {
        stroke: #f4bf96;
      }

      .cls-1, .cls-2 {
        fill: none;
        stroke-linecap: round;
        stroke-linejoin: round;
        stroke-width: 1.43px;
      }

      .cls-3 {
        fill: #fff;
      }

      .cls-2 {
        stroke: #cc8544;
      }
    </style>
  </defs>
  <path class="cls-3" d="M51.65,12.93L30.04.45c-1.05-.61-2.34-.61-3.39,0L5.04,12.93c-1.05.61-1.69,1.72-1.69,2.94v24.96c0,1.21.65,2.33,1.69,2.94l21.61,12.48c1.05.61,2.34.61,3.39,0l21.61-12.48c1.05-.61,1.69-1.72,1.69-2.94V15.87c0-1.21-.65-2.33-1.69-2.94Z"/>
  <g>
    <path class="cls-1" d="M14.73,13.9s-3.73,0-3.73,3.75c0,1.34,2.1,14.42,2.33,15.53.23,1.11,1.34,5.3,7.46,4.54,0,0-1.05,12.76,12.64,10.25,13.69-2.51,8.11-16.8,8.11-16.8"/>
    <path class="cls-1" d="M26.27,13.9s3.55-.58,3.8,3.16c.09,1.34-1.67,14.06-1.83,15.18-.16,1.12-.64,5.18-7.19,5.49"/>
    <circle class="cls-2" cx="16.6" cy="13.9" r="1.86"/>
    <circle class="cls-2" cx="24.4" cy="13.9" r="1.86"/>
    <circle class="cls-2" cx="40.57" cy="27.23" r="1.86"/>
    <circle class="cls-2" cx="40.57" cy="27.23" r="4.07"/>
  </g>
</svg>