<?xml version="1.0" encoding="UTF-8"?>
<svg id="Layer_1" data-name="Layer 1" xmlns="http://www.w3.org/2000/svg" width="20mm" height="20mm" viewBox="0 0 56.69 56.69">
  <defs>
    <style>
      .cls-1 {
        fill: #f4dac4;
      }

      .cls-2 {
        fill: #a16936;
      }

      .cls-3 {
        fill: #e2a26a;
      }
    </style>
  </defs>
  <circle class="cls-1" cx="28.35" cy="28.35" r="28.35"/>
  <g>
    <g>
      <path class="cls-2" d="M21.85,32.16V13.58c0-.78-.63-1.42-1.42-1.42s-1.42.63-1.42,1.42v18.58c-1.25.55-2.12,1.79-2.12,3.24,0,1.96,1.59,3.54,3.54,3.54s3.54-1.59,3.54-3.54c0-1.45-.87-2.7-2.12-3.24Z"/>
      <path class="cls-3" d="M25.15,30.45V13.59c0-2.6-2.12-4.72-4.72-4.72-2.6,0-4.72,2.12-4.72,4.72v16.86c-1.35,1.29-2.12,3.08-2.12,4.95,0,3.77,3.07,6.84,6.84,6.84,3.77,0,6.84-3.07,6.84-6.84,0-1.87-.77-3.67-2.12-4.95ZM20.43,41.11c-3.15,0-5.71-2.56-5.71-5.71,0-1.64.7-3.2,1.93-4.28l.19-.17v-2.16s.99,0,.99,0c.31,0,.57-.25.57-.57s-.25-.57-.57-.57h-.99s0-2.48,0-2.48h.99c.31,0,.57-.25.57-.57s-.25-.57-.57-.57h-.99s0-2.48,0-2.48h.99c.31,0,.57-.25.57-.57s-.25-.57-.57-.57h-.99s0-2.48,0-2.48h.99c.31,0,.57-.25.57-.57s-.25-.57-.57-.57h-.99s0-2.48,0-2.48h.99c.31,0,.57-.25.57-.57s-.25-.57-.57-.57h-.97c.19-1.8,1.72-3.2,3.56-3.2,1.98,0,3.59,1.61,3.59,3.59v17.36s.19.17.19.17c1.23,1.08,1.93,2.64,1.93,4.28,0,3.15-2.56,5.71-5.71,5.71Z"/>
    </g>
    <g>
      <path class="cls-2" d="M37.3,39.03v-5.44c0-.78-.63-1.42-1.42-1.42s-1.42.63-1.42,1.42v5.44c-1.25.55-2.12,1.79-2.12,3.24,0,1.96,1.59,3.54,3.54,3.54,1.96,0,3.54-1.59,3.54-3.54,0-1.45-.87-2.7-2.12-3.24Z"/>
      <path class="cls-3" d="M40.61,37.32v-16.86c0-2.6-2.12-4.72-4.72-4.72-2.6,0-4.72,2.12-4.72,4.72v16.86c-1.35,1.29-2.12,3.08-2.12,4.95,0,3.77,3.07,6.84,6.84,6.84,3.77,0,6.84-3.07,6.84-6.84,0-1.87-.77-3.67-2.12-4.95ZM35.89,47.98c-3.15,0-5.71-2.56-5.71-5.71,0-1.64.7-3.2,1.93-4.28l.19-.17v-2.16s.99,0,.99,0c.31,0,.57-.25.57-.57s-.25-.57-.57-.57h-.99s0-2.48,0-2.48h.99c.31,0,.57-.25.57-.57s-.25-.57-.57-.57h-.99s0-2.48,0-2.48h.99c.31,0,.57-.25.57-.57s-.25-.57-.57-.57h-.99s0-2.48,0-2.48h.99c.31,0,.57-.25.57-.57s-.25-.57-.57-.57h-.99s0-2.48,0-2.48h.99c.31,0,.57-.25.57-.57s-.25-.57-.57-.57h-.97c.19-1.8,1.72-3.2,3.56-3.2,1.98,0,3.59,1.61,3.59,3.59v17.36s.19.17.19.17c1.23,1.08,1.93,2.64,1.93,4.28,0,3.15-2.56,5.71-5.71,5.71Z"/>
    </g>
  </g>
</svg>