<?xml version="1.0" encoding="UTF-8"?>
<svg id="Layer_1" data-name="Layer 1" xmlns="http://www.w3.org/2000/svg" viewBox="0 0 56.69 56.69">
  <defs>
    <style>
      .cls-1 {
        fill: #fff;
      }

      .cls-2 {
        fill: #eaaab6;
      }

      .cls-3 {
        fill: #c65e70;
      }
    </style>
  </defs>
  <circle class="cls-1" cx="28.35" cy="28.35" r="28.35"/>
  <g>
    <path class="cls-3" d="M30,35.39V13.8c0-.91-.74-1.65-1.65-1.65s-1.65.74-1.65,1.65v21.59c-1.45.64-2.47,2.08-2.47,3.77,0,2.27,1.84,4.12,4.12,4.12s4.12-1.84,4.12-4.12c0-1.69-1.02-3.14-2.47-3.77Z"/>
    <path class="cls-2" d="M33.83,33.41V13.81c0-3.03-2.46-5.49-5.49-5.49s-5.49,2.46-5.49,5.49v19.59c-1.57,1.5-2.47,3.58-2.47,5.76,0,4.39,3.57,7.96,7.95,7.96s7.95-3.57,7.95-7.96c0-2.18-.9-4.26-2.47-5.76ZM28.35,45.8c-3.66,0-6.64-2.98-6.64-6.64,0-1.9.82-3.72,2.25-4.97l.22-.2v-2.51h1.15c.36,0,.66-.29.66-.66s-.3-.66-.66-.66h-1.15v-2.88h1.15c.36,0,.66-.29.66-.66s-.3-.66-.66-.66h-1.15v-2.88h1.15c.36,0,.66-.29.66-.66s-.3-.66-.66-.66h-1.15v-2.88h1.15c.36,0,.66-.29.66-.66s-.3-.66-.66-.66h-1.15v-2.88h1.15c.36,0,.66-.29.66-.66s-.3-.66-.66-.66h-1.12c.22-2.09,1.99-3.72,4.14-3.72,2.3,0,4.17,1.87,4.17,4.17v20.18l.22.2c1.43,1.26,2.25,3.07,2.25,4.97,0,3.66-2.98,6.64-6.64,6.64Z"/>
  </g>
</svg>