<?xml version="1.0" encoding="UTF-8"?>
<svg id="Layer_1" data-name="Layer 1" xmlns="http://www.w3.org/2000/svg" viewBox="0 0 56.69 56.69">
  <defs>
    <style>
      .cls-1 {
        fill: #fff;
      }

      .cls-2 {
        fill: #cc8544;
      }

      .cls-3 {
        fill: #f4bf96;
      }
    </style>
  </defs>
  <path class="cls-1" d="M51.65,12.93L30.04.45c-1.05-.61-2.34-.61-3.39,0L5.04,12.93c-1.05.61-1.69,1.72-1.69,2.94v24.96c0,1.21.65,2.33,1.69,2.94l21.61,12.48c1.05.61,2.34.61,3.39,0l21.61-12.48c1.05-.61,1.69-1.72,1.69-2.94V15.87c0-1.21-.65-2.33-1.69-2.94Z"/>
  <g id="Artwork_64x64" data-name="Artwork 64x64">
    <path class="cls-2" d="M44.65,26.92h-1.35c-.37,0-.67.3-.67.67v2.78l-3.37-3.33c-.39-.39-1.03-.4-1.42,0,0,0,0,0,0,0l-5.98,6.02v8.09c0,.74.6,1.35,1.35,1.35h10.78c.74,0,1.35-.6,1.35-1.35v-13.56c0-.37-.3-.67-.67-.67ZM35.22,37.7h-1.35v-1.35h1.35v1.35ZM35.22,35.68h-1.35v-1.35h1.35v1.35ZM37.24,37.7h-1.35v-1.35h1.35v1.35ZM37.24,35.68h-1.35v-1.35h1.35v1.35Z"/>
    <rect class="cls-3" x="39.25" y="38.45" width="2.7" height="4.04"/>
    <path class="cls-3" d="M46.07,35.21l-7.07-7.07c-.23-.23-.61-.23-.85,0h0s-7.07,7.07-7.07,7.07c-.24.24-.62.24-.86,0l-.4-.43c-.23-.23-.23-.61,0-.85h0s7.47-7.49,7.47-7.49c.71-.71,1.85-.71,2.56,0l7.49,7.49c.23.23.23.61,0,.85h0s-.42.43-.42.43c-.24.24-.62.24-.86,0Z"/>
    <path class="cls-2" d="M27.14,42.5c.74,0,1.35-.6,1.35-1.35V15.54c0-.74-.6-1.35-1.35-1.35h-13.48c-.74,0-1.35.6-1.35,1.35v25.6c0,.74.6,1.35,1.35,1.35h13.48Z"/>
    <rect class="cls-1" x="21.75" y="18.24" width="3.37" height="3.37"/>
    <rect class="cls-1" x="15.68" y="18.24" width="3.37" height="3.37"/>
    <rect class="cls-1" x="21.75" y="24.3" width="3.37" height="3.37"/>
    <rect class="cls-1" x="15.68" y="24.3" width="3.37" height="3.37"/>
    <rect class="cls-1" x="21.75" y="30.37" width="3.37" height="3.37"/>
    <rect class="cls-1" x="15.68" y="30.37" width="3.37" height="3.37"/>
    <rect class="cls-3" x="17.7" y="38.45" width="5.39" height="4.04"/>
  </g>
</svg>