<?xml version="1.0" encoding="UTF-8"?>
<svg id="Layer_1" data-name="Layer 1" xmlns="http://www.w3.org/2000/svg" viewBox="0 0 56.69 56.69">
  <defs>
    <style>
      .cls-1 {
        fill: #e8eaed;
      }

      .cls-2 {
        fill: #fff;
      }

      .cls-3 {
        fill: none;
        stroke: #b8c0ca;
        stroke-linecap: round;
        stroke-linejoin: round;
        stroke-width: 1.13px;
      }

      .cls-4 {
        fill: #b8c0ca;
      }

      .cls-5 {
        fill: #132d4a;
      }

      .cls-6 {
        fill: #496279;
      }
    </style>
  </defs>
  <rect class="cls-2" x="0" y="0" width="56.69" height="56.69" rx="3.5" ry="3.5"/>
  <g>
    <circle class="cls-1" cx="47.32" cy="15.42" r="1.62"/>
    <circle class="cls-1" cx="43.76" cy="20.3" r="1.62"/>
    <circle class="cls-1" cx="47.59" cy="9.46" r="1.24"/>
    <circle class="cls-1" cx="39.02" cy="24.92" r="1.24"/>
    <circle class="cls-1" cx="42.14" cy="8.37" r="1.24"/>
    <circle class="cls-1" cx="41.79" cy="12.9" r="1.24"/>
    <circle class="cls-1" cx="46.8" cy="26.16" r="1.24"/>
    <circle class="cls-1" cx="50.17" cy="21.92" r="1.24"/>
    <line class="cls-3" x1="30.69" y1="18.52" x2="37.53" y2="20.69"/>
    <line class="cls-3" x1="30.67" y1="15.01" x2="37.79" y2="13.26"/>
    <line class="cls-3" x1="30.29" y1="16.77" x2="39.8" y2="16.77"/>
    <path class="cls-4" d="M41.79,18.03s-.02.08-.02.13c0,.02,0,.03,0,.05,0,0,0,0,0,.01,0-.07,0-.13.02-.19Z"/>
    <g>
      <path class="cls-4" d="M41.79,18.03s-.02.08-.02.13c0,.02,0,.03,0,.05,0,.02,0,.05.02.08-.02-.02-.02-.04-.02-.05v-.02c0-.07,0-.13.02-.19Z"/>
      <path class="cls-4" d="M41.77,18.21v.02s0,.04.02.05c0-.03-.02-.06-.02-.08,0,0,0,0,0,.01ZM41.77,18.21v.02s0,.04.02.05c0-.03-.02-.06-.02-.08,0-.02,0-.03,0-.05,0-.05,0-.08.02-.13-.03.06-.03.12-.02.19ZM41.77,18.21v.02s0,.04.02.05c0-.03-.02-.06-.02-.08,0-.02,0-.03,0-.05,0-.05,0-.08.02-.13-.03.06-.03.12-.02.19ZM41.77,18.21v.02s0,.04.02.05c0-.03-.02-.06-.02-.08,0-.02,0-.03,0-.05,0-.05,0-.08.02-.13-.03.06-.03.12-.02.19ZM41.77,18.21v.02s0,.04.02.05c0-.03-.02-.06-.02-.08,0-.02,0-.03,0-.05,0-.05,0-.08.02-.13-.03.06-.03.12-.02.19ZM41.77,18.21v.02s0,.04.02.05c0-.03-.02-.06-.02-.08,0-.02,0-.03,0-.05,0-.05,0-.08.02-.13-.03.06-.03.12-.02.19ZM41.77,18.21v.02s0,.04.02.05c0-.03-.02-.06-.02-.08,0-.02,0-.03,0-.05,0-.05,0-.08.02-.13-.03.06-.03.12-.02.19Z"/>
    </g>
  </g>
  <g>
    <rect class="cls-6" x="25.34" y="15.42" width="3.13" height="2.96" rx=".48" ry=".48"/>
    <path class="cls-6" d="M25.45,28.44c-.37.11-.76-.06-.94-.4-.91-1.8-3.54-7.28-2.9-9.65.77-2.86,2.36-.82,2.25-.27-.53,2.46,2.31,9.32,2.31,9.32.1.42-.14.85-.56.97l-.16.04Z"/>
    <path class="cls-4" d="M25.63,34.58v14.24c0,1.45-1.18,2.63-2.63,2.63h-13.37c-1.45,0-2.63-1.18-2.63-2.63v-14.24c0-.71.28-1.38.79-1.88l4.4-4.32c.49-.48,1.15-.75,1.84-.75h4.58c.69,0,1.35.27,1.84.75l4.4,4.32c.5.5.79,1.17.79,1.88Z"/>
    <rect class="cls-6" x="12.21" y="23.14" width="8.21" height="5.02" rx=".78" ry=".78"/>
    <path class="cls-5" d="M12.33,23.19l-.45-.58c-.23-.29-.58-.46-.95-.46h-2.25c-.46,0-.88-.26-1.08-.68h0c-.2-.42-.15-.91.14-1.27,1.17-1.44,4.42-4.72,8.11-5.07s7.07.13,8.85.15c.66.01.91.37.91,1.02v1.24c0,.53-.34,1-.85,1.15-.8.24-2,.71-2.94,1.58-.76.7-1.4,1.92-1.76,2.69-.2.42-.62.69-1.09.69h-5.69c-.37,0-.72-.17-.95-.46Z"/>
  </g>
</svg>