<?xml version="1.0" encoding="UTF-8"?>
<svg id="Layer_1" data-name="Layer 1" xmlns="http://www.w3.org/2000/svg" width="20mm" height="20mm" viewBox="0 0 56.69 56.69">
  <defs>
    <style>
      .cls-1 {
        fill: #fff;
      }
    </style>
  </defs>
  <g>
    <circle cx="28.35" cy="28.35" r="28.35"/>
    <path class="cls-1" d="M22.16,39.22l-8.1-8.11c-.69-.69-.69-1.8,0-2.49,0,0,0,0,0,0l1.24-1.24c.69-.69,1.8-.69,2.49,0h0s5.62,5.62,5.62,5.62l15.49-15.5c.69-.69,1.8-.69,2.49,0,0,0,0,0,0,0l1.25,1.25c.68.69.68,1.8,0,2.48l-18.03,17.99c-.68.66-1.77.66-2.45,0Z"/>
  </g>
  <g>
    <path class="cls-1" d="M28.72,53.24c-.82,0-1.48-.65-1.5-1.47-.01-.83.65-1.51,1.47-1.53,1.26-.02,2.53-.15,3.78-.39,1.26-.24,2.5-.59,3.69-1.05.77-.29,1.64.09,1.94.87.29.77-.09,1.64-.87,1.94-1.35.51-2.76.91-4.19,1.19-1.42.27-2.86.42-4.29.45h-.03ZM20.7,51.96c-.16,0-.33-.03-.49-.08-2.75-.95-5.29-2.37-7.55-4.2-.64-.52-.74-1.47-.22-2.11.52-.64,1.47-.74,2.11-.22,1.99,1.62,4.23,2.86,6.64,3.7.78.27,1.2,1.13.93,1.91-.21.62-.8,1.01-1.42,1.01ZM43.66,47.53c-.42,0-.84-.18-1.13-.52-.54-.63-.47-1.57.15-2.12,1.93-1.67,3.54-3.66,4.79-5.9.4-.72,1.32-.98,2.04-.58.72.4.98,1.32.58,2.04-1.42,2.54-3.25,4.8-5.45,6.7-.28.25-.63.37-.98.37ZM8.28,41.88c-.51,0-1.01-.26-1.29-.73-1.49-2.49-2.53-5.2-3.08-8.07-.16-.81.37-1.6,1.19-1.76.81-.16,1.6.37,1.76,1.19.49,2.53,1.4,4.91,2.71,7.1.43.71.2,1.63-.51,2.06-.24.14-.51.21-.77.21ZM51.45,33.56c-.08,0-.16,0-.24-.02-.82-.13-1.38-.9-1.24-1.72.18-1.14.28-2.3.28-3.45,0-1.38-.13-2.77-.4-4.15l1.46-.36,1.48-.27-1.48.27,1.48-.23c.31,1.59.46,3.18.46,4.75,0,1.31-.11,2.63-.31,3.93-.12.74-.76,1.26-1.48,1.26ZM5.24,26.17c-.08,0-.16,0-.24-.02-.82-.13-1.38-.9-1.25-1.72.46-2.87,1.41-5.62,2.82-8.17.4-.72,1.32-.98,2.04-.58.72.4.99,1.32.58,2.04-1.25,2.24-2.08,4.66-2.48,7.18-.12.74-.75,1.26-1.48,1.26ZM48.39,17.78c-.51,0-1-.26-1.29-.73-1.32-2.19-3-4.12-4.99-5.73-.64-.52-.75-1.46-.22-2.11.52-.64,1.46-.75,2.11-.22,2.27,1.83,4.18,4.03,5.68,6.51.43.71.2,1.63-.51,2.06-.24.15-.51.21-.77.21ZM13,12.19c-.42,0-.84-.17-1.13-.52-.54-.62-.48-1.57.15-2.12,2.2-1.91,4.69-3.41,7.41-4.45.77-.3,1.64.09,1.94.87.3.77-.09,1.64-.87,1.94-2.39.91-4.58,2.23-6.51,3.91-.28.25-.63.37-.98.37ZM35.95,7.72c-.16,0-.33-.03-.49-.08-2.29-.79-4.68-1.19-7.09-1.19h-.41c-.84.05-1.51-.64-1.53-1.47-.02-.83.64-1.51,1.47-1.53.16,0,.32,0,.47,0,2.75,0,5.46.46,8.07,1.35.78.27,1.2,1.12.93,1.91-.21.62-.8,1.01-1.42,1.01Z"/>
    <path class="cls-1" d="M32.75,52.82c-.71,0-1.33-.5-1.47-1.22-.16-.81.38-1.6,1.19-1.76,11.85-2.27,19.65-13.77,17.38-25.62-1.95-10.19-10.89-17.66-21.25-17.77-.83,0-1.49-.69-1.48-1.52,0-.82.68-1.48,1.5-1.48h.02c11.78.12,21.94,8.62,24.16,20.21,2.58,13.48-6.28,26.55-19.76,29.14-.09.02-.19.03-.28.03Z"/>
  </g>
</svg>