<?xml version="1.0" encoding="UTF-8"?>
<svg id="Layer_1" data-name="Layer 1" xmlns="http://www.w3.org/2000/svg" viewBox="0 0 56.69 56.69">
  <defs>
    <style>
      .cls-1 {
        fill: #fff;
      }

      .cls-2 {
        fill: #8595a6;
      }

      .cls-3 {
        fill: #132d4a;
      }
    </style>
  </defs>
  <rect class="cls-1" width="56.69" height="56.69" rx="3.5" ry="3.5"/>
  <g>
    <g id="Artwork_64x64" data-name="Artwork 64x64">
      <circle class="cls-3" cx="28.86" cy="15.93" r="3.49"/>
      <path class="cls-3" d="M31.82,20.43h-7.6c-1.39,0-1.12,1.93-1.12,3.28l.15,12.29v13.2c.03,1.18,1.02,2.11,2.2,2.08,1.1-.03,1.99-.89,2.07-1.98l.61-13.3.61,13.3c.09,1.18,1.12,2.06,2.3,1.97,1.09-.08,1.95-.98,1.98-2.07v-13.2l.6-12.58c.06-1.46-.18-2.99-1.79-2.99Z"/>
    </g>
    <path class="cls-3" d="M17.97,34.12l3.67-11.87c1.1-3.26,5.93-1.78,4.99,1.55-.02.07-.05.14-.08.21l-4.68,11.51c-1.04,2.42-4.63,1.13-3.91-1.4h0Z"/>
    <path class="cls-3" d="M42.41,16.86l-.78,7.69c-.13,1.37-1.44,2.29-2.77,2.04,0,0-7.15-.75-7.15-.75-1.48-.16-2.56-1.49-2.4-2.97.16-1.54,1.61-2.64,3.14-2.38,0,0,7.08,1.2,7.08,1.2l-2.77,2.04,1.77-7.52c.58-2.37,4.12-1.77,3.89.65h0Z"/>
    <g>
      <circle class="cls-2" cx="12.17" cy="14.83" r=".99"/>
      <circle class="cls-2" cx="15.19" cy="41.08" r=".99"/>
      <circle class="cls-2" cx="12.49" cy="25.77" r=".99"/>
      <circle class="cls-2" cx="13.84" cy="23.19" r=".99"/>
      <circle class="cls-2" cx="19.06" cy="12.42" r=".99"/>
      <circle class="cls-2" cx="22.59" cy="17.52" r=".99"/>
      <circle class="cls-2" cx="25.37" cy="8.62" r=".99"/>
      <circle class="cls-2" cx="34.64" cy="7.92" r=".99"/>
      <circle class="cls-2" cx="36.27" cy="10.08" r=".99"/>
      <circle class="cls-2" cx="37.61" cy="14.39" r=".99"/>
      <circle class="cls-2" cx="47.39" cy="26.35" r=".99"/>
      <circle class="cls-2" cx="41.71" cy="19.61" r=".99"/>
      <circle class="cls-2" cx="43.69" cy="15.82" r=".99"/>
      <circle class="cls-2" cx="43.69" cy="10.67" r=".99"/>
      <circle class="cls-2" cx="41.32" cy="36.85" r=".99"/>
    </g>
  </g>
</svg>