<?xml version="1.0" encoding="UTF-8"?>
<svg id="Layer_1" data-name="Layer 1" xmlns="http://www.w3.org/2000/svg" viewBox="0 0 56.69 56.69">
  <defs>
    <style>
      .cls-1 {
        fill: #fff;
      }

      .cls-2 {
        fill: #96a57f;
      }

      .cls-3 {
        fill: none;
        stroke: #778558;
        stroke-linecap: round;
        stroke-linejoin: round;
        stroke-width: 2.21px;
      }

      .cls-4 {
        fill: #d6dbcd;
      }
    </style>
  </defs>
  <path class="cls-1" d="M30.15.46h0c16.66,9.08,26.85,26.72,26.38,45.69h0c-.03,1.28-.71,2.46-1.8,3.12h0c-16.2,9.89-36.56,9.89-52.76,0h0c-1.09-.67-1.77-1.84-1.8-3.12h0C-.31,27.18,9.88,9.54,26.54.46h0c1.12-.61,2.48-.61,3.61,0Z"/>
  <g>
    <path class="cls-4" d="M11.8,46.54l8.22-10.85c.24-.32.62-.5,1.02-.5h15.62c.41,0,.79.2,1.03.53l7.92,10.91c.61.84,0,2.03-1.03,2.02l-31.76-.07c-1.05,0-1.65-1.21-1.01-2.04Z"/>
    <circle class="cls-2" cx="24.9" cy="17.15" r="5.89"/>
    <circle class="cls-2" cx="33.2" cy="18.67" r="5.89"/>
    <circle class="cls-2" cx="18.26" cy="31.75" r="4.92"/>
    <circle class="cls-2" cx="19.73" cy="21.67" r="4.17"/>
    <circle class="cls-2" cx="37.05" cy="25.84" r="4.17"/>
    <circle class="cls-2" cx="14.1" cy="36.11" r="3.39"/>
    <g>
      <line class="cls-3" x1="34" y1="38.41" x2="34" y2="18.16"/>
      <line class="cls-3" x1="37.05" y1="25.33" x2="34" y2="28.49"/>
      <line class="cls-3" x1="30.62" y1="21" x2="34" y2="25.08"/>
    </g>
    <circle class="cls-2" cx="37.38" cy="36.11" r="3.39"/>
    <circle class="cls-2" cx="43.11" cy="33.3" r="3.39"/>
    <circle class="cls-2" cx="31.62" cy="32.38" r="3.39"/>
    <g>
      <line class="cls-3" x1="17.48" y1="45.52" x2="17.48" y2="30.86"/>
      <line class="cls-3" x1="20.53" y1="33.01" x2="17.48" y2="36.18"/>
      <line class="cls-3" x1="14.1" y1="36.18" x2="17.48" y2="40.27"/>
    </g>
    <g>
      <line class="cls-3" x1="23.98" y1="16.45" x2="23.98" y2="38.41"/>
      <line class="cls-3" x1="19.84" y1="21.67" x2="23.9" y2="27.45"/>
      <line class="cls-3" x1="24.48" y1="20.11" x2="27.32" y2="18.16"/>
    </g>
    <circle class="cls-2" cx="27.95" cy="27.11" r="5.44"/>
    <g>
      <line class="cls-3" x1="28.86" y1="45.32" x2="28.86" y2="25.06"/>
      <line class="cls-3" x1="31.31" y1="32.84" x2="28.86" y2="35.4"/>
      <line class="cls-3" x1="26.56" y1="28.99" x2="28.86" y2="31.99"/>
    </g>
    <circle class="cls-2" cx="39.72" cy="29.27" r="4.71"/>
    <g>
      <line class="cls-3" x1="40.43" y1="45.52" x2="40.43" y2="27.11"/>
      <line class="cls-3" x1="43.48" y1="32.95" x2="40.43" y2="36.11"/>
      <line class="cls-3" x1="38.02" y1="30.2" x2="40.43" y2="33.3"/>
      <line class="cls-3" x1="38.02" y1="36.18" x2="40.43" y2="39.28"/>
    </g>
  </g>
</svg>