<?xml version="1.0" encoding="UTF-8"?>
<svg id="Layer_1" data-name="Layer 1" xmlns="http://www.w3.org/2000/svg" width="20mm" height="20mm" viewBox="0 0 56.69 56.69">
  <path d="M53.01,0c2.13,0,3.68,2.31,3.68,4.22v48.37c0,2.11-1.6,3.73-3.68,4.11l-49.36-.04c-1.72,0-3.66-1.81-3.66-3.53V3.58C0,1.64,1.94.33,3.61,0h49.39ZM11.78,7.9c-2.71.45-4.44,3-4,5.59s2.96,4.43,5.58,4,4.43-2.92,4.03-5.53-2.89-4.52-5.61-4.06ZM39.16,30.01c.68,1.42.7,2.98.74,4.57v13.7s8.38,0,8.38,0v-15.74c-.12-4.52-.85-9.57-5.69-11.28-1.23-.43-2.46-.61-3.78-.66-3.51-.15-6.74,1.2-8.64,4.43l-.06-3.76h-8.04s0,27.02,0,27.02h8.38s0-13.56,0-13.56c.03-2.55.42-5.73,3.29-6.52,1.98-.55,4.42-.29,5.42,1.81ZM16.76,48.28v-27s-8.4,0-8.4,0v27.01s8.4,0,8.4,0Z"/>
</svg>