<?xml version="1.0" encoding="UTF-8"?>
<svg id="Layer_1" data-name="Layer 1" xmlns="http://www.w3.org/2000/svg" viewBox="0 0 56.69 56.69">
  <defs>
    <style>
      .cls-1 {
        fill: #fff;
      }

      .cls-2 {
        fill: #8093a6;
      }

      .cls-3 {
        fill: #092d4c;
      }
    </style>
  </defs>
  <rect class="cls-1" width="56.69" height="56.69" rx="3.5" ry="3.5"/>
  <g>
    <path class="cls-3" d="M29.91,35.62v-6.49c0-.86-.7-1.56-1.56-1.56s-1.56.7-1.56,1.56v6.49c-1.38.6-2.34,1.98-2.34,3.57,0,2.15,1.75,3.9,3.9,3.9s3.9-1.75,3.9-3.9c0-1.6-.96-2.97-2.34-3.57Z"/>
    <path class="cls-2" d="M33.55,33.73V15.16c0-2.87-2.33-5.2-5.2-5.2s-5.2,2.33-5.2,5.2v18.57c-1.49,1.42-2.34,3.39-2.34,5.46,0,4.16,3.38,7.54,7.54,7.54s7.54-3.38,7.54-7.54c0-2.06-.85-4.04-2.34-5.46ZM28.35,45.48c-3.47,0-6.29-2.82-6.29-6.29,0-1.8.78-3.52,2.13-4.71l.21-.19v-2.37h1.09c.35,0,.63-.28.63-.62s-.28-.62-.63-.62h-1.09v-2.73h1.09c.35,0,.63-.28.63-.62s-.28-.62-.63-.62h-1.09v-2.73h1.09c.35,0,.63-.28.63-.62s-.28-.62-.63-.62h-1.09v-2.73h1.09c.35,0,.63-.28.63-.62s-.28-.62-.63-.62h-1.09v-2.73h1.09c.35,0,.63-.28.63-.63s-.28-.62-.63-.62h-1.06c.21-1.98,1.89-3.53,3.93-3.53,2.18,0,3.95,1.77,3.95,3.95v19.13l.21.19c1.35,1.19,2.13,2.91,2.13,4.71,0,3.47-2.82,6.29-6.29,6.29Z"/>
  </g>
</svg>