<?xml version="1.0" encoding="UTF-8"?>
<svg id="Layer_1" data-name="Layer 1" xmlns="http://www.w3.org/2000/svg" viewBox="0 0 56.69 56.69">
  <defs>
    <style>
      .cls-1 {
        fill: #8295a8;
      }

      .cls-2 {
        fill: #fff;
      }

      .cls-3 {
        stroke: #092d4c;
        stroke-linejoin: round;
      }

      .cls-3, .cls-4 {
        stroke-width: 1.48px;
      }

      .cls-3, .cls-4, .cls-5 {
        fill: none;
        stroke-linecap: round;
      }

      .cls-4 {
        stroke: #8295a8;
      }

      .cls-4, .cls-5 {
        stroke-miterlimit: 10;
      }

      .cls-5 {
        stroke: #b8c0ca;
        stroke-width: 1.68px;
      }

      .cls-6 {
        fill: #092d4c;
      }
    </style>
  </defs>
  <g>
    <rect class="cls-2" y="0" width="56.69" height="56.69" rx="3.5" ry="3.5"/>
    <g>
      <rect class="cls-1" x="6.67" y="11.43" width="27.55" height="3.56" rx="1.78" ry="1.78"/>
      <path class="cls-6" d="M13.64,20.35c1.06,0,11.95.05,12.91,0,.97-.05,5.07-.68,5.11-5.36H8.45s-.09,5.34,5.19,5.36Z"/>
      <path class="cls-6" d="M31.85,11.43s-.4-7.47-11.31-7.47c-11.48,0-12.09,7.47-12.09,7.47h23.4Z"/>
      <path class="cls-5" d="M13.64,8.27c-.37.33-.49.57-.53.9"/>
      <path class="cls-5" d="M17.28,5.86c-.29.25-.37.69-.37.79"/>
      <path class="cls-5" d="M19.97,9.04c.02.41.16.59.57.75"/>
      <path class="cls-5" d="M23.62,6.01c.16.08.2.29.18.92"/>
      <path class="cls-5" d="M27.24,8.4c.37.23.62.63.62.63"/>
    </g>
    <g>
      <path class="cls-6" d="M43.77,35.45c0,7.88-6.9,7.88-7.88,7.88-1.08,0-7.88,0-7.88-7.88,0-4.98,4.19-7.88,7.11-13.16.33-.6,1.2-.6,1.54,0,2.92,5.28,7.11,8.18,7.11,13.16Z"/>
      <path class="cls-3" d="M44.3,41.65c.88.49,1.39,1.08,1.39,1.7,0,1.8-4.26,3.27-9.51,3.27s-9.51-1.46-9.51-3.27c0-.56.42-1.09,1.15-1.56"/>
      <path class="cls-3" d="M46.12,39.72c3.48.98,5.69,2.48,5.69,4.14,0,2.97-7,5.37-15.64,5.37s-15.64-2.4-15.64-5.37c0-1.61,2.05-3.05,5.31-4.03"/>
      <path class="cls-4" d="M41.44,33.31s1.79,4.9-1.76,6.87"/>
    </g>
  </g>
  <g>
    <circle class="cls-4" cx="10.29" cy="27.84" r="3.17"/>
    <circle class="cls-4" cx="11.4" cy="40.67" r="3.52"/>
    <circle class="cls-4" cx="24.5" cy="27.79" r="2.66"/>
    <line class="cls-4" x1="11.07" y1="37.17" x2="10.5" y2="31"/>
    <line class="cls-4" x1="21.84" y1="27.78" x2="13.59" y2="27.76"/>
  </g>
</svg>