<?xml version="1.0" encoding="UTF-8"?>
<svg id="Layer_1" data-name="Layer 1" xmlns="http://www.w3.org/2000/svg" viewBox="0 0 56.69 56.69">
  <defs>
    <style>
      .cls-1 {
        fill: #fff;
      }

      .cls-2 {
        stroke: #296991;
      }

      .cls-2, .cls-3, .cls-4 {
        fill: none;
        stroke-linecap: round;
        stroke-linejoin: round;
      }

      .cls-2, .cls-4 {
        stroke-width: 1.68px;
      }

      .cls-5 {
        fill: #8bb4c9;
      }

      .cls-6 {
        fill: #e9f0f5;
      }

      .cls-7 {
        fill: #296991;
      }

      .cls-3 {
        stroke-width: .84px;
      }

      .cls-3, .cls-4 {
        stroke: #8bb4c9;
      }
    </style>
  </defs>
  <rect class="cls-1" x="0" y="0" width="56.69" height="56.69" rx="3.5" ry="3.5"/>
  <g>
    <path class="cls-7" d="M37.79,31.48c.06.12.06.23-.02.31l-5.46,5.08-2.09-2.25,5.43-5.06c.09-.08.22-.09.3-.02l.08.07,1.74,1.84s.01.01.02.03Z"/>
    <path class="cls-4" d="M33.75,37.2l-10.35,9.7s-.44-.46-.98-1.03l-1.78-1.9c-.54-.57-.96-1.07-.96-1.07l10.35-9.69"/>
    <line class="cls-3" x1="41.45" y1="26.42" x2="48.47" y2="19.9"/>
    <line class="cls-3" x1="23.96" y1="42.64" x2="22.04" y2="40.58"/>
    <line class="cls-3" x1="26.08" y1="40.68" x2="24.16" y2="38.61"/>
    <line class="cls-3" x1="28.2" y1="38.71" x2="26.28" y2="36.64"/>
    <line class="cls-3" x1="30.32" y1="36.74" x2="28.4" y2="34.67"/>
    <line class="cls-2" x1="19.05" y1="51.37" x2="14.86" y2="46.78"/>
    <line class="cls-2" x1="24.77" y1="48.37" x2="18.25" y2="41.41"/>
    <line class="cls-2" x1="16.96" y1="49.08" x2="21.51" y2="44.89"/>
    <path class="cls-7" d="M39.76,25.81c.33-.32.84-.29,1.15.03l1.01,1.08c.31.33.3.85-.04,1.16l-3.04,2.86c-.06-.11-.12-.21-.21-.3l-1.78-1.89s-.08-.09-.13-.11l3.02-2.83Z"/>
    <path class="cls-4" d="M30.04,33.2l4.81-4.51c.53-.5,1.35-.52,1.9-.05.05.03.09.07.13.11l1.78,1.89c.09.09.15.19.21.3.31.55.21,1.27-.27,1.72l-4.83,4.53"/>
  </g>
  <g>
    <path class="cls-7" d="M22.81,14.04v14.99c0,.75-.61,1.36-1.36,1.36h-11.73c-.75,0-1.36-.61-1.36-1.36v-14.99c0-.75.61-1.36,1.36-1.36h1.37c.66,0,1.2-.54,1.2-1.2v-.95c0-.24-.28-.58-.47-.66-.64-.24-1.31-.46-1.43-1.13-.14-.85.52-1.59,1.34-1.59h7.5c.68,0,1.31.46,1.43,1.13.14.85-.54,1.39-1.34,1.59-.24.06-.77.42-.77.66v.95c0,.66.54,1.2,1.2,1.2h1.7c.75,0,1.36.61,1.36,1.36Z"/>
    <rect class="cls-6" x="8.36" y="16.18" width="14.45" height="9.46"/>
    <g>
      <rect class="cls-5" x="14.86" y="17.38" width="1.78" height="6.93"/>
      <rect class="cls-5" x="14.86" y="17.38" width="1.78" height="6.93" transform="translate(36.6 5.09) rotate(90)"/>
    </g>
  </g>
</svg>