<?xml version="1.0" encoding="UTF-8"?>
<svg id="Layer_1" data-name="Layer 1" xmlns="http://www.w3.org/2000/svg" width="20mm" height="20mm" viewBox="0 0 56.69 56.69">
  <defs>
    <style>
      .cls-1 {
        fill: #0a2e4d;
      }

      .cls-2 {
        fill: none;
        stroke: #8595a6;
        stroke-linecap: round;
        stroke-linejoin: round;
        stroke-width: 1.48px;
      }

      .cls-3 {
        fill: #e8eaed;
      }
    </style>
  </defs>
  <circle class="cls-1" cx="28.35" cy="28.35" r="28.35"/>
  <g>
    <path class="cls-2" d="M40.33,44.66s-2.25-2.93-2.1-6.39c.16-3.46,6.13-11.42,4.3-18.55-1.83-7.13-8.23-10.22-14.31-9.64-6.08.58-10.53,2.67-12.84,6.92-2.31,4.25-.31,8.39-.31,8.39,0,0-3.67,4.71-3.67,6.18,0,.79,2.62,1.57,2.62,1.57,0,0-.37,1.94-.31,2.41s1.31,1.31,1.31,2.04-.7,3.3.37,3.98c2.36,1.52,5.8-.39,7.08.1,1.47.58,3.09,1.89,2.99,3.35"/>
    <path class="cls-3" d="M34.95,34.97s-1.52-4.93-1.28-5.46,2.77.22,3.62-1.63c.72-1.56.09-2.47.09-2.47,0,0,3.54-1.14,2.62-4.72-.92-3.57-3.73-3.21-3.73-3.21,0,0,.08-3.27-3.45-4.04-3.53-.77-5.15,1.14-5.15,1.14,0,0-3.19-1.67-5.7-.08-2.51,1.59-1.85,3.23-1.85,3.23,0,0-3.27.95-2.3,3.76.97,2.8,4.25,2.08,4.25,2.08,0,0,.34,2.03,1.98,2.37,1.64.34,2.85-.07,2.9-.07s-.03,1.11,1.58,2.15c1.18.76,2.44.64,2.76,1.02,1.34,1.58,1.09,5.93,1.09,5.93h2.56Z"/>
    <line class="cls-2" x1="31.01" y1="17.31" x2="31.01" y2="22.62"/>
    <line class="cls-2" x1="33.67" y1="19.96" x2="28.36" y2="19.96"/>
  </g>
</svg>