<?xml version="1.0" encoding="UTF-8"?>
<svg id="Layer_1" data-name="Layer 1" xmlns="http://www.w3.org/2000/svg" viewBox="0 0 56.69 56.69">
  <defs>
    <style>
      .cls-1 {
        fill: #fff;
      }

      .cls-2 {
        fill: none;
        stroke: #8bb4c9;
        stroke-linecap: round;
        stroke-miterlimit: 10;
        stroke-width: 1.53px;
      }

      .cls-3 {
        fill: #8bb4c9;
      }

      .cls-4 {
        fill: #e9f0f5;
      }

      .cls-5 {
        fill: #296991;
      }
    </style>
  </defs>
  <rect class="cls-1" y="0" width="56.69" height="56.69" rx="3.5" ry="3.5"/>
  <g>
    <path class="cls-5" d="M50.86,34.87v13.47c0,.67-.55,1.22-1.22,1.22h-10.54c-.67,0-1.22-.55-1.22-1.22v-13.47c0-.67.55-1.22,1.22-1.22h1.23c.6,0,1.08-.48,1.08-1.08v-.85c0-.21-.25-.52-.42-.59-.57-.22-1.18-.41-1.28-1.01-.13-.76.46-1.43,1.21-1.43h6.74c.61,0,1.18.41,1.28,1.01.13.76-.49,1.25-1.21,1.43-.22.06-.69.37-.69.59v.85c0,.6.48,1.08,1.08,1.08h1.52c.67,0,1.22.55,1.22,1.22Z"/>
    <rect class="cls-4" x="37.88" y="36.8" width="12.98" height="8.49"/>
    <g>
      <rect class="cls-3" x="43.72" y="37.88" width="1.6" height="6.22"/>
      <rect class="cls-3" x="43.72" y="37.88" width="1.6" height="6.22" transform="translate(85.51 -3.53) rotate(90)"/>
    </g>
  </g>
  <g>
    <g>
      <rect class="cls-5" x="7.08" y="8.46" width="28.93" height="37.01" rx="3.42" ry="3.42"/>
      <rect class="cls-4" x="5.21" y="14.66" width="32.67" height="24.59" rx="1.25" ry="1.25" transform="translate(48.51 5.41) rotate(90)"/>
      <rect class="cls-5" x="14.31" y="6.03" width="14.55" height="5.76" rx="2.12" ry="2.12"/>
    </g>
    <g>
      <rect class="cls-3" x="13.03" y="12.56" width="1.6" height="6.22"/>
      <rect class="cls-3" x="13.03" y="12.56" width="1.6" height="6.22" transform="translate(29.51 1.84) rotate(90)"/>
    </g>
    <line class="cls-2" x1="20.21" y1="14.91" x2="30.6" y2="14.91"/>
    <line class="cls-2" x1="20.21" y1="17.5" x2="27.72" y2="17.5"/>
    <line class="cls-2" x1="11.75" y1="22.71" x2="31.2" y2="22.71"/>
    <line class="cls-2" x1="11.75" y1="25.3" x2="24.23" y2="25.3"/>
    <line class="cls-2" x1="11.83" y1="27.9" x2="30.18" y2="27.9"/>
    <line class="cls-2" x1="11.83" y1="30.49" x2="28.2" y2="30.49"/>
    <line class="cls-2" x1="11.75" y1="33.08" x2="31.2" y2="33.08"/>
    <line class="cls-2" x1="11.75" y1="35.68" x2="29.4" y2="35.68"/>
    <line class="cls-2" x1="11.83" y1="38.27" x2="24.47" y2="38.27"/>
  </g>
</svg>