<?xml version="1.0" encoding="UTF-8"?>
<svg id="Layer_1" data-name="Layer 1" xmlns="http://www.w3.org/2000/svg" viewBox="0 0 56.69 56.69">
  <defs>
    <style>
      .cls-1 {
        fill: #c75e70;
      }

      .cls-2 {
        fill: #fff;
      }

      .cls-3 {
        fill: #ebabb7;
      }
    </style>
  </defs>
  <circle class="cls-2" cx="28.35" cy="28.35" r="28.35"/>
  <g>
    <path class="cls-3" d="M30.66,25.64s15,1.24,14.96,5.01c-.04,3.76-2.32,3.04-3.24,2.88-.92-.16-12.32-6.17-12.32-6.17l.6-1.72Z"/>
    <path class="cls-3" d="M26.03,25.64s-15,1.24-14.96,5.01,2.32,3.04,3.24,2.88,12.32-6.17,12.32-6.17l-.6-1.72Z"/>
    <path class="cls-1" d="M41.34,38.01l-2.66-4.35c-.31-.51-.82-.85-1.41-.95l-3.78-.62c-.17-.03-.33-.12-.44-.24l-1.9-2.16c-.05-.06-.11-.09-.17-.13.06-.5.09-1.02.09-1.55,0-1.37-.2-2.64-.53-3.67l3.79-2.03c.9-.48,1.3-1.52.96-2.48l-.83-2.33c-.11-.3-.01-.63.23-.83l3.51-2.89c.27-.23.31-.63.09-.91-.23-.28-.63-.31-.91-.09l-3.51,2.89c-.66.54-.91,1.45-.62,2.26l.83,2.33c.13.35-.02.74-.35.91l-3.68,1.97c-.23-.42-.48-.76-.76-1,.71-.35,1.2-1.08,1.2-1.93,0-.57-.22-1.08-.58-1.47.02-.11.19-.82,1.21-1.11.34-.1.54-.45.44-.8-.1-.34-.46-.54-.8-.44-1.26.36-1.78,1.18-1.99,1.7-.14-.03-.29-.04-.44-.04-.12,0-.24.02-.35.04-.21-.53-.74-1.34-1.99-1.7-.34-.1-.7.1-.8.44-.1.34.1.7.44.8.88.25,1.12.82,1.19,1.04-.4.39-.65.94-.65,1.54,0,.84.48,1.57,1.19,1.93-.27.23-.53.56-.75.97l-3.63-1.94c-.32-.17-.48-.57-.35-.91l.83-2.33c.29-.81.03-1.71-.62-2.26l-3.51-2.89c-.27-.23-.68-.19-.91.09-.23.27-.19.68.09.91l3.51,2.89c.24.2.34.53.23.83l-.83,2.33c-.34.96.06,2,.96,2.48l3.74,2c-.34,1.03-.54,2.31-.54,3.69,0,.55.03,1.09.09,1.6-.04.03-.08.05-.11.08l-1.9,2.16c-.11.13-.27.22-.44.24l-3.78.62c-.59.1-1.1.44-1.41.95l-2.66,4.35c-.19.3-.09.7.21.89.11.06.22.09.34.09.22,0,.43-.11.55-.31l2.66-4.35c.11-.19.3-.31.52-.35l3.78-.62c.46-.08.89-.31,1.2-.66l1.33-1.51c.05.2.11.39.17.58-.01.02-.03.03-.04.05l-2.41,4.02c-.1.17-.28.3-.48.35l-1.65.37c-.65.15-1.19.6-1.44,1.22l-2.14,5.28c-.13.33.03.71.36.84.08.03.16.05.24.05.25,0,.5-.15.6-.4l2.14-5.28c.09-.23.29-.4.53-.45l1.65-.37c.54-.12,1.01-.47,1.3-.94l1.99-3.33c.08.12.16.24.24.35-.39.95-.63,2.31-.63,3.83,0,2.87.86,5.19,1.93,5.19s1.94-2.32,1.94-5.19c0-1.51-.24-2.88-.64-3.83.1-.12.19-.25.28-.4l2.02,3.38c.29.48.76.82,1.3.94l1.65.37c.24.05.44.22.53.45l2.14,5.28c.1.25.34.4.6.4.08,0,.16-.02.24-.05.33-.13.49-.51.36-.84l-2.14-5.28c-.25-.62-.79-1.08-1.44-1.22l-1.65-.37c-.2-.04-.37-.17-.48-.35l-2.41-4.02s-.06-.07-.09-.1c.06-.19.12-.38.17-.59l1.38,1.57c.31.35.74.59,1.2.66l3.78.62c.22.04.4.16.52.35l2.66,4.35c.12.2.33.31.55.31.11,0,.23-.03.34-.09.3-.19.4-.58.21-.89Z"/>
  </g>
</svg>