<?xml version="1.0" encoding="UTF-8"?>
<svg id="Layer_1" data-name="Layer 1" xmlns="http://www.w3.org/2000/svg" viewBox="0 0 56.69 56.69">
  <defs>
    <style>
      .cls-1 {
        fill: #fff;
      }

      .cls-2 {
        fill: #cc8544;
      }
    </style>
  </defs>
  <path class="cls-1" d="M51.65,12.93L30.04.45c-1.05-.61-2.34-.61-3.39,0L5.04,12.93c-1.05.61-1.69,1.72-1.69,2.94v24.96c0,1.21.65,2.33,1.69,2.94l21.61,12.48c1.05.61,2.34.61,3.39,0l21.61-12.48c1.05-.61,1.69-1.72,1.69-2.94V15.87c0-1.21-.65-2.33-1.69-2.94Z"/>
  <g>
    <g>
      <g>
        <g id="Artwork_64x64" data-name="Artwork 64x64">
          <circle class="cls-2" cx="21.21" cy="13.86" r="3.03"/>
          <path class="cls-2" d="M23,17.64h-4.15c-1.21,0-2.21,1.68-2.21,2.85l.13,10.69v11.49c.03,1.03.89,1.84,1.92,1.81.95-.03,1.73-.77,1.8-1.72l.53-11.57.53,11.57c.08,1.03.97,1.8,2,1.72.95-.07,1.69-.85,1.72-1.8v-11.49l-.27-10.98c.05-1.27-.59-2.57-2-2.57Z"/>
        </g>
        <path class="cls-2" d="M12.27,28.02l4.71-9.35c1.15-2.19,4.44-.54,3.36,1.69,0,0-4.86,9.3-4.86,9.31-1.12,2.07-4.24.48-3.22-1.65h0Z"/>
        <path class="cls-2" d="M27.7,30.05l-6.11-9.48c-1.3-2.1,1.79-4.1,3.16-2.04,0,0,5.98,9.57,5.99,9.58,1.22,2.02-1.74,3.9-3.05,1.94h0Z"/>
      </g>
      <path class="cls-2" d="M15.36,35.88l1.53-9.88,8.28-.09,1.58,10c.03.73-.55,1.33-1.28,1.33h-8.83c-.74,0-1.32-.62-1.28-1.36Z"/>
    </g>
    <g>
      <g id="Artwork_64x64-2" data-name="Artwork 64x64">
        <circle class="cls-2" cx="37.15" cy="22.16" r="2.68"/>
        <path class="cls-2" d="M34.47,25.5h4.46c.95,0,1.73,1.31,1.73,2.23l-.1,5.93v8.99c-.02.8-.7,1.44-1.5,1.41-.75-.02-1.35-.6-1.41-1.35l-.36-7.93-.46,7.93c-.06.8-.76,1.4-1.56,1.34-.74-.06-1.33-.66-1.35-1.41v-8.99s-.41-6.13-.41-6.13c-.04-.99-.13-2.04.97-2.04Z"/>
      </g>
      <path class="cls-2" d="M41.58,34.75l-3.96-6.98c-.93-1.7,1.58-3.12,2.56-1.45,0,0,3.86,7.05,3.86,7.05.86,1.63-1.53,2.97-2.47,1.38h0Z"/>
      <path class="cls-2" d="M28.49,28.43l5.17-2.69c1.73-.86,3.06,1.69,1.36,2.61-.01.01-5.23,2.59-5.25,2.6-1.66.79-2.9-1.65-1.28-2.52h0Z"/>
    </g>
  </g>
</svg>