<?xml version="1.0" encoding="UTF-8"?>
<svg id="Layer_1" data-name="Layer 1" xmlns="http://www.w3.org/2000/svg" viewBox="0 0 56.69 56.69">
  <defs>
    <style>
      .cls-1 {
        fill: #fff;
      }

      .cls-2 {
        fill: #8595a6;
      }

      .cls-3 {
        fill: none;
        stroke: #496279;
        stroke-linecap: round;
        stroke-linejoin: round;
        stroke-width: .98px;
      }
    </style>
  </defs>
  <rect class="cls-1" width="56.69" height="56.69" rx="3.5" ry="3.5"/>
  <g>
    <path class="cls-2" d="M37.47,45.87s-1.41-4.49-1-5.39c.41-.9,3,.69,5.33-1.83,1.12-1.21,1.29-2.81,1.29-2.81,0,0,8.05.31,4.78-11.27-1.69-6-5.59-7.29-5.59-7.29,0,0-.94-3.63-6.71-5.59-6.71-2.28-10.1-.67-10.1-.67,0,0-2.41-.94-7.56.94-6.82,2.49-8.27,6.62-8.27,6.62,0,0-3.08,4.11-.73,9.3,1.98,4.38,7.93,3.49,7.93,3.49,0,0-.89,4.78,4.87,6.3,2.74.72,7.52-1.12,7.6-1.12s1.02,1.1,1.56,1.74c2.27,2.66,2.26,7.56,2.26,7.56h4.32Z"/>
    <g>
      <path class="cls-3" d="M17.06,30.89s1.26-3.49,4.98-4.23c1.57-.31,2.68-.05,3.24-.49s-1.2-2.53,2.5-4.93c0,0-2.58-.87-1.36-2.95.99-1.7,3.25-1.6,3.64-1.73s-.84-1.24.91-2.77c1.3-1.13,3.37-.03,3.37-.03,0,0-.77-1.63.9-1.63"/>
      <path class="cls-3" d="M41.76,17.42s-1.03-.6-1.64.49c-.61,1.08-1.63,5.69.41,7.51s4.1-.45,4.1-.45c0,0,.4,3.82-.94,5.12"/>
      <path class="cls-3" d="M8.63,25.21s-.06-6.07,4.19-6.32c2.35-.14,2.43-.69,2.43-.69.31-1.13.19-2.18,2-1.98,1.05.11-1.39-3.35,1.51-3.18,2.51.16,1,2.64,1,2.64,0,0,3.55,1.96,2.69,4.16-.96,2.44-6.05,2.38-6.05,2.38,0,0-.8,2.14-2.06,2.6-1.02.38-1.87.42-3.55,0"/>
      <path class="cls-3" d="M22.22,36.23s-2.1-1.33-1.95-3.51c.17-2.4,1.73-3.12,1.73-3.12"/>
      <path class="cls-3" d="M18.58,31.55s.26,1.34,1.69,1.17"/>
      <path class="cls-3" d="M25.86,33.03s-3.36-3.46-.42-6.84"/>
      <path class="cls-3" d="M26.52,29.69s.66,1.44-1.71,2.09c-1.93.52-1.94,1.68-1.94,1.68"/>
      <path class="cls-3" d="M27.35,27.78s3.28-.48,2.46,3.34"/>
      <path class="cls-3" d="M32.58,31.12s-.64-2.06-2.64-1.68"/>
      <path class="cls-3" d="M34.23,26.66s-1.09-1.4-2.44-.78c-1.78.8-.44,2.47-2.44,2.47"/>
      <path class="cls-3" d="M25.65,26.05s1.39-.09,2.17-1.21c.78-1.13,1.95-1.95,3.12-1.78s3.08.82,3.86-.02c.78-.84.3-3.49,1.99-4.18"/>
      <path class="cls-3" d="M35.58,25.53s1.16-2.43-.79-2.49"/>
      <path class="cls-3" d="M30.42,20.23s-.92,1.84,1.1,2.94"/>
      <path class="cls-3" d="M33.06,21.24s-1.37-.87-.48-2.25c.62-.95,2.04-.13,1.99-2.34-.04-1.89,1.94-.86,2.89-1.51s.41-1.87.41-1.87"/>
      <path class="cls-3" d="M32.49,15.17s-.07,1.35,1.97,1.22"/>
      <path class="cls-3" d="M28.94,19.12s1.92-2.11,3.64-.13"/>
      <path class="cls-3" d="M33.8,28.56s5.84-.38,5.68-5.09"/>
      <path class="cls-3" d="M46.25,21.75s-1.67-.24-1.77.37c-.19,1.12-2.05,1.84-2.45.93-.69-1.55,1.67-1.91,1.98-3.41"/>
      <path class="cls-3" d="M41.76,19.12s-.44,1.94,1.22,1.93"/>
      <path class="cls-3" d="M35.36,30.32s2.08.09,2.22-2.78"/>
      <path class="cls-3" d="M42.21,28.14s-.51,2.46-4.63.54"/>
      <path class="cls-3" d="M44.98,31.38s-1.63,1.97-3.35,1c-1.95-1.09-1.1-2.93-1.1-2.93"/>
      <path class="cls-3" d="M42.54,35.81s-2.19.58-2.29-.92"/>
      <path class="cls-3" d="M41.63,32.38s.92,3.28-5.71,2.99c-4.14-.18-6.19.86-6.19.86"/>
      <path class="cls-3" d="M41.68,38.01s-2.12-1.42-5.57-1.33"/>
      <path class="cls-3" d="M39.02,39.61s-.65-1.24-4.04-1.58"/>
      <path class="cls-3" d="M36.44,35.37s-1,3.44-4.12,4.24"/>
      <path class="cls-3" d="M47.12,23.9s-.8.59-.63,1.36c.36,1.6,1.21,1.37.78,2.07-1.16,1.91.21,2.09.91,2.09"/>
      <path class="cls-3" d="M46.31,30.26c.03.49.46,1.43,1.61,1.32"/>
      <path class="cls-3" d="M44.32,34.33s1.38-1.5,2.8-.98"/>
      <path class="cls-3" d="M38.53,33.11s-.51-1.3-1.75-1.32c-1.43-.03-2.22,1.24-2.22,1.24"/>
      <path class="cls-3" d="M37.18,35.21s-.43-2.43-3.93-2.18c-2.23.16-1.56,1.28-3.67,1.15s-4.04.72-4.04,2.28"/>
      <path class="cls-3" d="M28.07,31.57s-.73,2.01,1.52,2.6"/>
      <path class="cls-3" d="M16.02,27.93s-2.27-.89-1.69-3.1"/>
      <path class="cls-3" d="M10.78,23.04c.84-.58,1.23-.01,2.19-.12s-1.09-.72-.59-2.18"/>
      <path class="cls-3" d="M19.08,17.57c1.11.8.85,2.37-1.05,1.98-.74-.15-1.54-1.59-2.87-.55"/>
      <path class="cls-3" d="M24.09,14.22s-1.73,1.65-.3,2.51,2.43-1.36,2.43-1.36"/>
      <path class="cls-3" d="M22.28,17.96s1.41-.53,1.5-1.22"/>
      <path class="cls-3" d="M25.21,13.05s2.06-.21,2.13.96.16-2.08,1.59-2.3"/>
      <path class="cls-3" d="M31.73,11.23s.13.94-1.1.76"/>
      <path class="cls-3" d="M23.29,11.31s.66,1.12-.67,1c-1.51-.13-.92,1.69-.92,1.69"/>
      <path class="cls-3" d="M11.47,16.84s1.39.57,2.13-.36c.74-.93.54-1.81,2.13-1.91"/>
      <path class="cls-3" d="M14.66,21.24s1.36-1.24.05-2.65"/>
      <path class="cls-3" d="M21.1,23.79s1.2,2.34-.76,3.46c-2.38,1.37-2.66-2.72-2.66-2.72"/>
      <path class="cls-3" d="M9.87,28.48s1.77-.94,2.83-.31c1.19.71,2.21,3.01,4.83,1.78"/>
      <path class="cls-3" d="M10.23,26.53s2.33-.48,2.26,1.4"/>
      <path class="cls-3" d="M38.65,16.39s1.89.21,1.47,1.52"/>
      <path class="cls-3" d="M23.62,21.7s-.14,1.98,2.03,1.76"/>
    </g>
  </g>
</svg>