<?xml version="1.0" encoding="UTF-8"?>
<svg id="Layer_1" data-name="Layer 1" xmlns="http://www.w3.org/2000/svg" width="20mm" height="20mm" viewBox="0 0 56.69 56.69">
  <path d="M53.78,7.83H10.75c-1.62,0-2.93,1.3-2.93,2.92v8.82H2.92C1.31,19.56,0,20.87,0,22.48v21.51c0,2.68,2.19,4.88,4.88,4.88h46.93c2.69,0,4.88-2.2,4.88-4.88V10.75c0-1.62-1.31-2.92-2.92-2.92ZM7.82,43.99c0,.33-.05.64-.14.93-.05.13-.1.26-.17.4-.13.26-.31.51-.51.72-.06.07-.13.13-.2.19-.21.18-.45.34-.7.45-.09.04-.17.07-.26.1-.29.1-.6.16-.93.16h-.02c-1.63,0-2.95-1.32-2.95-2.95v-21.51c0-.55.45-.99.99-.99h4.9v22.5ZM44.35,20.81l.47-.12c.35-.08.53.05.71.38.31.53.97.92,1.82.92,1.07,0,1.72-.49,1.72-1.2,0-.59-.47-.99-1.2-1.25l-1.3-.46c-1.44-.47-2.34-1.42-2.34-2.57,0-1.67,1.44-2.69,3.17-2.69,1.45,0,2.5.68,2.97,1.74.16.34,0,.61-.37.7l-.43.12c-.34.11-.55-.02-.72-.34-.26-.51-.76-.74-1.44-.74-.76,0-1.42.4-1.42,1.12,0,.37.14.8,1.08,1.15l1.31.49c1.7.54,2.41,1.56,2.42,2.64,0,1.75-1.44,2.77-3.43,2.77-1.71,0-2.93-.78-3.42-1.96-.15-.35.04-.6.4-.68ZM13.64,14.52c0-.37.2-.57.56-.57h.35c.29,0,.53.11.7.35l4.28,5.82v-5.59c0-.37.19-.57.56-.57h.64c.36,0,.57.2.57.57v8.23c0,.37-.21.57-.57.57h-.34c-.29,0-.51-.11-.69-.36l-4.29-5.85v5.63c0,.37-.2.57-.57.57h-.64c-.36,0-.56-.2-.56-.57v-8.23ZM29.32,40.65c0,.77-.62,1.39-1.38,1.39h-12.87c-.77,0-1.39-.62-1.39-1.39v-10.92c0-.76.62-1.38,1.39-1.38h12.87c.76,0,1.38.62,1.38,1.38v10.92ZM29.79,14.86c0,.36-.2.57-.57.57h-3.83v2.57h3.26c.36,0,.57.19.57.56v.26c0,.37-.21.58-.57.58h-3.26v2.42h3.83c.37,0,.57.21.57.57v.35c0,.37-.2.57-.57.57h-5.03c-.37,0-.56-.2-.56-.57v-8.23c0-.37.19-.57.56-.57h5.03c.37,0,.57.2.57.57v.35ZM34.66,23.31h-.47c-.33,0-.54-.16-.63-.47l-2.58-8.26c-.12-.39.07-.64.47-.64h.63c.34,0,.53.16.63.47l1.81,5.93,1.74-5.61c.1-.32.32-.47.63-.47h.39c.33,0,.54.15.63.47l1.73,5.61,1.81-5.93c.1-.31.32-.47.63-.47h.63c.41,0,.59.25.47.64l-2.58,8.26c-.09.31-.31.47-.62.47h-.47c-.33,0-.54-.16-.63-.47l-1.79-5.85-1.8,5.85c-.09.31-.29.47-.62.47ZM49.37,42.04h-12.72c-.8,0-1.46-.66-1.46-1.47s.66-1.46,1.46-1.46h12.72c.8,0,1.46.66,1.46,1.46s-.66,1.47-1.46,1.47ZM49.37,36.66h-12.72c-.8,0-1.46-.66-1.46-1.47s.66-1.46,1.46-1.46h12.72c.8,0,1.46.66,1.46,1.46s-.66,1.47-1.46,1.47ZM49.37,31.28h-12.72c-.8,0-1.46-.66-1.46-1.47s.66-1.46,1.46-1.46h12.72c.8,0,1.46.66,1.46,1.46s-.66,1.47-1.46,1.47Z"/>
  <path d="M4.98,46.93h-.08c.33.01.63-.05.93-.15-.26.09-.55.14-.84.15ZM6.09,46.68c.25-.11.49-.26.7-.45-.21.17-.45.33-.7.45Z"/>
</svg>