<?xml version="1.0" encoding="UTF-8"?>
<svg id="Layer_1" data-name="Layer 1" xmlns="http://www.w3.org/2000/svg" viewBox="0 0 56.69 56.69">
  <defs>
    <style>
      .cls-1 {
        fill: #fff;
      }

      .cls-2 {
        fill: #296991;
      }
    </style>
  </defs>
  <rect class="cls-1" x="0" y="0" width="56.69" height="56.69" rx="3.5" ry="3.5"/>
  <g>
    <g>
      <g>
        <g id="Artwork_64x64" data-name="Artwork 64x64">
          <circle class="cls-2" cx="20.63" cy="12.55" r="3.51"/>
          <path class="cls-2" d="M22.69,16.93h-4.8c-1.4,0-2.55,1.94-2.55,3.3l.15,12.36v13.28c.04,1.19,1.03,2.12,2.22,2.09,1.1-.03,2-.89,2.08-1.99l.61-13.38.61,13.38c.09,1.19,1.12,2.08,2.31,1.99,1.1-.08,1.96-.98,1.99-2.08v-13.28l-.32-12.69c.06-1.47-.68-2.97-2.31-2.97Z"/>
        </g>
        <path class="cls-2" d="M10.3,28.93l5.45-10.81c1.35-2.53,5.11-.64,3.89,1.96,0,0-5.62,10.75-5.62,10.76-1.32,2.39-4.89.57-3.72-1.91h0Z"/>
        <path class="cls-2" d="M28.13,31.28l-7.06-10.96c-1.49-2.45,2.04-4.73,3.66-2.36,0,0,6.92,11.07,6.93,11.07,1.39,2.35-1.99,4.51-3.53,2.24h0Z"/>
      </g>
      <path class="cls-2" d="M13.86,38.02l1.77-11.43,9.57-.1,1.82,11.56c.03.84-.64,1.54-1.48,1.54h-10.21c-.85,0-1.53-.72-1.48-1.57Z"/>
    </g>
    <g>
      <g id="Artwork_64x64-2" data-name="Artwork 64x64">
        <circle class="cls-2" cx="39.05" cy="22.15" r="3.1"/>
        <path class="cls-2" d="M35.96,26.01h5.16c1.09,0,2,1.52,2,2.58l-.12,6.86v10.39c-.03.93-.8,1.66-1.73,1.63-.86-.03-1.57-.7-1.63-1.56l-.42-9.17-.54,9.17c-.07.93-.88,1.62-1.81,1.55-.86-.06-1.53-.77-1.56-1.63v-10.39s-.47-7.08-.47-7.08c-.04-1.15-.15-2.35,1.13-2.35Z"/>
      </g>
      <path class="cls-2" d="M44.17,36.71l-4.57-8.07c-1.07-1.96,1.82-3.61,2.96-1.68,0,0,4.46,8.15,4.47,8.16.99,1.88-1.77,3.43-2.85,1.59h0Z"/>
      <path class="cls-2" d="M29.04,29.4l5.98-3.11c2-1,3.54,1.95,1.57,3.02-.01.01-6.05,2.99-6.07,3-1.92.91-3.35-1.9-1.48-2.91h0Z"/>
    </g>
  </g>
</svg>