<?xml version="1.0" encoding="UTF-8"?>
<svg id="Layer_1" data-name="Layer 1" xmlns="http://www.w3.org/2000/svg" viewBox="0 0 56.69 56.69">
  <defs>
    <style>
      .cls-1 {
        fill: #fff;
      }

      .cls-2 {
        fill: #8bb4c9;
      }

      .cls-3 {
        fill: #296991;
      }

      .cls-4 {
        fill: #57a77b;
      }
    </style>
  </defs>
  <path class="cls-4" d="M22.02,47.67l.04-14.63c.11-3.83,5.73-3.82,5.82.02.01.29-.92,14.51-.92,14.77-.27,3.16-4.88,3-4.94-.16h0Z"/>
  <path class="cls-4" d="M27.68,47.83l-.92-14.6c-.14-3.83,5.47-4.19,5.81-.36.03.28.03,14.54.05,14.8-.06,3.17-4.67,3.32-4.94.16h0Z"/>
  <g>
    <rect class="cls-1" x="0" width="56.69" height="56.69" rx="3.5" ry="3.5"/>
    <g>
      <g id="Artwork_64x64" data-name="Artwork 64x64">
        <circle class="cls-3" cx="28.08" cy="13.93" r="3.49"/>
        <path class="cls-3" d="M31.04,18.43h-7.6c-1.39,0-1.12,1.93-1.12,3.28l.15,12.29v13.2c.03,1.18,1.02,2.11,2.2,2.08,1.1-.03,1.99-.89,2.07-1.98l.61-13.3.61,13.3c.09,1.18,1.12,2.06,2.3,1.97,1.09-.08,1.95-.98,1.98-2.07v-13.2l.6-12.58c.06-1.46-.18-2.99-1.79-2.99Z"/>
      </g>
      <path class="cls-3" d="M17.19,32.12l3.67-11.87c1.1-3.26,5.93-1.78,4.99,1.55-.02.07-.05.14-.08.21l-4.68,11.51c-1.04,2.42-4.63,1.13-3.91-1.4h0Z"/>
      <path class="cls-3" d="M35,13.92l5.42,6.78c.83,1.04.66,2.56-.38,3.39-.58.47-1.29.6-1.98.49,0,0-7.15-.75-7.15-.75-3.53-.46-2.99-5.65.57-5.37.05,0,.12.01.17.02l7.08,1.2-2.35,3.88-4.6-7.36c-1.28-2.1,1.68-4.18,3.22-2.28h0Z"/>
      <path class="cls-2" d="M28.8,3.86l-.79,2.85-.79-1.02,2.02-.32h.08c.57-.12,1.01.56.7,1.03,0,0-1.82,3.01-1.82,3.01-.09.15-.29.2-.45.11-.13-.08-.19-.24-.14-.38l1.06-3.35.79,1.03-2.02.32-.1.02c-.56.11-1-.57-.69-1.04,0,0,1.55-2.52,1.55-2.52.19-.32.71-.09.6.26h0Z"/>
      <path class="cls-2" d="M35.5,6.48l-2.36,1.78v-1.29s1.8.98,1.8.98l.07.04c.52.26.46,1.07-.08,1.26,0,0-3.27,1.29-3.27,1.29-.35.15-.62-.36-.31-.57,0,0,2.88-2.02,2.88-2.02v1.3s-1.8-.98-1.8-.98l-.09-.05c-.51-.26-.45-1.06.08-1.25,0,0,2.76-1.06,2.76-1.06.34-.14.62.36.32.57h0Z"/>
      <path class="cls-2" d="M21.1,6.62l1.78,2.36h-1.29s.98-1.8.98-1.8l.04-.07c.26-.52,1.07-.46,1.26.08,0,0,1.29,3.27,1.29,3.27.15.34-.36.62-.57.31,0,0-2.02-2.88-2.02-2.88h1.3s-.98,1.8-.98,1.8l-.05.09c-.26.51-1.06.45-1.25-.08,0,0-1.06-2.76-1.06-2.76-.14-.34.36-.62.57-.32h0Z"/>
    </g>
  </g>
</svg>