<?xml version="1.0" encoding="UTF-8"?>
<svg id="Layer_1" data-name="Layer 1" xmlns="http://www.w3.org/2000/svg" viewBox="0 0 56.69 56.69">
  <defs>
    <style>
      .cls-1 {
        fill: #fff;
      }

      .cls-2 {
        fill: #778558;
      }

      .cls-3 {
        fill: #b9c3a9;
      }
    </style>
  </defs>
  <path class="cls-1" d="M30.07.44l1.04.56c15.97,8.7,25.73,25.61,25.28,43.79l-.03,1.18c-.03,1.23-.68,2.35-1.73,2.99l-1.01.61c-15.52,9.48-35.04,9.48-50.57,0l-1.01-.61c-1.05-.64-1.7-1.77-1.73-2.99l-.03-1.18C-.15,26.61,9.61,9.71,25.58,1l1.04-.56c1.08-.59,2.38-.59,3.46,0Z"/>
  <g>
    <path class="cls-3" d="M36.5,36.59c4.69-3.17,4.57-9.55,3.28-14.1s-4.71-8.2-7.75-10.71c-2.54-2.1-3.28-.49-3.21,7.27.06,6.91-6.01,9.64-3.44,15.29,2.57,5.65,7.5,4.42,6.89,3.7-.61-.72-1.39-4.22.38-10.09,1.71-5.66-.85-10.53.3-8.16,1,2.07,1.35,3.43.58,9.58-.91,7.24.78,8.7,2.98,7.22Z"/>
    <path class="cls-2" d="M25.54,48.45c0-.81.12-5.85-2.18-5.46-4.92.83-7.96-2.26-10.48-5.58-2.52-3.32-3.24-9.14-2.77-12.58.68-5.01,2.91-6.76,7.54.1,2.2,3.26,9.97,2.98,11.77,8.14,1.8,5.17-2.05,9.57-2.09,8.74-.05-.83-.9-4.59-5.64-7.2-3.4-1.87-7.55-7.93-6.42-4.92.71,1.9,3.07,3.98,7.29,7.43,4.98,4.07,4.27,11.37,4.27,11.37-.01.92-1.32.77-1.31-.04Z"/>
    <path class="cls-2" d="M29.21,44.8c-.77-4.06,2.63-7.23,5.62-8.96,3.68-2.13,6.68-1.78,9.55-1.5,2.4.24,1.74,1.26-2.12,5.41-2.22,2.39-1.91,8.08-6.16,9.66-4.25,1.58-6.15-1.61-5.46-1.67.69-.05,2.81-.72,4.95-4.66,2.06-3.8,5.99-5.72,4.17-5.09-1.59.55-2.47,1.07-5.26,4.63-3.29,4.2-4.92,4.07-5.28,2.17Z"/>
  </g>
</svg>