<?xml version="1.0" encoding="UTF-8"?>
<svg id="Layer_1" data-name="Layer 1" xmlns="http://www.w3.org/2000/svg" viewBox="0 0 56.69 56.69">
  <defs>
    <style>
      .cls-1 {
        fill: #fff;
      }

      .cls-2 {
        fill: #5190b0;
      }

      .cls-3 {
        fill: #8bb4c9;
      }

      .cls-4 {
        fill: #296991;
      }
    </style>
  </defs>
  <rect class="cls-1" width="56.69" height="56.69" rx="3.5" ry="3.5"/>
  <g id="Artwork_64x64" data-name="Artwork 64x64">
    <path class="cls-3" d="M45.67,23.03h-1.84c-2.04,0-3.69,1.65-3.69,3.69h0v5.07c0,.76.62,1.38,1.38,1.38h0l1.21,8.95c.09.69.68,1.2,1.37,1.2h1.28c.69,0,1.28-.51,1.37-1.19l1.22-8.95c.76,0,1.38-.62,1.38-1.38v-5.07c0-2.04-1.65-3.69-3.69-3.69h0Z"/>
    <circle class="cls-3" cx="44.75" cy="19.81" r="2.31"/>
    <path class="cls-2" d="M38.18,22.7h-2.11c-2.33,0-4.22,1.89-4.22,4.22h0v5.8c0,.87.71,1.58,1.58,1.58h0l1.39,10.22c.11.78.77,1.37,1.56,1.37h1.46c.79,0,1.46-.58,1.57-1.36l1.39-10.23c.87,0,1.58-.71,1.58-1.58v-5.8c0-2.33-1.89-4.22-4.22-4.22h0Z"/>
    <circle class="cls-2" cx="37.13" cy="19.01" r="2.64"/>
    <path class="cls-3" d="M12.86,23.03h-1.84c-2.04,0-3.69,1.65-3.69,3.69h0v5.07c0,.76.62,1.38,1.38,1.38h0l1.21,8.95c.09.69.68,1.2,1.37,1.2h1.28c.69,0,1.28-.51,1.37-1.19l1.22-8.95c.76,0,1.38-.62,1.38-1.38v-5.07c0-2.04-1.65-3.69-3.69-3.69h0Z"/>
    <circle class="cls-3" cx="11.94" cy="19.81" r="2.31"/>
    <path class="cls-2" d="M20.62,22.7h-2.11c-2.33,0-4.22,1.89-4.22,4.22h0v5.8c0,.87.71,1.58,1.58,1.58h0l1.39,10.22c.11.78.77,1.37,1.56,1.37h1.46c.79,0,1.46-.58,1.57-1.36l1.39-10.23c.87,0,1.58-.71,1.58-1.58h0v-5.8c0-2.33-1.89-4.22-4.22-4.22h0Z"/>
    <circle class="cls-2" cx="19.56" cy="19.01" r="2.64"/>
    <path class="cls-4" d="M29.52,21.76h-2.34c-2.59,0-4.68,2.1-4.68,4.68v6.44c0,.97.79,1.76,1.76,1.76l1.54,11.36c.12.88.87,1.53,1.76,1.52h1.63c.88,0,1.64-.64,1.76-1.52l1.52-11.37c.97,0,1.76-.79,1.76-1.76v-6.44c0-2.59-2.1-4.68-4.68-4.68Z"/>
    <circle class="cls-4" cx="28.35" cy="17.66" r="2.93"/>
  </g>
</svg>