<?xml version="1.0" encoding="UTF-8"?>
<svg id="Layer_1" data-name="Layer 1" xmlns="http://www.w3.org/2000/svg" width="20mm" height="20mm" viewBox="0 0 56.69 56.69">
  <defs>
    <style>
      .cls-1 {
        fill-rule: evenodd;
      }

      .cls-1, .cls-2 {
        fill: #0a2e4d;
      }
    </style>
  </defs>
  <path class="cls-1" d="M37.3,42.22c-.35-.6-.78-1.24-1.08-1.61-.55.05-1.12.08-1.69.09v4.17c1.3-.18,2.56-.44,3.78-.75l-1.01-1.9ZM28.35,7.36C12.69,7.36,0,15.86,0,26.35,0,35.33,9.33,42.86,21.86,44.83v-5.85c-6.41-2.24-10.72-6.43-10.72-11.22,0-7.16,9.65-12.97,21.55-12.97s20.68,3.97,20.68,12.97c0,4.32-2.01,7.48-5.43,9.59.14.12.28.25.41.39.48.51.75,1.01.86,1.23l.09.16c4.59-3.38,7.39-7.86,7.39-12.78,0-10.49-12.69-18.99-28.34-18.99Z"/>
  <path class="cls-2" d="M48.07,39.98l-.18-.3s-.21-.46-.63-.91c-.23-.24-.5-.45-.76-.62-.23-.16-.45-.28-.62-.36-.99-.51-2.71-1.02-2.71-1.02,0,0,8.45-.63,8.45-9.04s-8.84-8.58-8.84-8.58h-19.42v31.93h9.67v-12.5h2.59c.54,0,.76.15,1.3.59.31.25.72.79,1.05,1.29.36.54.64,1.02.64,1.02l1.19,2.23,3.92,7.37h10.93l-6.58-11.1ZM38.97,31.5h-5.86v-5.43h5.86s.02.01.06.01c.43,0,2.65.12,2.65,2.66,0,2.75-2.71,2.76-2.71,2.76Z"/>
</svg>