<?xml version="1.0" encoding="UTF-8"?>
<svg id="Layer_1" data-name="Layer 1" xmlns="http://www.w3.org/2000/svg" viewBox="0 0 56.69 56.69">
  <defs>
    <style>
      .cls-1 {
        fill: #fff;
      }

      .cls-2 {
        stroke: #b9c3a9;
        stroke-linecap: round;
        stroke-linejoin: round;
        stroke-width: 1.44px;
      }

      .cls-2, .cls-3 {
        fill: none;
      }

      .cls-4 {
        fill: #778558;
      }

      .cls-5 {
        fill: #57a77b;
      }

      .cls-6 {
        fill: #9fcdb4;
      }

      .cls-7 {
        fill: #b9c3a9;
      }
    </style>
  </defs>
  <path class="cls-1" d="M30.07.44l1.04.56c15.97,8.7,25.73,25.61,25.28,43.79l-.03,1.18c-.03,1.23-.68,2.35-1.73,2.99l-1.01.61c-15.52,9.48-35.04,9.48-50.57,0l-1.01-.61c-1.05-.64-1.7-1.77-1.73-2.99l-.03-1.18C-.15,26.61,9.61,9.71,25.58,1l1.04-.56c1.08-.59,2.38-.59,3.46,0Z"/>
  <g>
    <circle class="cls-7" cx="40.14" cy="25.77" r="1.72"/>
    <circle class="cls-7" cx="36.74" cy="18.71" r="1.31"/>
    <circle class="cls-7" cx="20.65" cy="25.63" r="1.31"/>
    <path class="cls-4" d="M16.15,13.8c0-.42.28-.8.68-.91,2.23-.66,9.21-2.71,10.1-2.94,1.06-.27,4.62-.82,4.59,2.67,0,.83,0,1.41,0,1.81s-.31.7-.7.7h-3.07c-.38,0-.7-.31-.7-.69v-.28c0-.42-.45-.7-.83-.53l-8.68,4.31c-.63.32-1.38-.15-1.38-.85v-3.28Z"/>
    <line class="cls-2" x1="27.45" y1="16.78" x2="26.14" y2="22.7"/>
    <line class="cls-2" x1="31.18" y1="16.76" x2="32.39" y2="22.68"/>
    <line class="cls-2" x1="29.31" y1="16.36" x2="29.31" y2="24.05"/>
    <path class="cls-4" d="M42.21,35.48v6.84c0,.38-.27.71-.65.77-1.03.16-1.95.57-2.86.99-.14.07-.29.14-.45.21-.26.13-.53.24-.79.35-.21.08-.41.16-.62.23-.6.21-1.23.34-1.9.34h-.14c-.1,0-.35,0-.7,0-1.69,0-5.87.03-9.14.03h-.41c-.67,0-1.29,0-1.83,0-.31,0-.59,0-.84,0-.71,0-1.27-.59-1.27-1.3,0-.37.16-.72.41-.94h7.78c.22,0,.4-.18.4-.4s-.18-.4-.4-.4h-8.73c-.21-.23-.33-.53-.33-.86v-.19c0-.39.17-.73.44-.96h7.9c.22,0,.4-.18.4-.4s-.18-.4-.4-.4h-9.26c-.21-.22-.32-.52-.32-.84v-.37c0-.41.19-.78.49-1.01h9.8c.22,0,.4-.18.4-.4s-.18-.4-.4-.4h-7.87c-.05-.06-.09-.11-.12-.18-.1-.18-.15-.39-.15-.61v-.18c0-.27.08-.52.21-.72.23-.34.62-.57,1.07-.57.6,0,1.35,0,2.17,0,.22,0,.45,0,.69,0s.45,0,.68,0c.53,0,1.06,0,1.57,0h1.15c.49,0,.94,0,1.34,0,.21,0,.4,0,.57,0,.37,0,.68,0,.88,0,.09,0,.16,0,.21,0h.02c.22,0,.06-.2-.29-.5-.1-.09-.23-.18-.37-.29-.14-.11-.28-.22-.44-.33h0c-.1-.07-.21-.15-.32-.23-.06-.04-.11-.08-.17-.12-.18-.12-.34-.24-.52-.37-.74-.53-1.47-1.03-1.81-1.34-.68-.6-.33-1.73.14-2.18.06-.06.12-.1.18-.14.02-.02.06-.03.09-.04.03,0,.06-.02.09-.02.02,0,.03,0,.05,0,.05,0,.09,0,.14.02.85.4,5.9,3.53,8.98,5.1.98.5,1.76.84,2.13.89.1.02.21.02.32.04.42.04.85.07,1.24.08.29.02.56.02.79.02.43,0,.78.35.78.78Z"/>
    <path class="cls-6" d="M27.98,28.57s-.09-.02-.14-.02c-.02,0-.03,0-.05,0,0,0,0,0-.02,0,.07,0,.14,0,.2.02Z"/>
    <g>
      <path class="cls-4" d="M26.73,46.82l-2.12,2.23s-.06.06-.06.1c-.02,0-.06,0-.09,0-.16,0-.31-.03-.46-.09-.14-.06-.29-.14-.41-.26l-.2-.18c-.51-.49-.52-1.31-.02-1.81h3.35Z"/>
      <path class="cls-4" d="M30.83,46.8l-2.94,3.38h-.02c-.19.08-.39.12-.58.12-.4,0-.8-.15-1.1-.45l-.06-.06c-.11-.11-.2-.24-.25-.37-.03-.07-.06-.14-.07-.21-.02-.07-.02-.14-.03-.22l2.07-2.16c.99,0,1.98,0,2.9,0h.1Z"/>
      <path class="cls-4" d="M35.4,46.77l-3.86,3.86c-.25.25-.54.37-.85.37-.33,0-.67-.14-.96-.41-.08-.07-.15-.15-.21-.23-.05-.06-.09-.13-.13-.2,0,0,0,0,0-.02-.02-.02-.02-.06-.04-.1-.02-.03-.02-.07-.04-.11,0,0,0-.02,0-.04,0-.03-.02-.06-.02-.1l2.61-3.01h0c.92,0,1.68,0,2.21,0,.33,0,.56,0,.65,0h.18c.16,0,.31,0,.46-.02Z"/>
    </g>
    <g>
      <path class="cls-5" d="M27.98,28.57s-.09-.02-.14-.02c-.02,0-.03,0-.05,0-.02,0-.06,0-.09.02.02-.02.04-.02.06-.02h.02c.07,0,.14,0,.2.02Z"/>
      <path class="cls-6" d="M27.78,28.55h-.02s-.04,0-.06.02c.03,0,.06-.02.09-.02,0,0,0,0-.02,0ZM27.78,28.55h-.02s-.04,0-.06.02c.03,0,.06-.02.09-.02.02,0,.03,0,.05,0,.05,0,.09,0,.14.02-.06-.03-.13-.03-.2-.02ZM27.78,28.55h-.02s-.04,0-.06.02c.03,0,.06-.02.09-.02.02,0,.03,0,.05,0,.05,0,.09,0,.14.02-.06-.03-.13-.03-.2-.02ZM27.78,28.55h-.02s-.04,0-.06.02c.03,0,.06-.02.09-.02.02,0,.03,0,.05,0,.05,0,.09,0,.14.02-.06-.03-.13-.03-.2-.02ZM27.78,28.55h-.02s-.04,0-.06.02c.03,0,.06-.02.09-.02.02,0,.03,0,.05,0,.05,0,.09,0,.14.02-.06-.03-.13-.03-.2-.02ZM27.78,28.55h-.02s-.04,0-.06.02c.03,0,.06-.02.09-.02.02,0,.03,0,.05,0,.05,0,.09,0,.14.02-.06-.03-.13-.03-.2-.02ZM27.78,28.55h-.02s-.04,0-.06.02c.03,0,.06-.02.09-.02.02,0,.03,0,.05,0,.05,0,.09,0,.14.02-.06-.03-.13-.03-.2-.02Z"/>
    </g>
    <g>
      <line class="cls-3" x1="27.66" y1="46.42" x2="27.28" y2="46.81"/>
      <line class="cls-3" x1="25.99" y1="48.17" x2="24.9" y2="49.32"/>
      <path class="cls-7" d="M41.43,33.11c-.56,0-1.38-.02-2.15-.12-.32-.06-1.03-.41-1.93-.89,0-.02,0-.04,0-.06,0-1.93-1.58-3.51-3.52-3.51-.18,0-.37,0-.53.04-.41-1.7-1.97-2.97-3.8-2.97s-3.25,1.16-3.74,2.76c-.07.14-.14.29-.2.44-.07.2-.14.39-.17.59-.32-.11-.67-.18-1.03-.18-1.76,0-3.18,1.42-3.18,3.17,0,.07,0,.15,0,.22-1.23.32-2.14,1.44-2.15,2.77-1.24.33-2.16,1.46-2.16,2.79v.37c0,.98.49,1.85,1.24,2.37,0,.07,0,.15,0,.22v.19c0,.83.35,1.58.92,2.1-.02.16-.04.33-.04.49,0,1.47,1.11,2.7,2.55,2.86-.1.3-.15.63-.15.96.02.77.33,1.49.88,2.03l.2.18c.53.51,1.23.79,1.97.79.13,0,.25,0,.37-.02.06.06.11.13.18.19l.06.06c.59.59,1.38.92,2.22.92.43,0,.84-.09,1.23-.25.04.05.1.1.14.14.58.52,1.3.8,2.02.8s1.44-.29,1.97-.84l5.78-5.77s.04-.04.05-.06h0c.25-.11.51-.23.75-.34.88-.41,1.71-.79,2.56-.92,1.16-.18,2-1.16,2-2.34v-6.84c0-1.31-1.06-2.37-2.37-2.37ZM24.61,49.05s-.06.06-.06.1c-.02,0-.06,0-.09,0-.16,0-.31-.03-.46-.09-.14-.06-.29-.14-.41-.26l-.2-.18c-.51-.49-.52-1.31-.02-1.81h3.35l-2.12,2.23ZM27.89,50.18h-.02c-.19.08-.39.12-.58.12-.4,0-.8-.15-1.1-.45l-.06-.06c-.11-.11-.2-.24-.25-.37-.03-.07-.06-.14-.07-.21-.02-.07-.02-.14-.03-.22l2.07-2.16c.99,0,1.98,0,2.9,0h.1l-2.94,3.38ZM31.54,50.63c-.25.25-.54.37-.85.37-.33,0-.67-.14-.96-.41-.08-.07-.15-.15-.21-.23-.05-.06-.09-.13-.13-.2,0,0,0,0,0-.02-.02-.02-.02-.06-.04-.1-.02-.03-.02-.07-.04-.11,0,0,0-.02,0-.04,0-.03-.02-.06-.02-.1l2.61-3.01h0c.92,0,1.68,0,2.21,0,.33,0,.56,0,.65,0h.18c.16,0,.31,0,.46-.02l-3.86,3.86ZM42.21,42.31c0,.38-.27.71-.65.77-1.03.16-1.95.57-2.86.99-.14.07-.29.14-.45.21-.26.13-.53.24-.79.35-.21.08-.41.16-.62.23-.6.21-1.23.34-1.9.34h-.14c-.1,0-.35,0-.7,0-1.69,0-5.87.03-9.14.03h-.41c-.67,0-1.29,0-1.83,0-.31,0-.59,0-.84,0-.71,0-1.27-.59-1.27-1.3,0-.37.16-.72.41-.94h7.78c.22,0,.4-.18.4-.4s-.18-.4-.4-.4h-8.73c-.21-.23-.33-.53-.33-.86v-.19c0-.39.17-.73.44-.96h7.9c.22,0,.4-.18.4-.4s-.18-.4-.4-.4h-9.26c-.21-.22-.32-.52-.32-.84v-.37c0-.41.19-.78.49-1.01h9.8c.22,0,.4-.18.4-.4s-.18-.4-.4-.4h-7.87c-.05-.06-.09-.11-.12-.18-.1-.18-.16-.39-.16-.61v-.18c0-.27.08-.52.22-.72.23-.34.62-.57,1.07-.57.6,0,1.35,0,2.17,0,.22,0,.45,0,.69,0s.45,0,.68,0c.53,0,1.06,0,1.57,0h1.15c.49,0,.94,0,1.34,0,.21,0,.4,0,.57,0,.37,0,.68,0,.88,0,.09,0,.16,0,.21,0h.02c.22,0,.06-.2-.29-.5-.1-.09-.23-.18-.37-.29-.14-.1-.28-.21-.44-.33h0c-.1-.07-.21-.15-.32-.23-.06-.04-.11-.08-.17-.12-.18-.12-.34-.24-.52-.37-.74-.53-1.47-1.03-1.81-1.34-.68-.6-.33-1.73.14-2.18.06-.06.12-.1.18-.14.03-.02.06-.04.09-.04.02-.02.04-.02.06-.02h.02c.07,0,.14,0,.2.02.85.4,5.9,3.53,8.98,5.1.98.5,1.76.84,2.13.89.1.02.21.02.32.04.42.04.85.07,1.24.08.29.02.56.02.79.02.43,0,.78.35.78.78v6.84Z"/>
    </g>
    <g>
      <line class="cls-3" x1="31.89" y1="46.19" x2="31.36" y2="46.8"/>
      <line class="cls-3" x1="29.3" y1="49.17" x2="27.79" y2="50.9"/>
    </g>
  </g>
</svg>