<?xml version="1.0" encoding="UTF-8"?>
<svg id="Layer_1" data-name="Layer 1" xmlns="http://www.w3.org/2000/svg" viewBox="0 0 56.69 56.69">
  <defs>
    <style>
      .cls-1 {
        fill: #c75e70;
      }

      .cls-2 {
        fill: #fff;
      }

      .cls-3 {
        fill: #ebabb7;
      }
    </style>
  </defs>
  <circle class="cls-2" cx="28.35" cy="28.35" r="28.35"/>
  <g id="Artwork_64x64" data-name="Artwork 64x64">
    <rect class="cls-1" x="14.76" y="33.29" width="4.94" height="8.64"/>
    <rect class="cls-1" x="29.58" y="30.82" width="4.94" height="11.11"/>
    <rect class="cls-1" x="22.17" y="27.11" width="4.94" height="14.82"/>
    <rect class="cls-1" x="36.99" y="23.41" width="4.94" height="18.52"/>
    <polygon class="cls-3" points="17.83 26.59 16.64 25.17 24.51 18.6 31.87 22.28 38.8 15.35 40.11 16.65 32.24 24.54 24.77 20.8 17.83 26.59"/>
    <circle class="cls-1" cx="39.46" cy="16" r="2.47"/>
    <circle class="cls-1" cx="32.05" cy="23.41" r="2.47"/>
    <circle class="cls-1" cx="24.64" cy="19.7" r="2.47"/>
    <circle class="cls-1" cx="17.23" cy="25.88" r="2.47"/>
    <path class="cls-3" d="M44.71,43.16H11.99c-.51,0-.93-.41-.93-.93s.41-.93.93-.93h32.72c.51,0,.93.41.93.93s-.41.93-.93.93Z"/>
  </g>
</svg>