<?xml version="1.0" encoding="UTF-8"?>
<svg id="Layer_1" data-name="Layer 1" xmlns="http://www.w3.org/2000/svg" viewBox="0 0 56.69 56.69">
  <defs>
    <style>
      .cls-1 {
        fill: #b9c3a9;
      }

      .cls-1, .cls-2, .cls-3, .cls-4 {
        fill-rule: evenodd;
      }

      .cls-5 {
        fill: #fff;
      }

      .cls-2, .cls-3 {
        fill: #778558;
      }

      .cls-3 {
        stroke: #778558;
        stroke-linecap: round;
        stroke-linejoin: round;
        stroke-width: .67px;
      }

      .cls-4 {
        fill: #d6dbcd;
      }
    </style>
  </defs>
  <path class="cls-5" d="M30.07.44l1.04.56c15.97,8.7,25.73,25.61,25.28,43.79l-.03,1.18c-.03,1.23-.68,2.35-1.73,2.99l-1.01.61c-15.52,9.48-35.04,9.48-50.57,0l-1.01-.61c-1.05-.64-1.7-1.77-1.73-2.99l-.03-1.18C-.15,26.61,9.61,9.71,25.58,1l1.04-.56c1.08-.59,2.38-.59,3.46,0Z"/>
  <g>
    <g>
      <path class="cls-4" d="M26.93,29.28h2.83c.22,0,.4.18.4.4v2.83c0,.22-.18.4-.4.4h-2.83c-.22,0-.4-.18-.4-.4v-2.83c0-.22.18-.4.4-.4h0Z"/>
      <polygon class="cls-1" points="30.24 53.56 29.87 47.73 29.33 32.9 27.35 32.9 26.81 47.73 26.45 53.56 30.24 53.56"/>
    </g>
    <g>
      <path class="cls-1" d="M29.12,32.14c.43.25.87.5,1.3.75l.61-.9-1.38-.79s-.08,0-.09.05c-.09.65-.66.77-.44.89h0Z"/>
      <path class="cls-1" d="M28.77,29.73c0-.5,0-1,0-1.5l-1.08-.08v1.59c0,.05.05.07.09.05.61-.25.99.19.99-.07h0Z"/>
      <path class="cls-1" d="M26.86,31.24c-.43.25-.87.5-1.3.75l.48.97,1.38-.8c.05-.02.04-.08,0-.1-.52-.4-.33-.95-.56-.82h0Z"/>
      <path class="cls-3" d="M26,32.88l-.39-.8c-.28.23-3.18-1.64-6.43.8-3.13,2.35-7.12,7.23-10.6,9.89-.03.02-.04.05-.05.08,0,.03,0,.07.03.09l.2.25c.04.05.11.06.16.03l17.08-10.35h0Z"/>
      <path class="cls-3" d="M27.78,28.16l.89.06c-.06-.36,3.01-1.94,2.53-5.97-.47-3.88-2.7-9.79-3.26-14.12,0-.03-.02-.06-.05-.08-.03-.02-.06-.03-.09-.02l-.32.04c-.06,0-.11.06-.11.13l.41,19.96h0Z"/>
      <path class="cls-3" d="M30.97,32.08l-.5.74c.34.13.18,3.57,3.91,5.16,3.6,1.53,9.83,2.54,13.87,4.21.03.01.06.01.1,0,.03-.01.06-.04.07-.07l.12-.3c.02-.06,0-.13-.06-.16l-17.52-9.59h0Z"/>
      <path class="cls-2" d="M27.55,29.61c.8-.44,1.81-.14,2.24.66s.14,1.81-.66,2.24-1.81.14-2.24-.66c-.44-.8-.14-1.81.66-2.24h0Z"/>
    </g>
  </g>
</svg>