<?xml version="1.0" encoding="UTF-8"?>
<svg id="Layer_1" data-name="Layer 1" xmlns="http://www.w3.org/2000/svg" viewBox="0 0 56.69 56.69">
  <defs>
    <style>
      .cls-1 {
        fill: #fff;
      }

      .cls-2 {
        fill: #778558;
      }

      .cls-3 {
        fill: #96a57f;
      }

      .cls-4 {
        fill: #d6dbcd;
      }
    </style>
  </defs>
  <path class="cls-1" d="M30.15.46h0c16.66,9.08,26.85,26.72,26.38,45.69h0c-.03,1.28-.71,2.46-1.8,3.12h0c-16.2,9.89-36.56,9.89-52.76,0h0c-1.09-.67-1.77-1.84-1.8-3.12h0C-.31,27.18,9.88,9.54,26.54.46h0c1.12-.61,2.48-.61,3.61,0Z"/>
  <g>
    <g id="Artwork_64x64" data-name="Artwork 64x64">
      <path class="cls-4" d="M14.96,14.07v35.79c0,.76.62,1.38,1.38,1.38h24.87c.76,0,1.38-.62,1.38-1.38v-28.9l-8.29-8.26h-17.96c-.76,0-1.38.62-1.38,1.38Z"/>
      <path class="cls-3" d="M35.68,20.95h6.91l-8.29-8.26v6.88c0,.76.62,1.38,1.38,1.38Z"/>
      <path class="cls-3" d="M24.1,28.48h6.91c.57,0,1.04-.46,1.04-1.03s-.46-1.03-1.04-1.03h-6.91c-.57,0-1.04.46-1.04,1.03s.46,1.03,1.04,1.03Z"/>
      <path class="cls-3" d="M18.8,17.85h6.91c.57,0,1.04-.46,1.04-1.03s-.46-1.03-1.04-1.03h-6.91c-.57,0-1.04.46-1.04,1.03s.46,1.03,1.04,1.03Z"/>
      <path class="cls-3" d="M24.1,36.05h8.44c.57,0,1.04-.46,1.04-1.03s-.46-1.03-1.04-1.03h-8.44c-.57,0-1.04.46-1.04,1.03s.46,1.03,1.04,1.03Z"/>
      <path class="cls-3" d="M32.54,41.55h-8.44c-.57,0-1.04.46-1.04,1.03s.46,1.03,1.04,1.03h8.44c.57,0,1.04-.46,1.04-1.03s-.46-1.03-1.04-1.03Z"/>
      <path class="cls-2" d="M38.33,25.2l-1.38,1.36-.59-.59c-.33-.32-.85-.32-1.18,0-.32.32-.33.84,0,1.16,0,0,0,0,0,0l1.18,1.17c.15.16.37.24.59.24.22,0,.43-.08.59-.24l1.96-1.95c.32-.32.32-.85,0-1.17-.32-.32-.84-.33-1.17,0,0,0,0,0,0,0Z"/>
      <path class="cls-2" d="M38.33,32.94l-1.38,1.37-.59-.59c-.34-.31-.86-.29-1.18.04-.3.32-.3.81,0,1.13l1.18,1.17c.16.15.37.24.59.24.22,0,.43-.09.59-.24l1.96-1.96c.31-.33.29-.86-.04-1.17-.32-.3-.81-.3-1.13,0Z"/>
      <path class="cls-2" d="M38.33,40.68l-1.38,1.36-.59-.59c-.33-.32-.85-.32-1.18,0-.32.32-.33.84,0,1.16,0,0,0,0,0,0l1.18,1.17c.32.32.85.32,1.18,0l1.96-1.95c.32-.32.32-.85,0-1.17-.32-.32-.84-.33-1.17,0,0,0,0,0,0,0Z"/>
    </g>
    <g>
      <path class="cls-2" d="M21.09,24.83h-.39c-.11,0-.19.09-.19.19v.6l-.95-.95c-.11-.11-.3-.11-.41,0l-1.72,1.72v2.4c0,.16.13.29.29.29h3.27c.16,0,.29-.13.29-.29v-3.77c0-.11-.09-.19-.19-.19Z"/>
      <path class="cls-3" d="M21.56,26.96l-2.07-2.07c-.08-.07-.2-.07-.27,0l-2.07,2.07c-.06.06-.15.06-.2,0l-.07-.07c-.06-.06-.06-.15,0-.2l2.07-2.07c.23-.22.59-.22.82,0l2.07,2.07c.06.06.06.15,0,.2l-.07.07c-.06.06-.15.06-.2,0Z"/>
    </g>
    <g>
      <g>
        <path class="cls-2" d="M19.35,32.52l-1.86.61c-.07.02-.11.08-.11.15,0,.41,0,.88,0,.88,0,2.31,1.97,2.92,1.97,2.92,0,0,1.97-.61,1.97-2.92,0-.32,0-.55,0-.88,0-.07-.05-.13-.11-.16l-1.86-.61Z"/>
        <path class="cls-2" d="M19.35,32.52h0c0,.43,0,4.57,0,4.57h0s1.97-.61,1.97-2.92c0-.32,0-.55,0-.88,0-.07-.05-.13-.11-.16l-1.86-.61Z"/>
      </g>
      <path class="cls-4" d="M18.84,35.54l-.67-.67c-.06-.06-.06-.15,0-.21l.1-.1c.06-.06.15-.06.21,0l.47.46,1.29-1.28c.06-.06.15-.06.21,0l.1.1c.06.06.06.15,0,.21l-1.49,1.49c-.06.06-.15.06-.21,0Z"/>
    </g>
    <g>
      <path class="cls-2" d="M21.62,41.05h-1.28v-.51c0-.09-.08-.17-.17-.17h-1.36c-.09,0-.17.08-.17.17v.51h-1.28c-.14,0-.26.11-.26.25v2.55c0,.14.11.25.26.25h4.26c.14,0,.26-.11.26-.25v-2.55c0-.14-.11-.25-.26-.25ZM18.98,40.71h1.02v.34h-1.02v-.34Z"/>
      <polygon class="cls-4" points="20.43 42.33 19.75 42.33 19.75 41.65 19.24 41.65 19.24 42.33 18.55 42.33 18.55 42.84 19.24 42.84 19.24 43.51 19.75 43.51 19.75 42.84 20.43 42.84 20.43 42.33"/>
      <g>
        <rect class="cls-3" x="17.62" y="40.8" width=".68" height=".51" rx=".08" ry=".08"/>
        <rect class="cls-3" x="20.68" y="40.8" width=".68" height=".51" rx=".08" ry=".08"/>
      </g>
    </g>
  </g>
</svg>