<?xml version="1.0" encoding="UTF-8"?>
<svg id="Layer_1" data-name="Layer 1" xmlns="http://www.w3.org/2000/svg" viewBox="0 0 56.69 56.69">
  <defs>
    <style>
      .cls-1 {
        fill: #e8eaed;
      }

      .cls-2 {
        fill: #fff;
      }

      .cls-3 {
        fill: #132d4a;
      }
    </style>
  </defs>
  <rect class="cls-2" y="0" width="56.69" height="56.69" rx="3.5" ry="3.5"/>
  <g id="ERax0X">
    <path class="cls-3" d="M12.32,32.52c.2-.45.44-1.01.71-1.55.33-.65.33-1.23-.15-1.82-.32-.38-.56-.83-.82-1.25-.28-.45-.64-.73-1.22-.7-.67.04-1.34.03-2.01.02-.57,0-.94-.32-1.05-.87-.18-.9-.35-1.8-.5-2.71-.11-.64.13-1.03.75-1.28.58-.23,1.16-.46,1.74-.68.54-.2.8-.6.89-1.15.08-.51.17-1.02.31-1.51.17-.6.02-1.07-.42-1.48-.45-.43-.9-.86-1.35-1.3-.43-.42-.51-.88-.18-1.39.5-.79,1.03-1.56,1.56-2.33.34-.49.82-.61,1.41-.36.53.22,1.06.46,1.57.72.57.28,1.09.25,1.62-.14.4-.29.84-.52,1.28-.76.46-.25.75-.59.73-1.15-.02-.67-.03-1.34-.03-2.01,0-.6.28-.99.86-1.1.9-.18,1.8-.35,2.71-.5.66-.11,1.04.11,1.29.73.23.56.45,1.13.66,1.7.19.51.53.82,1.08.93.63.12,1.25.26,1.87.4.48.1.89,0,1.23-.38.42-.46.86-.91,1.29-1.36.46-.48.91-.56,1.46-.2.77.5,1.53,1.01,2.29,1.53.48.33.62.76.4,1.31-.25.62-.54,1.23-.82,1.83-.2.43-.18.84.08,1.24.36.57.72,1.13,1.07,1.7.26.43.65.56,1.11.54.58-.02,1.15-.05,1.73-.08.81-.03,1.2.26,1.34,1.04.15.81.31,1.62.45,2.43.13.74-.1,1.15-.81,1.42-.55.21-1.11.42-1.67.62-.55.2-.84.59-.93,1.17-.08.54-.2,1.07-.34,1.6-.14.54-.02.98.4,1.35.47.41.92.84,1.37,1.27.46.43.54.9.2,1.42-.5.79-1.02,1.56-1.56,2.33-.35.5-.84.61-1.4.36-.58-.26-1.16-.53-1.75-.79-.48-.22-.93-.16-1.36.15-.49.35-1.01.67-1.53,1-.38.24-.6.57-.59,1.04.02.67.03,1.34.03,2.01,0,.62-.28.99-.9,1.12-.88.18-1.77.35-2.66.5-.66.11-1.06-.13-1.31-.77-.22-.57-.44-1.13-.64-1.71-.19-.54-.56-.84-1.12-.93-.57-.1-1.13-.21-1.7-.34-.45-.1-.83,0-1.15.34-.47.5-.95.99-1.43,1.48-.41.42-.86.49-1.35.18-.8-.51-1.59-1.04-2.37-1.58-.42-.29-.55-.7-.39-1.3ZM26.79,23.44c.78-2.43-.64-5.13-3.11-5.91-2.52-.8-5.21.61-6.02,3.15-.79,2.47.63,5.2,3.18,5.97,2.65.8,5.27-.71,5.95-3.21Z"/>
  </g>
  <g>
    <g>
      <path class="cls-3" d="M51.91,44.05l-8.74-15.15c-.5-.87-1.39-1.38-2.39-1.38s-1.89.52-2.39,1.38l-8.74,15.15c-.5.87-.5,1.9,0,2.76.5.87,1.39,1.38,2.39,1.38h17.49c1,0,1.89-.52,2.39-1.38.5-.87.5-1.9,0-2.76ZM50.55,46.02c-.21.38-.6.6-1.04.6h-17.49c-.43,0-.82-.22-1.04-.6-.22-.38-.22-.82,0-1.2l8.74-15.15c.22-.37.61-.6,1.04-.6s.82.23,1.04.6l8.74,15.15c.22.38.22.82,0,1.2Z"/>
      <path class="cls-1" d="M50.55,44.82l-8.74-15.15c-.22-.37-.61-.6-1.04-.6s-.82.23-1.04.6l-8.74,15.15c-.22.38-.22.82,0,1.2.22.38.61.6,1.04.6h17.49c.43,0,.82-.22,1.04-.6.22-.38.22-.82,0-1.2ZM40.76,44.82c-.79,0-1.42-.63-1.42-1.42s.63-1.42,1.42-1.42,1.42.63,1.42,1.42-.63,1.42-1.42,1.42ZM42.4,34.68l-.34,5.73c-.01.19-.17.33-.35.33h-1.85c-.19,0-.34-.15-.35-.33l-.36-5.73c-.01-.19.14-.36.33-.37,0,0,.02,0,.02,0h2.54c.19,0,.35.16.35.36v.02Z"/>
    </g>
    <g>
      <path class="cls-3" d="M42.17,43.4c0,.78-.63,1.42-1.42,1.42s-1.42-.63-1.42-1.42.63-1.42,1.42-1.42,1.42.63,1.42,1.42Z"/>
      <path class="cls-3" d="M42.4,34.66v.02l-.34,5.73c-.01.19-.17.33-.35.33h-1.85c-.19,0-.34-.15-.35-.33l-.36-5.73c-.01-.19.14-.36.33-.37,0,0,.02,0,.02,0h2.54c.19,0,.35.16.35.36Z"/>
    </g>
  </g>
</svg>