<?xml version="1.0" encoding="UTF-8"?>
<svg id="Layer_1" data-name="Layer 1" xmlns="http://www.w3.org/2000/svg" viewBox="0 0 56.69 56.69">
  <defs>
    <style>
      .cls-1 {
        fill: #e8eaed;
      }

      .cls-2 {
        fill: #fff;
      }

      .cls-3 {
        stroke: #132d4a;
        stroke-width: 4.27px;
      }

      .cls-3, .cls-4 {
        fill: none;
        stroke-linecap: round;
        stroke-linejoin: round;
      }

      .cls-5 {
        fill: #8093a6;
      }

      .cls-6 {
        fill: #b8c0ca;
      }

      .cls-4 {
        stroke: #8295a8;
        stroke-width: 2.13px;
      }

      .cls-7 {
        fill: #132d4a;
      }

      .cls-8 {
        fill: #092d4c;
      }
    </style>
  </defs>
  <rect class="cls-2" width="56.69" height="56.69" rx="3.5" ry="3.5"/>
  <g>
    <line class="cls-4" x1="7.25" y1="29.96" x2="7.25" y2="49.37"/>
    <line class="cls-4" x1="45.19" y1="38.73" x2="45.19" y2="49.37"/>
    <line class="cls-4" x1="7.25" y1="43.23" x2="45.19" y2="43.23"/>
    <g id="Artwork_64x64" data-name="Artwork 64x64">
      <circle class="cls-7" cx="18.25" cy="22.07" r="3.03"/>
      <path class="cls-7" d="M20.82,25.98h-3.91c-2.74,0-2.74,2.36-2.74,3.54l.19,10.85,3.26-.85h4.25l.52-10.94c.05-1.27-.16-2.6-1.56-2.6Z"/>
    </g>
    <path class="cls-7" d="M24.27,22.07l4.71,5.89c.72.9.58,2.22-.33,2.95-.5.41-1.12.52-1.72.43,0,0-6.21-.65-6.21-.65-3.07-.4-2.6-4.92.49-4.67.05,0,.1.01.15.02l6.16,1.05-2.05,3.37-4-6.4c-1.11-1.82,1.46-3.63,2.8-1.98h0Z"/>
    <polyline class="cls-3" points="16.47 40.14 37.27 40.14 40.77 40.21"/>
  </g>
  <g>
    <path class="cls-8" d="M44.49,22.9v-14.15c0-.61-.49-1.1-1.1-1.1s-1.1.49-1.1,1.1v14.15c-.97.42-1.64,1.38-1.64,2.51,0,1.51,1.22,2.74,2.74,2.74s2.74-1.22,2.74-2.74c0-1.12-.67-2.08-1.64-2.51Z"/>
    <path class="cls-5" d="M47.04,21.58v-13.02c0-2.01-1.64-3.65-3.65-3.65s-3.65,1.64-3.65,3.65v13.02c-1.04,1-1.64,2.38-1.64,3.83,0,2.91,2.37,5.29,5.29,5.29s5.29-2.37,5.29-5.29c0-1.45-.6-2.83-1.64-3.83ZM43.4,29.82c-2.43,0-4.41-1.98-4.41-4.41,0-1.26.54-2.47,1.49-3.31l.15-.13v-1.66h.76c.24,0,.44-.2.44-.44s-.2-.44-.44-.44h-.76v-1.91h.76c.24,0,.44-.2.44-.44s-.2-.44-.44-.44h-.76v-1.91h.76c.24,0,.44-.2.44-.44s-.2-.44-.44-.44h-.76v-1.91h.76c.24,0,.44-.2.44-.44s-.2-.44-.44-.44h-.76v-1.91h.76c.24,0,.44-.2.44-.44s-.2-.44-.44-.44h-.75c.15-1.39,1.33-2.47,2.75-2.47,1.53,0,2.77,1.24,2.77,2.77v13.41l.15.13c.95.84,1.49,2.04,1.49,3.3,0,2.43-1.98,4.41-4.41,4.41Z"/>
  </g>
  <path class="cls-6" d="M18.9,12.65l-.68,2.46-.69-.89,1.75-.28h.07c.49-.11.88.48.61.9,0,0-1.57,2.61-1.57,2.61-.08.13-.25.18-.39.1-.11-.07-.16-.2-.12-.33l.92-2.91.68.89-1.75.28c-.35.09-.71-.12-.77-.48-.02-.15,0-.29.08-.4l1.34-2.18c.16-.28.61-.08.52.23h0Z"/>
  <path class="cls-6" d="M24.7,14.92l-2.04,1.54v-1.12s1.55.85,1.55.85l.06.04c.45.22.4.92-.07,1.09,0,0-2.83,1.12-2.83,1.12-.14.06-.31-.01-.36-.16-.05-.12,0-.26.1-.33l2.49-1.75v1.13s-1.56-.85-1.56-.85l-.08-.04c-.45-.22-.39-.92.07-1.08,0,0,2.39-.92,2.39-.92.3-.12.53.31.27.49h0Z"/>
  <path class="cls-6" d="M12.24,15.04l1.54,2.04h-1.12s.85-1.55.85-1.55l.04-.06c.22-.45.92-.4,1.09.07,0,0,1.12,2.83,1.12,2.83.06.14-.01.31-.16.36-.12.05-.26,0-.33-.1l-1.75-2.49h1.13s-.85,1.56-.85,1.56c-.14.33-.53.49-.85.32-.13-.07-.22-.18-.27-.31l-.92-2.39c-.12-.3.31-.53.49-.27h0Z"/>
  <path class="cls-6" d="M13.21,40.24l4.4-.04c2.07-.03,3.84-1.5,4.27-3.53h0c.09-.41.45-.71.87-.71l20.46-.04c.49,0,.88.39.89.88l.04,4.66c0,.49,0,.89,0,.89H13.23c-.49,0-.89-.4-.89-.89v-.33c0-.48.39-.88.87-.89Z"/>
  <path class="cls-1" d="M8.31,41.8v-5.62c0-.38.31-.69.69-.69h4.33c.38,0,.69.31.69.69v5.48c0,.38-.31.69-.69.69h-5.02v-.55Z"/>
</svg>