<?xml version="1.0" encoding="UTF-8"?>
<svg id="Layer_1" data-name="Layer 1" xmlns="http://www.w3.org/2000/svg" viewBox="0 0 56.69 56.69">
  <defs>
    <style>
      .cls-1 {
        fill: #fff;
      }
    </style>
  </defs>
  <circle cx="28.35" cy="28.35" r="28.35" fill="#0f8243"/>
  <path class="cls-1" d="M21.32,40.69l-9.2-9.21c-.78-.78-.78-2.05,0-2.83,0,0,0,0,0,0l1.41-1.41c.78-.78,2.05-.78,2.83,0h0s6.38,6.38,6.38,6.38l17.58-17.59c.78-.78,2.05-.78,2.83,0,0,0,0,0,0,0l1.42,1.42c.78.78.78,2.04,0,2.82l-20.47,20.42c-.78.75-2,.75-2.78,0Z"/>
</svg>
