<?xml version="1.0" encoding="UTF-8"?>
<svg id="Layer_1" data-name="Layer 1" xmlns="http://www.w3.org/2000/svg" width="80mm" height="80mm" viewBox="0 0 226.77 226.77">
  <defs>
    <style>
      .cls-1 {
        fill: #b35565;
      }

      .cls-2 {
        fill: #f4dac4;
      }

      .cls-3 {
        fill: #e8eaed;
        stroke: #e8eaed;
        stroke-width: 4.73px;
      }

      .cls-3, .cls-4 {
        stroke-miterlimit: 10;
      }

      .cls-5 {
        fill: #6e7754;
      }

      .cls-6 {
        fill: #d7dbce;
      }

      .cls-7 {
        fill: #c1c1c1;
      }

      .cls-8 {
        fill: #f5cdd5;
      }

      .cls-9 {
        fill: #e28193;
      }

      .cls-10 {
        fill: #a16936;
      }

      .cls-11 {
        fill: #99a483;
      }

      .cls-12 {
        fill: #bbd2df;
      }

      .cls-13 {
        stroke: #0a2e4d;
        stroke-width: 1.56px;
      }

      .cls-13, .cls-14 {
        stroke-linejoin: round;
      }

      .cls-13, .cls-14, .cls-4 {
        fill: none;
        stroke-linecap: round;
      }

      .cls-15 {
        fill: #8595a6;
      }

      .cls-16 {
        fill: #e2a26a;
      }

      .cls-14, .cls-4 {
        stroke: #8bb4c9;
        stroke-width: 1.72px;
      }

      .cls-17 {
        fill: #b8c0ca;
      }

      .cls-18 {
        fill: #296991;
      }

      .cls-19 {
        fill: #f2f2f2;
      }

      .cls-20 {
        fill: #616161;
      }
    </style>
  </defs>
  <polygon class="cls-3" points="81.16 57.58 113.39 113.1 145.61 57.58 113.63 113.24 177.83 113.39 113.63 113.53 145.61 169.19 113.39 113.67 81.16 169.19 113.14 113.53 48.94 113.39 113.14 113.24 81.16 57.58"/>
  <g>
    <g>
      <circle class="cls-12" cx="151.08" cy="48.68" r="30.03"/>
      <g>
        <path class="cls-18" d="M160.28,47.61c0,9.54-8.35,9.54-9.54,9.54-1.3,0-9.54,0-9.54-9.54,0-6.02,5.07-9.54,8.61-15.93.4-.72,1.46-.72,1.86,0,3.54,6.39,8.61,9.9,8.61,15.93Z"/>
        <path class="cls-14" d="M160.92,55.12c1.06.6,1.68,1.3,1.68,2.06,0,2.18-5.16,3.95-11.52,3.95-6.36,0-11.52-1.77-11.52-3.95,0-.68.5-1.32,1.39-1.89"/>
        <path class="cls-14" d="M163.12,52.79c4.21,1.19,6.89,3,6.89,5.02,0,3.59-8.48,6.5-18.93,6.5-10.45,0-18.93-2.91-18.93-6.5,0-1.94,2.49-3.69,6.43-4.88"/>
        <path class="cls-4" d="M157.45,45.03s2.16,5.94-2.12,8.31"/>
      </g>
    </g>
    <g>
      <circle class="cls-8" cx="76.03" cy="178.1" r="30.03"/>
      <g>
        <g>
          <path class="cls-1" d="M79.85,187.95c-.86,1.62-1.98,2.91-3.11,3.91-.02.02-.03.02-.04.04-1.67,1.45-3.37,2.3-4.34,2.71-.21.07-.43.15-.65.2.58-.38,2.34-1.81,2.23-4.86-.02-.75-.12-1.4-.26-1.97-.03-.14-.07-.28-.11-.41-.03-.1-.06-.19-.09-.28-.06-.16-.11-.33-.19-.47-.05-.11-.1-.23-.16-.34-.11-.22-.22-.43-.34-.61-.12-.2-.25-.38-.39-.56-.07-.1-.15-.2-.22-.29-.07-.07-.12-.14-.19-.21-.13-.16-.28-.32-.43-.47-.14-.15-.28-.3-.42-.45-.07-.08-.15-.16-.22-.24-.15-.16-.29-.3-.41-.46-.08-.09-.16-.19-.23-.29-.07-.09-.14-.17-.2-.26-.23-.33-.43-.68-.61-1.07-.03-.08-.07-.17-.1-.26-.14-.36-.24-.75-.3-1.19-.02-.12-.04-.25-.05-.38h0c-.09-.84-1.1-1.2-1.65-.61-.03.04-.07.08-.11.12-.09.11-.17.21-.26.33-.09.11-.18.23-.27.35-.43.61-.86,1.35-1.2,2.21-.07.17-.13.35-.19.53-.05.16-.1.31-.14.47,0,.04-.02.09-.03.14-.05.17-.09.36-.12.54-.02.15-.05.29-.07.43-.02.1-.03.2-.04.3-.02.17-.04.34-.05.52-.02.23-.02.47-.02.71,0,.13,0,.25,0,.38v.09c0,.1.02.2.02.3,0,.07,0,.13.02.2.02.2.04.4.07.61.06.41-.34.73-.74.62-.21-.06-.45-.13-.69-.25-.02,0-.02,0-.04-.02-.17-.09-.34-.2-.52-.34-.35-.28-.88-.02-.91.43-.02.2-.02.43,0,.68,0,.02,0,.06,0,.09,0,.13,0,.26.02.39.02.17.03.35.06.53.02.13.04.25.07.39.05.26.11.55.2.84.04.15.09.29.14.45,0,.03.02.07.03.11.31.88.79,1.84,1.5,2.87.05.07.11.12.17.16-1.09-.46-2.09-1.07-2.96-1.82-.07-.03-.15-.07-.21-.13-2.54-2.1-5.48-6.03-3.96-12.44,1.65-6.97,5.98-7.65,8.74-12.75,1.04-1.92,1.33-3.91,1.36-5.4.02-.88,1.06-1.3,1.66-.66,1.82,1.92,4.5,5.16,5.8,8.66.67,1.8.91,3.52.93,5.04.02,1.41-.16,2.64-.37,3.57-.17.82.7,1.47,1.42,1.05.61-.35,1.25-.82,1.77-1.43.1-.11.19-.23.28-.35.45-.63,1.4-.57,1.7.14.88,2.1,1.73,5.81-.57,10.14Z"/>
          <path class="cls-9" d="M73.94,189.95c.11,3.05-1.65,4.48-2.23,4.86-.61.17-1.24.29-1.9.36-.19.02-.38.03-.57.04-.34.02-.7.02-1.06,0-.16,0-.3-.02-.46-.03h-.02c-.14-.02-.27-.03-.41-.05-.18-.02-.35-.05-.52-.08-.09-.02-.17-.03-.25-.05-.16-.03-.3-.07-.45-.1-.03,0-.07-.02-.1-.02-.15-.03-.29-.07-.41-.1-.14-.04-.26-.07-.38-.11-.1-.03-.19-.06-.27-.08-.08-.02-.15-.05-.2-.07-.15-.06-.29-.11-.43-.17-.07-.03-.12-.09-.17-.16-.71-1.03-1.19-2-1.5-2.87,0-.04-.02-.07-.03-.11-.05-.16-.1-.3-.14-.45-.08-.29-.15-.57-.2-.84-.02-.14-.05-.26-.07-.39-.02-.18-.04-.36-.06-.53,0-.16-.02-.33-.02-.48-.02-.25,0-.47,0-.68.03-.45.56-.71.91-.43.17.13.34.25.52.34.02,0,.02,0,.04.02.24.12.47.2.69.25.4.11.79-.21.74-.62-.02-.2-.05-.41-.07-.61,0-.07,0-.14-.02-.2,0-.11-.02-.2-.02-.3v-.09c0-.13,0-.25,0-.38,0-.25,0-.48.02-.71,0-.17.02-.34.05-.52,0-.11.02-.2.04-.3.02-.15.05-.29.07-.43.03-.18.07-.37.12-.54,0-.05.02-.1.03-.14.04-.16.09-.32.14-.47.06-.18.12-.36.19-.53.34-.86.76-1.6,1.2-2.21.09-.12.18-.25.27-.35.09-.11.17-.22.26-.33.03-.04.07-.08.11-.12.56-.6,1.56-.24,1.65.6h0c0,.14.02.27.05.39.07.44.16.83.3,1.19.02.09.07.18.1.26.17.39.38.75.61,1.07.07.09.13.17.2.26.07.1.15.2.23.29.12.16.26.3.41.46.07.07.15.16.22.24.14.15.28.3.42.45.15.15.29.3.43.47.07.07.12.14.19.21.07.09.15.19.22.29.14.18.27.36.39.56.12.19.24.39.34.61.06.11.11.22.16.34.07.15.13.31.19.47.03.09.06.18.09.28.04.13.07.27.11.41.14.57.24,1.22.26,1.97Z"/>
        </g>
        <g>
          <path class="cls-1" d="M95.7,190.89c-.5.94-1.15,1.69-1.81,2.27,0,0-.02.01-.02.02-.97.84-1.95,1.34-2.52,1.57-.12.04-.25.09-.38.12.34-.22,1.36-1.05,1.29-2.82-.01-.43-.07-.81-.15-1.14-.02-.08-.04-.16-.06-.24-.02-.06-.03-.11-.05-.16-.03-.1-.07-.19-.11-.28-.03-.07-.06-.13-.09-.19-.06-.13-.13-.25-.2-.36-.07-.11-.15-.22-.23-.32-.04-.06-.09-.11-.13-.17-.04-.04-.07-.08-.11-.12-.08-.1-.16-.19-.25-.27-.08-.09-.16-.18-.24-.26-.04-.05-.09-.1-.13-.14-.09-.09-.17-.18-.24-.27-.05-.05-.09-.11-.13-.17-.04-.05-.08-.1-.12-.15-.13-.19-.25-.39-.35-.62-.02-.05-.04-.1-.06-.15-.08-.21-.14-.43-.18-.69-.01-.07-.02-.15-.03-.22h0c-.05-.49-.64-.7-.96-.35-.02.02-.04.05-.06.07-.05.06-.1.12-.15.19-.05.06-.1.13-.16.2-.25.36-.5.78-.69,1.28-.04.1-.08.2-.11.31-.03.09-.06.18-.08.28,0,.02-.01.05-.02.08-.03.1-.05.21-.07.31-.01.09-.03.17-.04.25,0,.06-.02.11-.02.18-.01.1-.02.2-.03.3,0,.13-.01.27-.01.41,0,.08,0,.15,0,.22v.05c0,.06,0,.11.01.18,0,.04,0,.08,0,.12,0,.11.02.23.04.35.03.24-.19.42-.43.36-.12-.03-.26-.08-.4-.15,0,0-.01,0-.02,0-.1-.05-.2-.12-.3-.19-.2-.16-.51,0-.53.25,0,.12-.01.25,0,.39,0,.01,0,.03,0,.05,0,.08,0,.15.01.23,0,.1.02.2.03.31,0,.08.02.15.04.23.03.15.07.32.11.49.02.09.05.17.08.26,0,.02.01.04.02.06.18.51.46,1.07.87,1.67.03.04.06.07.1.09-.63-.27-1.21-.62-1.72-1.06-.04-.02-.09-.04-.12-.08-1.47-1.22-3.18-3.5-2.3-7.22.96-4.05,3.47-4.44,5.07-7.4.6-1.11.77-2.27.79-3.14,0-.51.62-.76.97-.39,1.06,1.12,2.61,3,3.37,5.03.39,1.05.53,2.04.54,2.92,0,.82-.1,1.53-.21,2.07-.1.48.4.85.83.61.35-.2.73-.48,1.03-.83.06-.07.11-.13.16-.2.26-.37.81-.33.99.08.51,1.22,1,3.38-.33,5.89Z"/>
          <path class="cls-9" d="M92.26,192.05c.07,1.77-.96,2.6-1.29,2.82-.36.1-.72.17-1.1.21-.11,0-.22.02-.33.02-.19,0-.4.01-.62,0-.09,0-.18,0-.27-.02h-.01c-.08,0-.16-.02-.24-.03-.1-.01-.2-.03-.3-.05-.05,0-.1-.02-.15-.03-.09-.02-.18-.04-.26-.06-.02,0-.04,0-.06-.01-.09-.02-.17-.04-.24-.06-.08-.02-.15-.04-.22-.06-.06-.02-.11-.03-.16-.05-.05-.01-.09-.03-.12-.04-.09-.03-.17-.07-.25-.1-.04-.02-.07-.05-.1-.09-.41-.6-.69-1.16-.87-1.67,0-.02-.01-.04-.02-.06-.03-.09-.06-.18-.08-.26-.05-.17-.09-.33-.11-.49-.01-.08-.03-.15-.04-.23-.01-.1-.02-.21-.03-.31,0-.1,0-.19,0-.28,0-.14,0-.28,0-.39.02-.26.32-.41.53-.25.1.08.2.14.3.19,0,0,.01,0,.02,0,.14.07.28.11.4.15.23.06.46-.12.43-.36-.01-.12-.03-.24-.04-.35,0-.04,0-.08,0-.12,0-.06,0-.12-.01-.18v-.05c0-.08,0-.15,0-.22,0-.14,0-.28.01-.41,0-.1.01-.2.03-.3,0-.06.01-.12.02-.18.01-.09.03-.17.04-.25.02-.1.04-.21.07-.31,0-.03.01-.06.02-.08.02-.1.05-.19.08-.28.03-.1.07-.21.11-.31.19-.5.44-.93.69-1.28.05-.07.1-.14.16-.2.05-.07.1-.13.15-.19.02-.02.04-.05.06-.07.32-.35.91-.14.96.35h0c0,.08.01.16.03.23.04.26.1.48.18.69.01.05.04.1.06.15.1.23.22.43.35.62.04.05.08.1.12.15.04.06.09.11.13.17.07.09.15.18.24.27.04.04.09.09.13.14.08.09.16.18.24.26.09.09.17.18.25.27.04.04.07.08.11.12.04.05.09.11.13.17.08.1.16.21.23.32.07.11.14.23.2.36.03.06.06.13.09.19.04.09.08.18.11.28.02.05.03.1.05.16.02.08.04.16.06.24.08.33.14.71.15,1.14Z"/>
        </g>
      </g>
    </g>
    <g>
      <circle class="cls-7" cx="151.08" cy="178.1" r="30.03"/>
      <g>
        <path class="cls-20" d="M169.6,193.95c0,.89-.72,1.61-1.61,1.61h-20.57c-.44,0-.79-.35-.79-.79v-10.18c0-.33.27-.59.59-.59h21.59c.43,0,.78.35.78.78v9.18Z"/>
        <path class="cls-19" d="M159.79,164.06c-.35.29-.6.72-.63,1.17-.02.1-.03.21-.05.32-.13.68-.55,1.31-1.16,1.64-.97.52-1.95.44-2.7.02-.44-.26-.98-.32-1.46-.09-.5.25-1.06.39-1.66.39-1.16,0-2.2-.52-2.89-1.34-.28-.35-.71-.59-1.16-.56-.08,0-.15,0-.23,0-.3,0-.59-.03-.89-.1-.59-.14-1.19.12-1.62.56-.52.52-1.25.84-2.05.84-.44,0-.85-.09-1.23-.27.02.09.02.18.02.27,0,.95-.62,1.66-1.37,2.14-.69.44-3.98.49-5.1-.01-.51-.23-.72-.74-.72-1.33,0-.09,0-.18,0-.26-1.16-.23-2.05-1.26-2.05-2.5,0-1.08.66-1.99,1.6-2.37-.03-.19-.05-.39-.05-.59,0-2.15,1.74-3.89,3.88-3.89.64,0,1.26.16,1.79.43.42.22.94.14,1.31-.15.46-.37,1.05-.58,1.69-.58s1.23.22,1.7.59c.38.3.9.37,1.33.15.52-.27,1.12-.43,1.75-.43.51,0,1.01.11,1.45.29s.98.06,1.32-.29c.5-.52,1.2-.84,1.98-.84.57,0,1.11.18,1.56.48s1,.36,1.46.11c.7-.38,1.53-.55,2.41-.41,1.62.26,2.92,1.61,3.11,3.24.16,1.37-.4,2.61-1.36,3.38Z"/>
        <path class="cls-20" d="M165.95,176.9v4.97c0,.39-.31.7-.7.7h-19.33c-.4,0-.71.32-.71.71v10.83c0,.39-.31.7-.7.7h-9.92c-.6,0-1.06-.5-1.01-1.1l1.78-21.94c.05-.52.48-.93,1.01-.93h3.16c.53,0,.97.41,1.01.93l.52,6.32c.06.74.85,1.16,1.5.8l5.15-2.87c.67-.38,1.5.11,1.5.88v1.21c0,.77.83,1.26,1.5.88l5.36-2.97c.68-.38,1.5.11,1.5.88v1.21c0,.77.83,1.26,1.51.88l5.35-2.97c.67-.38,1.5.11,1.5.88Z"/>
        <rect class="cls-19" x="149.71" y="187.95" width="3.36" height="3.36" rx=".32" ry=".32"/>
        <rect class="cls-19" x="156.38" y="187.95" width="3.36" height="3.36" rx=".32" ry=".32"/>
        <rect class="cls-19" x="163.17" y="187.95" width="3.36" height="3.36" rx=".32" ry=".32"/>
      </g>
    </g>
    <g>
      <circle class="cls-6" cx="38.67" cy="113.39" r="30.03"/>
      <g>
        <path class="cls-11" d="M41.12,110.52s15.89,1.31,15.84,5.3c-.04,3.99-2.46,3.22-3.44,3.05-.98-.17-13.05-6.53-13.05-6.53l.64-1.82Z"/>
        <path class="cls-11" d="M36.22,110.52s-15.89,1.32-15.84,5.3,2.46,3.22,3.44,3.05,13.05-6.53,13.05-6.53l-.64-1.82Z"/>
        <path class="cls-5" d="M52.43,123.62l-2.82-4.61c-.33-.54-.87-.9-1.49-1l-4-.66c-.18-.03-.35-.12-.47-.26l-2.01-2.29c-.05-.06-.11-.1-.18-.14.06-.53.1-1.08.1-1.64,0-1.45-.21-2.79-.56-3.88l4.01-2.15c.95-.51,1.38-1.61,1.02-2.63l-.88-2.47c-.11-.31-.01-.67.24-.88l3.72-3.06c.29-.24.33-.67.09-.96-.24-.29-.67-.33-.96-.09l-3.72,3.06c-.7.58-.96,1.54-.66,2.39l.88,2.47c.13.37-.02.78-.37.97l-3.9,2.09c-.24-.44-.51-.81-.81-1.06.75-.38,1.27-1.15,1.27-2.04,0-.6-.24-1.14-.62-1.55.02-.12.21-.87,1.28-1.18.36-.1.57-.48.47-.84-.1-.36-.48-.57-.84-.47-1.33.38-1.89,1.25-2.11,1.81-.15-.03-.3-.05-.46-.05-.13,0-.25.02-.37.04-.23-.56-.78-1.42-2.11-1.8-.36-.1-.74.11-.84.47-.1.36.1.74.47.84.93.27,1.19.87,1.26,1.1-.42.41-.68.99-.68,1.63,0,.89.51,1.67,1.26,2.04-.29.25-.56.6-.8,1.03l-3.85-2.06c-.34-.18-.5-.6-.37-.97l.88-2.47c.3-.85.04-1.81-.66-2.39l-3.72-3.06c-.29-.24-.72-.2-.96.09-.24.29-.2.72.09.96l3.72,3.06c.26.21.35.57.24.88l-.88,2.47c-.36,1.01.07,2.12,1.02,2.63l3.96,2.12c-.36,1.1-.57,2.45-.57,3.91,0,.59.04,1.15.1,1.69-.04.03-.08.05-.12.09l-2.01,2.29c-.12.14-.29.23-.47.26l-4,.66c-.62.1-1.16.47-1.49,1l-2.82,4.61c-.2.32-.1.74.23.94.11.07.23.1.36.1.23,0,.45-.12.58-.33l2.82-4.61c.12-.2.32-.33.55-.37l4-.66c.49-.08.94-.33,1.27-.7l1.41-1.6c.06.21.12.42.18.62-.01.02-.03.03-.04.05l-2.55,4.26c-.11.19-.3.32-.51.37l-1.75.4c-.69.16-1.26.64-1.53,1.3l-2.26,5.6c-.14.35.03.75.38.89.08.03.17.05.26.05.27,0,.53-.16.63-.43l2.27-5.6c.1-.24.31-.42.56-.48l1.75-.4c.57-.13,1.07-.49,1.38-1l2.11-3.53c.08.13.17.26.26.37-.41,1-.67,2.45-.67,4.05,0,3.04.91,5.49,2.05,5.49s2.05-2.46,2.05-5.49c0-1.6-.26-3.05-.68-4.05.1-.13.2-.27.29-.42l2.14,3.58c.3.5.8.87,1.38,1l1.75.4c.25.06.46.24.56.48l2.26,5.6c.11.27.36.43.63.43.08,0,.17-.02.26-.05.35-.14.52-.54.38-.89l-2.26-5.6c-.27-.66-.84-1.14-1.53-1.3l-1.75-.4c-.21-.05-.4-.18-.51-.37l-2.55-4.26s-.06-.07-.09-.1c.07-.2.13-.41.18-.62l1.47,1.66c.33.37.78.62,1.27.7l4,.66c.23.04.43.17.55.37l2.82,4.61c.13.21.35.33.58.33.12,0,.24-.03.36-.1.32-.2.42-.62.23-.94Z"/>
      </g>
    </g>
    <g>
      <circle class="cls-2" cx="188.1" cy="113.39" r="30.03"/>
      <g>
        <g>
          <path class="cls-10" d="M181.22,117.42v-19.68c0-.83-.67-1.5-1.5-1.5-.83,0-1.5.67-1.5,1.5v19.68c-1.32.58-2.25,1.9-2.25,3.44,0,2.07,1.68,3.75,3.75,3.75s3.75-1.68,3.75-3.75c0-1.54-.93-2.86-2.25-3.44Z"/>
          <path class="cls-16" d="M184.72,115.61v-17.86c0-2.76-2.24-5-5-5-2.76,0-5,2.24-5,5v17.86c-1.43,1.37-2.25,3.26-2.25,5.25,0,4,3.25,7.25,7.25,7.25,4,0,7.25-3.25,7.25-7.25,0-1.99-.82-3.88-2.25-5.25ZM179.72,126.91c-3.33,0-6.05-2.71-6.05-6.05,0-1.73.75-3.39,2.05-4.53l.2-.18v-2.28s1.05,0,1.05,0c.33,0,.6-.27.6-.6s-.27-.6-.6-.6h-1.05s0-2.63,0-2.63h1.05c.33,0,.6-.27.6-.6s-.27-.6-.6-.6h-1.05s0-2.63,0-2.63h1.05c.33,0,.6-.27.6-.6s-.27-.6-.6-.6h-1.05s0-2.63,0-2.63h1.05c.33,0,.6-.27.6-.6s-.27-.6-.6-.6h-1.05s0-2.63,0-2.63h1.05c.33,0,.6-.27.6-.6s-.27-.6-.6-.6h-1.02c.2-1.9,1.82-3.39,3.78-3.39,2.09,0,3.8,1.7,3.8,3.8v18.39s.2.18.2.18c1.3,1.15,2.05,2.8,2.05,4.53,0,3.33-2.71,6.05-6.05,6.05Z"/>
        </g>
        <g>
          <path class="cls-10" d="M197.59,124.7v-5.76c0-.83-.67-1.5-1.5-1.5s-1.5.67-1.5,1.5v5.76c-1.32.58-2.25,1.9-2.25,3.44,0,2.07,1.68,3.75,3.75,3.75,2.07,0,3.75-1.68,3.75-3.75,0-1.54-.93-2.86-2.25-3.44Z"/>
          <path class="cls-16" d="M201.09,122.89v-17.86c0-2.76-2.24-5-5-5-2.76,0-5,2.24-5,5v17.86c-1.43,1.37-2.25,3.26-2.25,5.25,0,4,3.25,7.25,7.25,7.25,4,0,7.25-3.25,7.25-7.25,0-1.99-.82-3.88-2.25-5.25ZM196.09,134.19c-3.33,0-6.05-2.71-6.05-6.05,0-1.73.75-3.39,2.05-4.53l.2-.18v-2.28s1.05,0,1.05,0c.33,0,.6-.27.6-.6s-.27-.6-.6-.6h-1.05s0-2.63,0-2.63h1.05c.33,0,.6-.27.6-.6s-.27-.6-.6-.6h-1.05s0-2.63,0-2.63h1.05c.33,0,.6-.27.6-.6s-.27-.6-.6-.6h-1.05s0-2.63,0-2.63h1.05c.33,0,.6-.27.6-.6s-.27-.6-.6-.6h-1.05s0-2.63,0-2.63h1.05c.33,0,.6-.27.6-.6s-.27-.6-.6-.6h-1.02c.2-1.9,1.82-3.39,3.78-3.39,2.09,0,3.8,1.7,3.8,3.8v18.39s.2.18.2.18c1.3,1.15,2.05,2.8,2.05,4.53,0,3.33-2.71,6.05-6.05,6.05Z"/>
        </g>
      </g>
    </g>
    <g>
      <circle class="cls-17" cx="76.03" cy="48.68" r="30.03"/>
      <g>
        <path class="cls-13" d="M88.72,65.95s-2.39-3.11-2.22-6.77c.17-3.66,6.5-12.1,4.55-19.65-1.94-7.55-8.72-10.83-15.16-10.21-6.44.61-11.16,2.83-13.6,7.33-2.44,4.5-.33,8.88-.33,8.88,0,0-3.89,4.99-3.89,6.55,0,.83,2.78,1.67,2.78,1.67,0,0-.39,2.05-.33,2.55s1.39,1.39,1.39,2.17-.74,3.49.39,4.22c2.5,1.61,6.15-.42,7.49.11,1.55.61,3.28,2,3.16,3.55"/>
        <path class="cls-15" d="M83.02,55.69s-1.61-5.23-1.36-5.79,2.93.23,3.83-1.72c.76-1.65.1-2.62.1-2.62,0,0,3.75-1.21,2.78-5-.97-3.79-3.95-3.4-3.95-3.4,0,0,.08-3.46-3.65-4.28-3.74-.82-5.45,1.21-5.45,1.21,0,0-3.38-1.77-6.04-.08-2.66,1.69-1.96,3.42-1.96,3.42,0,0-3.46,1.01-2.44,3.98,1.02,2.97,4.5,2.2,4.5,2.2,0,0,.36,2.15,2.1,2.51,1.74.36,3.02-.08,3.07-.08s-.04,1.18,1.68,2.28c1.25.8,2.58.67,2.93,1.08,1.42,1.67,1.16,6.28,1.16,6.28h2.71Z"/>
        <line class="cls-13" x1="78.85" y1="36.98" x2="78.85" y2="42.6"/>
        <line class="cls-13" x1="81.66" y1="39.79" x2="76.04" y2="39.79"/>
      </g>
    </g>
  </g>
</svg>