<?xml version="1.0" encoding="UTF-8"?>
<svg id="Layer_1" data-name="Layer 1" xmlns="http://www.w3.org/2000/svg" viewBox="0 0 56.69 56.69">
  <defs>
    <style>
      .cls-1 {
        fill: #fff;
      }

      .cls-2 {
        fill: #778558;
      }

      .cls-3 {
        fill: #b6c0a6;
      }
    </style>
  </defs>
  <path class="cls-1" d="M30.07.44l1.04.56c15.97,8.7,25.73,25.61,25.28,43.79l-.03,1.18c-.03,1.23-.68,2.35-1.73,2.99l-1.01.61c-15.52,9.48-35.04,9.48-50.57,0l-1.01-.61c-1.05-.64-1.7-1.77-1.73-2.99l-.03-1.18C-.15,26.61,9.61,9.71,25.58,1l1.04-.56c1.08-.59,2.38-.59,3.46,0Z"/>
  <g>
    <path class="cls-2" d="M25.83,11.88h5.18c5.71,0,10.35,4.64,10.35,10.35v12.94c0,2.86-2.32,5.18-5.18,5.18h-15.53c-2.86,0-5.18-2.32-5.18-5.18v-12.94c0-5.71,4.64-10.35,10.35-10.35Z"/>
    <path class="cls-1" d="M38.77,18.99c.42,1,.65,2.09.65,3.24v12.94c0,1.78-1.45,3.24-3.24,3.24h-15.53c-1.78,0-3.24-1.45-3.24-3.24v-12.94c0-1.15.23-2.24.65-3.24h20.7Z"/>
    <path class="cls-3" d="M41.36,32.58v2.59c0,2.86-2.32,5.18-5.18,5.18h-15.53c-2.86,0-5.18-2.32-5.18-5.18v-2.59h25.88Z"/>
    <rect class="cls-1" x="23.25" y="15.11" width="10.35" height="1.29" rx=".65" ry=".65"/>
    <circle class="cls-1" cx="37.16" cy="36.14" r=".97"/>
    <circle class="cls-1" cx="19.69" cy="36.14" r=".97"/>
    <path class="cls-2" d="M40.39,48.11c-.26,0-.52-.1-.71-.31l-3.92-4.22h-14.68l-3.92,4.22c-.36.39-.98.41-1.37.05-.39-.37-.42-.98-.05-1.37l4.21-4.53c.18-.2.44-.31.71-.31h15.53c.27,0,.53.11.71.31l4.21,4.53c.36.39.34,1.01-.05,1.37-.19.17-.42.26-.66.26Z"/>
    <rect class="cls-1" x="23.25" y="35.17" width="10.35" height="1.94"/>
  </g>
</svg>