<?xml version="1.0" encoding="UTF-8"?>
<svg id="Layer_1" data-name="Layer 1" xmlns="http://www.w3.org/2000/svg" viewBox="0 0 56.69 56.69">
  <defs>
    <style>
      .cls-1 {
        fill: none;
        stroke: #296991;
        stroke-linecap: round;
        stroke-linejoin: round;
        stroke-width: 1.48px;
      }

      .cls-2 {
        fill: #fff;
      }

      .cls-3 {
        fill: #8bb4c9;
      }
    </style>
  </defs>
  <rect class="cls-2" width="56.69" height="56.69" rx="3.5" ry="3.5"/>
  <path class="cls-1" d="M11.75,5.86s2.67,8.15,3.73,13.22c1.74,8.3-1.44,10.95-2.77,15.6-3.09,10.75,2.49,16.8,2.49,16.8"/>
  <path class="cls-1" d="M40.56,4.85s3.49,4.15.09,7.96c-2.3,2.58-2.61,2.27-2.61,2.27,0,0,9.78,8.05,9.79,17.35.01,11.83-9.16,13.05-9.06,19.07"/>
  <path class="cls-3" d="M28.53,23.13c-2.48.89-4.25,3.31-3.21,6.03,1.04,2.73,3.54,3.42,3.54,3.42,0,0-1.8,7.22,5.67,9.34,8.89,2.53,8.8-5.56,8.72-6.88-.08-1.32,1.54-1.46.73-3.28-.64-1.44-2.89-1.01-4.02,2.34-.49,1.44.08-6.14-5.02-4.22-.57.21-1.09.23-.57-.8,1.01-2-.55-7.84-5.84-5.95Z"/>
</svg>