<?xml version="1.0" encoding="UTF-8"?>
<svg id="Layer_1" data-name="Layer 1" xmlns="http://www.w3.org/2000/svg" viewBox="0 0 56.69 56.69">
  <defs>
    <style>
      .cls-1 {
        fill: #fbf3ec;
      }

      .cls-2 {
        fill: #fff;
      }

      .cls-3 {
        fill: #cc8544;
      }
    </style>
  </defs>
  <path class="cls-2" d="M51.65,12.93L30.04.45c-1.05-.61-2.34-.61-3.39,0L5.04,12.93c-1.05.61-1.69,1.72-1.69,2.94v24.96c0,1.21.65,2.33,1.69,2.94l21.61,12.48c1.05.61,2.34.61,3.39,0l21.61-12.48c1.05-.61,1.69-1.72,1.69-2.94V15.87c0-1.21-.65-2.33-1.69-2.94Z"/>
  <g>
    <circle class="cls-3" cx="27.41" cy="17.07" r="6.34"/>
    <path class="cls-3" d="M42.27,40.25s-3.32,5.07-14.87,5.07c-10.57,0-14.87-5.07-14.87-5.07,0-8.21,6.66-14.87,14.87-14.87s14.87,6.66,14.87,14.87Z"/>
    <g id="Artwork_64x64" data-name="Artwork 64x64">
      <path class="cls-1" d="M36.54,32.43c-1.02-1.18-2.8-1.31-3.98-.28-.06.06-.13.11-.19.18l-.46.45s-.08.03-.11,0h0s-.52-.52-.52-.52c-1.09-1.09-2.85-1.09-3.94,0h0c-1.09,1.09-1.09,2.85,0,3.94,0,0,0,0,0,0l3.96,3.97c.3.3.79.3,1.1,0l3.97-3.96c1.03-1.02,1.1-2.66.16-3.77Z"/>
      <path class="cls-3" d="M31,38.38c-.11,0-.22-.07-.26-.17l-1.12-2.51-.54.93c-.05.09-.15.14-.25.14h-1.85c-.16,0-.29-.13-.29-.29s.13-.29.29-.29h1.68l.74-1.27c.06-.09.16-.15.26-.14.11,0,.2.07.25.17l1.06,2.39,1.33-3.54c.04-.11.14-.19.26-.19.12,0,.22.07.27.18l1.02,2.41h.66c.16,0,.29.13.29.29s-.13.29-.29.29h-.86c-.11,0-.22-.07-.26-.17l-.81-1.92-1.33,3.52c-.04.11-.14.19-.26.19h0Z"/>
    </g>
  </g>
</svg>