<?xml version="1.0" encoding="UTF-8"?>
<svg id="Layer_1" data-name="Layer 1" xmlns="http://www.w3.org/2000/svg" viewBox="0 0 56.69 56.69">
  <defs>
    <style>
      .cls-1 {
        fill: #fff;
      }

      .cls-2 {
        fill: #778558;
      }

      .cls-3 {
        fill: #96a57f;
      }

      .cls-4 {
        fill: #d6dbcd;
      }

      .cls-5 {
        fill: #b9c3a9;
      }
    </style>
  </defs>
  <path class="cls-1" d="M30.07.44l1.04.56c15.97,8.7,25.73,25.61,25.28,43.79l-.03,1.18c-.03,1.23-.68,2.35-1.73,2.99l-1.01.61c-15.52,9.48-35.04,9.48-50.57,0l-1.01-.61c-1.05-.64-1.7-1.77-1.73-2.99l-.03-1.18C-.15,26.61,9.61,9.71,25.58,1l1.04-.56c1.08-.59,2.38-.59,3.46,0Z"/>
  <g>
    <g>
      <path class="cls-5" d="M46.76,37.97v-.05s0,0-.09-.18l-.1-.11-.18-.06-.08.04s-.08.03-.13.05v-.13s-.25-.15-.25-.15l-.1.03c-.06,0-.19.05-.29.1l-.07.05-.03.07c-.02.05-.04.1-.05.14-.03.11-.04.16-.23.31l-.41.34c-.16.13-.32.27-.49.4-.02-.13-.05-.26-.07-.39-.03-.14-.06-.28-.07-.41,0-.11-.02-.21-.02-.31,0-.02-.02-.11-.03-.21-.02-.14-.13-.23-.25-.24-.14-.02-.26.06-.31.19,0,.02,0,.04-.02.05-.05-.04-.1-.06-.13-.08l-.2-.05-.13.13c-.14.13-.05.27.04.41.13.19.44.69.43,1.03,0,.17,0,.34-.06.47-.27.67-.56,1.34-.85,2.02l-.05-1.19c0-.21-.02-.41-.03-.62-.03-.49-.05-.98-.04-1.48.05-1.31.18-2.8,1.17-3.67.13-.11,1.21-.97,1.76-1.41l.1-.07-.06-.63-.35-.15-.24.19c-.83.63-1.38,1.04-1.68,1.29l.4-1.55-.79-.13-.03.22c-.02.09-.29,1.4-.51,2.07-.29.86-.49,1.58-.62,2.26,0,.02,0,.05,0,.08l-.98-4.3-.06-.12-.17-.1-.46.13-.14.07-.03.14q0,.06.56,2.56c.27,1.16.55,2.37.62,2.73.15.72.3,1.41.29,2.1-.02,1.35-.06,2.66-.1,3.89,0,.35-.02.7-.02,1.06-.02.84-.03,1.7-.14,2.56l-.04.26h1.83v-.22c0-.18-.02-.37-.05-.57,0-.08,0-.16-.02-.24-.16-2.3.24-4.34,1.26-6.22.19-.35.4-.61.7-.85.33-.26.6-.49.86-.7.33-.28.73-.43.93-.51.09-.04.13-.05.18-.08l.16-.08-.05-.18Z"/>
      <path class="cls-2" d="M49.11,35.96c-.32-.69-1.09-1.05-1.81-1.15-.22-.03-.45-.04-.66-.12-.21-.08-.39-.23-.56-.38-.32-.28-.63-.57-.99-.8-.57-.36-1.38-.41-1.98-.08-.86.47-.67,1.21-.99,1.99-.31.75-1.23.98-.82,1.99.26.65.92,1.06,1.62,1.08.38,0,.7-.13,1.04-.29.16-.07.36-.18.54-.15.22.03.35.25.51.38.53.44,1.25.67,1.93.55.35-.06.67-.23.92-.47.14-.14.26-.31.41-.44.15-.13.35-.21.51-.33.52-.42.61-1.19.33-1.77Z"/>
      <path class="cls-2" d="M49.15,28.02c.05-.12.09-.25.11-.38.17-.87-.13-1.82-.72-2.48-.85-.95-2.12-.8-3.07-1.54-1.06-.83-2.14-1.32-3.54-1.25-.63.03-1.37.14-1.89.52-.56.4-.74,1.11-1.24,1.56-.66.6-1.4.25-2.15.61-1.11.52-1.89,1.58-2.07,2.79-.17,1.11.57,1.97,1.46,2.5,1.05.62.86,1.37,1.6,2.23,1.02,1.2,2.57,1.2,3.92.56.46-.22.87-.66,1.33-.69.94-.07,1.77.67,2.66.85,1.35.28,2.97-.33,3.45-1.75.2-.59.04-1.02-.08-1.59-.18-.81-.06-1.15.23-1.93Z"/>
    </g>
    <g>
      <path class="cls-3" d="M21.09,18.95h10.99c.69,0,1.25.56,1.25,1.25v26.23h-12.24v-27.48h0Z"/>
      <path class="cls-3" d="M12.97,18.95h10.99v27.48h-12.24v-26.23c0-.69.56-1.25,1.25-1.25Z"/>
      <rect class="cls-2" x="9.63" y="46.43" width="38.14" height="2.7" rx="1.35" ry="1.35"/>
      <g>
        <g>
          <rect class="cls-4" x="23.42" y="22.18" width="3.01" height="3.01" rx=".28" ry=".28"/>
          <rect class="cls-4" x="27.99" y="22.18" width="3.01" height="3.01" rx=".28" ry=".28"/>
          <rect class="cls-4" x="23.42" y="26.94" width="3.01" height="3.01" rx=".28" ry=".28"/>
          <rect class="cls-4" x="27.99" y="26.94" width="3.01" height="3.01" rx=".28" ry=".28"/>
          <rect class="cls-4" x="23.42" y="31.7" width="3.01" height="3.01" rx=".28" ry=".28"/>
          <rect class="cls-4" x="27.99" y="31.7" width="3.01" height="3.01" rx=".28" ry=".28"/>
          <rect class="cls-4" x="23.42" y="36.45" width="3.01" height="3.01" rx=".28" ry=".28"/>
          <rect class="cls-4" x="27.99" y="36.45" width="3.01" height="3.01" rx=".28" ry=".28"/>
          <rect class="cls-4" x="23.42" y="41.21" width="3.01" height="3.01" rx=".28" ry=".28"/>
          <rect class="cls-4" x="27.99" y="41.21" width="3.01" height="3.01" rx=".28" ry=".28"/>
        </g>
        <g>
          <rect class="cls-4" x="14.06" y="22.18" width="3.01" height="3.01" rx=".28" ry=".28"/>
          <rect class="cls-4" x="18.62" y="22.18" width="3.01" height="3.01" rx=".28" ry=".28"/>
          <rect class="cls-4" x="14.06" y="26.94" width="3.01" height="3.01" rx=".28" ry=".28"/>
          <rect class="cls-4" x="18.62" y="26.94" width="3.01" height="3.01" rx=".28" ry=".28"/>
          <rect class="cls-4" x="14.06" y="31.7" width="3.01" height="3.01" rx=".28" ry=".28"/>
          <rect class="cls-4" x="18.62" y="31.7" width="3.01" height="3.01" rx=".28" ry=".28"/>
          <rect class="cls-4" x="14.06" y="36.45" width="3.01" height="3.01" rx=".28" ry=".28"/>
          <rect class="cls-4" x="18.62" y="36.45" width="3.01" height="3.01" rx=".28" ry=".28"/>
          <rect class="cls-4" x="14.06" y="41.21" width="3.01" height="3.01" rx=".28" ry=".28"/>
          <rect class="cls-4" x="18.62" y="41.21" width="3.01" height="3.01" rx=".28" ry=".28"/>
        </g>
      </g>
      <rect class="cls-2" x="10.73" y="17.88" width="23.55" height="2.67" rx="1.25" ry="1.25"/>
    </g>
  </g>
</svg>