<?xml version="1.0" encoding="UTF-8"?>
<svg id="Layer_1" data-name="Layer 1" xmlns="http://www.w3.org/2000/svg" viewBox="0 0 56.69 56.69">
  <defs>
    <style>
      .cls-1 {
        fill: none;
        stroke: #8bb4c9;
        stroke-linecap: round;
        stroke-miterlimit: 10;
        stroke-width: 1.48px;
      }

      .cls-2 {
        fill: #fff;
      }

      .cls-3 {
        fill: #8bb4c9;
      }

      .cls-4 {
        fill: #296991;
      }
    </style>
  </defs>
  <rect class="cls-2" width="56.69" height="56.69" rx="3.5" ry="3.5"/>
  <g>
    <circle class="cls-1" cx="40.17" cy="35.48" r="4.1"/>
    <circle class="cls-1" cx="24.38" cy="40.61" r="2.42"/>
    <circle class="cls-1" cx="33.36" cy="45.34" r="2.42"/>
    <circle class="cls-1" cx="48.27" cy="42.24" r="2.42"/>
    <circle class="cls-1" cx="43.78" cy="22.05" r="2.42"/>
    <line class="cls-1" x1="36.54" y1="33.57" x2="28.51" y2="27.28"/>
    <line class="cls-1" x1="34.85" y1="43.02" x2="37.64" y2="38.69"/>
    <line class="cls-1" x1="26.52" y1="41.73" x2="31.23" y2="44.2"/>
    <line class="cls-1" x1="46.43" y1="40.61" x2="43.3" y2="38.13"/>
    <line class="cls-1" x1="43.27" y1="24.41" x2="41.74" y2="31.39"/>
  </g>
  <g>
    <path class="cls-3" d="M23.42,20.84s3.74,12.63.66,13.79c-3.08,1.16-3.22-.93-3.38-1.73s1.13-12,1.13-12l1.6-.06Z"/>
    <path class="cls-3" d="M21.96,17.07s-5.77-11.84-8.82-10.61-1.75,2.86-1.32,3.56,8.93,8.09,8.93,8.09l1.21-1.04Z"/>
    <path class="cls-4" d="M16.72,33.47l2.71-3.55c.31-.41.43-.94.33-1.45l-.69-3.28c-.03-.15,0-.3.06-.44l1.16-2.23c.03-.06.04-.12.05-.18.42-.11.86-.25,1.29-.42,1.12-.43,2.09-1,2.82-1.59l2.85,2.45c.68.58,1.65.58,2.33,0l1.64-1.41c.21-.18.51-.21.75-.08l3.47,1.95c.27.15.62.06.77-.22.15-.27.05-.61-.22-.77l-3.47-1.95c-.65-.37-1.47-.28-2.04.21l-1.64,1.41c-.25.21-.61.21-.86,0l-2.77-2.38c.27-.32.47-.64.57-.94.51.47,1.26.63,1.95.37.46-.18.81-.53,1.01-.94.1-.02.73-.1,1.29.63.19.25.54.3.79.11.25-.19.29-.54.11-.79-.69-.91-1.53-1.08-2.02-1.08-.02-.12-.05-.25-.1-.37-.04-.1-.09-.19-.14-.28.36-.34.86-1.02.75-2.16-.03-.31-.3-.54-.61-.51-.31.03-.54.3-.51.61.07.8-.31,1.18-.47,1.3-.45-.2-.97-.23-1.46-.04-.68.27-1.13.89-1.19,1.58-.28-.15-.63-.25-1.03-.3l.43-3.58c.04-.32.31-.57.63-.58l2.16-.06c.75-.02,1.41-.51,1.64-1.22l1.25-3.78c.1-.3-.06-.61-.36-.71-.3-.1-.61.06-.71.36l-1.25,3.78c-.09.26-.33.44-.6.45l-2.16.06c-.89.03-1.61.69-1.72,1.57l-.45,3.68c-.95.05-2.05.29-3.18.73-.45.18-.87.37-1.27.58-.03-.02-.06-.05-.1-.06l-2.36-.87c-.14-.05-.26-.15-.34-.28l-1.7-2.88c-.26-.45-.71-.76-1.22-.85l-4.39-.79c-.31-.06-.6.15-.66.45-.02.11,0,.21.03.3.07.18.23.32.43.35l4.39.79c.19.03.35.15.45.31l1.7,2.88c.21.35.54.63.92.77l1.66.61c-.15.11-.29.22-.42.33-.02,0-.03-.02-.05-.02l-4.05-.69c-.18-.03-.33-.13-.43-.28l-.83-1.23c-.33-.49-.87-.78-1.45-.79l-4.99-.07c-.31,0-.57.24-.57.56,0,.07.01.15.04.21.08.21.28.36.52.36l4.99.07c.21,0,.41.11.53.29l.83,1.23c.27.4.7.68,1.18.76l3.35.57c-.07.1-.15.21-.21.31-.9-.02-2.09.22-3.32.7-2.34.91-3.96,2.35-3.62,3.22s2.51.85,4.85-.06c1.24-.48,2.27-1.11,2.92-1.73.13.04.27.07.41.1l-2.11,2.72c-.3.38-.43.88-.36,1.36l.22,1.47c.03.21-.04.43-.2.57l-3.63,3.42c-.17.16-.22.41-.14.61.03.07.06.13.11.18.21.23.57.24.8.02l3.63-3.42c.43-.4.63-.98.54-1.56l-.22-1.47c-.03-.18.02-.36.13-.5l2.52-3.24s.03-.07.05-.1c.17,0,.35-.02.53-.05l-.84,1.63c-.19.36-.25.79-.16,1.19l.69,3.28c.04.19,0,.38-.12.53l-2.71,3.55c-.12.16-.15.37-.08.55.04.09.1.18.18.24.25.19.6.14.79-.11Z"/>
  </g>
</svg>