<?xml version="1.0" encoding="UTF-8"?>
<svg id="Layer_1" data-name="Layer 1" xmlns="http://www.w3.org/2000/svg" viewBox="0 0 56.69 56.69">
  <defs>
    <style>
      .cls-1 {
        fill: #fff;
      }

      .cls-2 {
        fill: #132d4a;
      }

      .cls-3 {
        fill: #8595a6;
      }
    </style>
  </defs>
  <rect class="cls-1" width="56.69" height="56.69" rx="3.5" ry="3.5"/>
  <g id="Artwork_64x64" data-name="Artwork 64x64">
    <polygon class="cls-3" points="48.95 18.67 38.57 18.67 46.23 11.01 45.25 10.02 37.59 17.69 37.59 6.85 36.2 6.85 36.2 17.69 28.86 10.35 27.87 11.34 35.21 18.67 24.84 18.67 24.84 20.06 35.21 20.06 27.55 27.73 28.53 28.71 36.2 21.05 36.2 31.89 37.59 31.89 37.59 21.05 44.92 28.39 45.91 27.4 38.57 20.06 48.95 20.06 48.95 18.67"/>
    <path class="cls-2" d="M48.95,17.09c-.28-.26-.72-.25-.98.03-.25.27-.25.68,0,.95.71.72.71,1.88,0,2.6-.27.27-.27.71,0,.98,0,0,0,0,0,0,.27.27.71.27.98,0,1.25-1.26,1.25-3.3,0-4.56Z"/>
    <path class="cls-2" d="M25.84,17.09c-.27-.27-.71-.27-.98,0,0,0,0,0,0,0-1.25,1.26-1.25,3.3,0,4.56.27.27.71.27.98,0,.27-.27.27-.71,0-.98,0,0,0,0,0,0-.71-.72-.71-1.88,0-2.6.27-.27.27-.71,0-.98,0,0,0,0,0,0Z"/>
    <path class="cls-2" d="M46.32,25.57c-.38,0-.7.31-.7.7,0,1.02-.83,1.85-1.85,1.85-.38,0-.7.31-.7.7s.31.7.7.7c1.79,0,3.25-1.45,3.25-3.25,0-.38-.31-.7-.7-.7Z"/>
    <path class="cls-2" d="M27.46,13.17c.38,0,.7-.31.7-.7,0-1.02.83-1.85,1.85-1.85.38,0,.7-.31.7-.7s-.31-.7-.7-.7c-1.79,0-3.25,1.45-3.25,3.25,0,.38.31.7.7.7Z"/>
    <path class="cls-2" d="M35.59,7.85c.72-.71,1.88-.71,2.6,0,.27.27.71.27.99,0,.27-.27.27-.71,0-.98-1.26-1.25-3.3-1.25-4.56,0-.29.25-.33.69-.08.98.25.29.69.33.98.08.03-.02.05-.05.08-.08Z"/>
    <path class="cls-2" d="M38.19,30.88c-.72.71-1.88.71-2.6,0-.28-.27-.72-.27-.99,0-.27.28-.27.72,0,.99h0c1.26,1.25,3.3,1.25,4.56,0,.28-.26.3-.7.03-.98s-.7-.3-.98-.03c-.01.01-.02.02-.03.03v-.02Z"/>
    <path class="cls-2" d="M44.12,8.91c-.38,0-.7.31-.7.7s.31.7.7.7c1.02,0,1.85.83,1.85,1.85h0c0,.38.31.7.7.7s.7-.31.7-.7c0-1.79-1.45-3.25-3.25-3.25h0Z"/>
    <path class="cls-2" d="M29.67,28.43c-1.02,0-1.85-.83-1.85-1.85,0-.38-.31-.7-.7-.7s-.7.31-.7.7c0,1.79,1.45,3.25,3.25,3.25.38,0,.7-.31.7-.7s-.31-.7-.7-.7Z"/>
    <circle class="cls-2" cx="36.89" cy="19.37" r="9.27"/>
    <circle class="cls-1" cx="41.83" cy="16.15" r="1.85"/>
    <path class="cls-1" d="M34.55,18.26c-1.92,0-3.48,1.56-3.48,3.48s1.56,3.48,3.48,3.48,3.48-1.56,3.48-3.48c0-1.92-1.56-3.48-3.48-3.48ZM34.55,23.83c-1.15,0-2.09-.93-2.09-2.09s.93-2.09,2.09-2.09,2.09.93,2.09,2.09c0,1.15-.93,2.08-2.08,2.09,0,0,0,0,0,0Z"/>
    <circle class="cls-1" cx="36.89" cy="13.53" r=".93"/>
    <circle class="cls-1" cx="39.29" cy="24.79" r=".93"/>
    <circle class="cls-1" cx="30.44" cy="17.78" r=".93"/>
  </g>
  <g id="Artwork_64x64-2" data-name="Artwork 64x64">
    <polygon class="cls-3" points="22.72 33.34 16.08 33.34 20.98 28.44 20.35 27.81 15.45 32.71 15.45 25.78 14.56 25.78 14.56 32.71 9.86 28.02 9.23 28.65 13.93 33.34 7.29 33.34 7.29 34.23 13.93 34.23 9.02 39.14 9.65 39.77 14.56 34.86 14.56 41.8 15.45 41.8 15.45 34.86 20.14 39.56 20.77 38.93 16.08 34.23 22.72 34.23 22.72 33.34"/>
    <path class="cls-2" d="M22.72,32.33c-.18-.17-.46-.16-.63.02-.16.17-.16.44,0,.61.45.46.45,1.2,0,1.66-.17.17-.18.45,0,.63,0,0,0,0,0,0,.17.17.46.17.63,0,.8-.81.8-2.11,0-2.92Z"/>
    <path class="cls-2" d="M7.93,32.33c-.17-.17-.45-.18-.63,0,0,0,0,0,0,0-.8.81-.8,2.11,0,2.92.17.17.46.17.63,0,.17-.17.18-.45,0-.63,0,0,0,0,0,0-.45-.46-.45-1.2,0-1.66.17-.17.18-.45,0-.63,0,0,0,0,0,0Z"/>
    <path class="cls-2" d="M21.04,37.76c-.25,0-.45.2-.45.45,0,.66-.53,1.19-1.19,1.19-.25,0-.45.2-.45.45s.2.45.45.45c1.15,0,2.08-.93,2.08-2.08,0-.25-.2-.45-.45-.45Z"/>
    <path class="cls-2" d="M8.97,29.82c.25,0,.45-.2.45-.45,0-.66.53-1.19,1.19-1.19.25,0,.45-.2.45-.45s-.2-.45-.45-.45c-1.15,0-2.08.93-2.08,2.08,0,.25.2.45.45.45Z"/>
    <path class="cls-2" d="M14.17,26.42c.46-.45,1.2-.45,1.66,0,.17.17.46.17.63,0,.17-.17.17-.46,0-.63-.81-.8-2.11-.8-2.92,0-.19.16-.21.44-.05.63.16.19.44.21.63.05.02-.01.03-.03.05-.05Z"/>
    <path class="cls-2" d="M15.83,41.16c-.46.45-1.2.45-1.66,0-.18-.17-.46-.17-.63,0-.17.18-.17.46,0,.63h0c.81.8,2.11.8,2.92,0,.18-.17.19-.45.02-.63s-.45-.19-.63-.02c0,0-.02.01-.02.02h0Z"/>
    <path class="cls-2" d="M19.63,27.1c-.25,0-.45.2-.45.45s.2.45.45.45c.66,0,1.19.53,1.19,1.19h0c0,.25.2.45.45.45s.45-.2.45-.45c0-1.15-.93-2.08-2.08-2.08h0Z"/>
    <path class="cls-2" d="M10.38,39.59c-.66,0-1.19-.53-1.19-1.19,0-.25-.2-.45-.45-.45s-.45.2-.45.45c0,1.15.93,2.08,2.08,2.08.25,0,.45-.2.45-.45s-.2-.45-.45-.45Z"/>
    <circle class="cls-2" cx="15" cy="33.79" r="5.93"/>
    <circle class="cls-1" cx="18.16" cy="31.73" r="1.19"/>
    <path class="cls-1" d="M13.5,33.08c-1.23,0-2.23,1-2.23,2.23s1,2.23,2.23,2.23,2.23-1,2.23-2.23c0-1.23-1-2.22-2.23-2.23ZM13.5,36.64c-.74,0-1.34-.6-1.34-1.34s.6-1.34,1.34-1.34,1.34.6,1.34,1.34c0,.74-.59,1.33-1.33,1.34,0,0,0,0,0,0Z"/>
  </g>
  <g id="Artwork_64x64-3" data-name="Artwork 64x64">
    <polygon class="cls-3" points="36.23 43.83 31.24 43.83 34.93 40.15 34.46 39.68 30.77 43.36 30.77 38.15 30.1 38.15 30.1 43.36 26.58 39.83 26.1 40.31 29.63 43.83 24.64 43.83 24.64 44.5 29.63 44.5 25.95 48.19 26.42 48.66 30.1 44.97 30.1 50.18 30.77 50.18 30.77 44.97 34.3 48.5 34.77 48.03 31.24 44.5 36.23 44.5 36.23 43.83"/>
    <path class="cls-2" d="M36.23,43.07c-.14-.13-.35-.12-.47.02-.12.13-.12.33,0,.46.34.35.34.9,0,1.25-.13.13-.13.34,0,.47,0,0,0,0,0,0,.13.13.34.13.47,0,.6-.61.6-1.59,0-2.19Z"/>
    <path class="cls-2" d="M25.12,43.07c-.13-.13-.34-.13-.47,0,0,0,0,0,0,0-.6.61-.6,1.59,0,2.19.13.13.34.13.47,0,.13-.13.13-.34,0-.47,0,0,0,0,0,0-.34-.35-.34-.9,0-1.25.13-.13.13-.34,0-.47,0,0,0,0,0,0Z"/>
    <path class="cls-2" d="M34.97,47.15c-.18,0-.33.15-.33.33,0,.49-.4.89-.89.89-.18,0-.33.15-.33.33s.15.33.33.33c.86,0,1.56-.7,1.56-1.56,0-.18-.15-.33-.33-.33Z"/>
    <path class="cls-2" d="M25.9,41.19c.18,0,.33-.15.33-.33,0-.49.4-.89.89-.89.18,0,.33-.15.33-.33s-.15-.33-.33-.33c-.86,0-1.56.7-1.56,1.56,0,.18.15.33.33.33Z"/>
    <path class="cls-2" d="M29.81,38.63c.35-.34.9-.34,1.25,0,.13.13.34.13.47,0,.13-.13.13-.34,0-.47-.61-.6-1.59-.6-2.19,0-.14.12-.16.33-.04.47.12.14.33.16.47.04.01-.01.03-.02.04-.04Z"/>
    <path class="cls-2" d="M31.06,49.7c-.35.34-.9.34-1.25,0-.13-.13-.35-.13-.48,0-.13.13-.13.35,0,.48h0c.61.6,1.59.6,2.19,0,.14-.13.14-.34.02-.47s-.34-.14-.47-.02c0,0-.01.01-.02.02h0Z"/>
    <path class="cls-2" d="M33.91,39.14c-.18,0-.33.15-.33.33s.15.33.33.33c.49,0,.89.4.89.89h0c0,.18.15.33.33.33s.33-.15.33-.33c0-.86-.7-1.56-1.56-1.56h0Z"/>
    <path class="cls-2" d="M26.97,48.52c-.49,0-.89-.4-.89-.89,0-.18-.15-.33-.33-.33s-.33.15-.33.33c0,.86.7,1.56,1.56,1.56.18,0,.33-.15.33-.33s-.15-.33-.33-.33Z"/>
    <circle class="cls-2" cx="30.44" cy="44.17" r="4.46"/>
  </g>
</svg>