<?xml version="1.0" encoding="UTF-8"?>
<svg id="Layer_1" data-name="Layer 1" xmlns="http://www.w3.org/2000/svg" viewBox="0 0 56.69 56.69">
  <defs>
    <style>
      .cls-1 {
        stroke: #f4bf96;
        stroke-miterlimit: 10;
      }

      .cls-1, .cls-2 {
        fill: none;
        stroke-linecap: round;
        stroke-width: 1.17px;
      }

      .cls-3 {
        fill: #fff;
      }

      .cls-4 {
        fill: #cc8544;
      }

      .cls-2 {
        stroke: #cc8544;
        stroke-linejoin: round;
      }
    </style>
  </defs>
  <path class="cls-3" d="M51.65,12.93L30.04.45c-1.05-.61-2.34-.61-3.39,0L5.04,12.93c-1.05.61-1.69,1.72-1.69,2.94v24.96c0,1.21.65,2.33,1.69,2.94l21.61,12.48c1.05.61,2.34.61,3.39,0l21.61-12.48c1.05-.61,1.69-1.72,1.69-2.94V15.87c0-1.21-.65-2.33-1.69-2.94Z"/>
  <g>
    <circle class="cls-1" cx="32.34" cy="19.83" r="3.26"/>
    <circle class="cls-1" cx="41.74" cy="30.5" r="2.8"/>
    <circle class="cls-1" cx="43.85" cy="16.63" r="2.12"/>
    <circle class="cls-1" cx="21.39" cy="13.8" r="1.92"/>
    <line class="cls-1" x1="30.04" y1="22.13" x2="25.21" y2="26.96"/>
    <line class="cls-1" x1="39.76" y1="28.52" x2="33.93" y2="22.69"/>
    <line class="cls-1" x1="41.84" y1="17.29" x2="35.61" y2="19.33"/>
    <line class="cls-1" x1="23.15" y1="14.72" x2="29.32" y2="17.98"/>
  </g>
  <g>
    <path class="cls-4" d="M30.82,33.85c0,6.27-5.49,6.27-6.27,6.27-.86,0-6.27,0-6.27-6.27,0-3.96,3.33-6.27,5.66-10.47.26-.48.96-.48,1.22,0,2.33,4.2,5.66,6.51,5.66,10.47Z"/>
    <path class="cls-2" d="M31.24,38.78c.7.39,1.1.86,1.1,1.35,0,1.44-3.39,2.6-7.57,2.6s-7.57-1.16-7.57-2.6c0-.45.33-.87.91-1.24"/>
    <path class="cls-2" d="M32.69,37.25c2.77.78,4.53,1.97,4.53,3.3,0,2.36-5.57,4.27-12.44,4.27s-12.44-1.91-12.44-4.27c0-1.28,1.63-2.42,4.22-3.21"/>
    <path class="cls-1" d="M28.96,32.15s1.42,3.9-1.4,5.46"/>
  </g>
</svg>