<?xml version="1.0" encoding="UTF-8"?>
<svg id="Layer_1" data-name="Layer 1" xmlns="http://www.w3.org/2000/svg" viewBox="0 0 56.69 56.69">
  <defs>
    <style>
      .cls-1 {
        fill: #fff;
      }

      .cls-2 {
        fill: #cc8544;
      }

      .cls-3 {
        stroke: #cc8544;
        stroke-width: 3px;
      }

      .cls-3, .cls-4 {
        fill: none;
        stroke-linecap: round;
        stroke-linejoin: round;
      }

      .cls-4 {
        stroke: #f4bf96;
        stroke-width: 1.27px;
      }
    </style>
  </defs>
  <path class="cls-1" d="M51.65,12.93L30.04.45c-1.05-.61-2.34-.61-3.39,0L5.04,12.93c-1.05.61-1.69,1.72-1.69,2.94v24.96c0,1.21.65,2.33,1.69,2.94l21.61,12.48c1.05.61,2.34.61,3.39,0l21.61-12.48c1.05-.61,1.69-1.72,1.69-2.94V15.87c0-1.21-.65-2.33-1.69-2.94Z"/>
  <g>
    <g id="Artwork_64x64" data-name="Artwork 64x64">
      <circle class="cls-2" cx="18" cy="19.02" r="2.38"/>
      <path class="cls-2" d="M18.44,21.96l-3.8-.51c-.95,0-1.92.71-1.92,1.63,0,0-1.63,5.08-2.64,8.96-.69,2.68-1.84,8.21-1.84,8.21.02.81.7,1.44,1.5,1.42.75-.02,1.36-.6,1.41-1.35l2.26-8.28h3.33l2.93-8.04c.04-.99-.12-2.04-1.22-2.04Z"/>
    </g>
    <path class="cls-2" d="M7.73,28.18l.23-4.33c.03-.58.45-1.06.99-1.18l.11-.02,5.13-1.16c1.93-.4,2.55,2.48.61,2.9,0,0-5.16,1.01-5.16,1.01l1.11-1.2-.83,4.26c-.27,1.34-2.26,1.08-2.2-.27h0Z"/>
    <path class="cls-2" d="M23.9,27.53l-2.83,1.37c-.59.28-1.29.06-1.61-.5l-.05-.1-2.34-4.1c-.41-.72-.16-1.64.56-2.06.76-.44,1.76-.12,2.12.69,0,0,1.94,4.3,1.94,4.3l-1.66-.59,2.92-1.17c1.4-.54,2.28,1.48.95,2.15h0Z"/>
    <polyline class="cls-3" points="14.94 31.44 17.29 35.25 16.42 39.96"/>
  </g>
  <g>
    <path class="cls-4" d="M46.54,16.82c0-1.21-.98-2.2-2.2-2.2s-2.2.98-2.2,2.2c0,1.21.98,2.2,2.2,2.2"/>
    <path class="cls-4" d="M29.14,21.19c-.58-1.07-1.92-1.46-2.98-.88s-1.46,1.92-.88,2.98,1.92,1.46,2.98.88"/>
    <path class="cls-4" d="M34.41,27.99c-.03-1.13-.97-2.03-2.1-2-1.13.03-2.03.97-2,2.1s.97,2.03,2.1,2"/>
    <path class="cls-4" d="M38.19,19.02c0-2.63-2.13-4.77-4.77-4.77s-4.77,2.13-4.77,4.77,2.13,4.77,4.77,4.77"/>
    <path class="cls-4" d="M27.99,30.1c-1.28,0-2.32,1.04-2.32,2.32,0,1.28,1.04,2.32,2.32,2.32s2.32-1.04,2.32-2.32"/>
    <path class="cls-4" d="M43.71,28.53c0-.87-.7-1.57-1.57-1.57s-1.57.7-1.57,1.57.7,1.57,1.57,1.57"/>
    <line class="cls-4" x1="44.34" y1="19.02" x2="50.15" y2="19.02"/>
    <path class="cls-4" d="M40.96,38.06c0,1.21-.98,2.2-2.2,2.2s-2.2-.98-2.2-2.2c0-1.21.98-2.2,2.2-2.2"/>
    <line class="cls-4" x1="38.77" y1="35.86" x2="44.58" y2="35.86"/>
    <line class="cls-4" x1="33.42" y1="23.79" x2="45.23" y2="23.79"/>
    <line class="cls-4" x1="27.99" y1="30.1" x2="47.52" y2="30.1"/>
  </g>
</svg>