<?xml version="1.0" encoding="UTF-8"?>
<svg id="Layer_1" data-name="Layer 1" xmlns="http://www.w3.org/2000/svg" viewBox="0 0 56.69 56.69">
  <defs>
    <style>
      .cls-1 {
        fill: #fff;
      }

      .cls-2 {
        fill: #bbd2df;
      }

      .cls-3 {
        fill: #8bb4c9;
      }

      .cls-4 {
        fill: #e9f0f5;
      }

      .cls-5 {
        fill: #296991;
      }

      .cls-6 {
        fill: none;
        stroke: #296991;
        stroke-linecap: round;
        stroke-linejoin: round;
        stroke-width: 1.62px;
      }
    </style>
  </defs>
  <rect class="cls-1" y="0" width="56.69" height="56.69" rx="3.5" ry="3.5"/>
  <g>
    <g>
      <path class="cls-3" d="M20.25,33.21l-1.16.57c-.21.1-.42.19-.64.25-1.1.37-2.28.29-3.33-.22-.12-.06-.23-.12-.35-.19l-1-.59c-.1-.07-.22-.12-.33-.18.3-1.59,1.71-2.79,3.37-2.79,1.8,0,3.29,1.38,3.44,3.14Z"/>
      <path class="cls-3" d="M44.9,32.71c-.11.06-.23.11-.34.18l-1.21.69s-.05.03-.08.04c-1.04.58-2.24.71-3.35.41h0c-.38-.11-.75-.27-1.11-.48l-.67-.39c.17-1.74,1.63-3.09,3.42-3.09,1.62,0,2.99,1.12,3.34,2.64Z"/>
      <path class="cls-2" d="M18.54,33.52c0,.18-.03.36-.08.52-1.1.37-2.28.29-3.33-.22-.02-.09-.03-.2-.03-.3v-.02c0-.95.78-1.71,1.72-1.71s1.73.78,1.73,1.73Z"/>
      <path class="cls-2" d="M43.28,33.52s0,.07,0,.09c-1.04.58-2.24.71-3.35.41h0c-.06-.16-.08-.33-.08-.51,0-.02,0-.04,0-.06.03-.93.79-1.67,1.72-1.67s1.69.74,1.72,1.67c0,.02,0,.04,0,.06Z"/>
      <path class="cls-2" d="M49.87,31.61v.88c0,.29-.13.54-.34.69l-.37-.23c-1.07-.66-2.33-.84-3.51-.52-.48-1.83-2.13-3.17-4.1-3.17-2.08,0-3.8,1.48-4.17,3.47-1.43-.76-3.12-.69-4.5.17l-.85.53-5.04.05-1.49-.79c-1.3-.68-2.81-.69-4.12-.04l-.38.19c-.33-2.03-2.08-3.57-4.21-3.57s-3.71,1.41-4.14,3.31c-1.2-.33-2.49-.14-3.58.54-.11-.15-.18-.33-.18-.53v-.89c0-.49.4-.89.89-.89h.61v-13.6c0-1.47,1.18-2.65,2.64-2.65h20.4c1.45,0,2.63,1.18,2.63,2.65v1.24c.42-.2,1.02-.17,1.73-.16h3.41c1.93,0,3.49,4.97,4.78,6.25,1.03,1.03,3.01,1.38,3.01,2.84v3.33c.5,0,.89.4.89.89Z"/>
      <rect class="cls-5" x="37.54" y="16.75" width="2.81" height="1.65" rx=".6" ry=".6"/>
      <path class="cls-4" d="M37.56,19.89h3.47c.21,0,.4.11.51.29l2.12,3.62c.23.39-.05.89-.51.89h-5.59c-.33,0-.59-.26-.59-.59v-3.62c0-.33.26-.59.59-.59Z"/>
      <path class="cls-3" d="M35.25,27.72H10.39v-.39h0v-.39h24.85c.22,0,.39.18.39.39h0c0,.22-.18.39-.39.39Z"/>
      <rect class="cls-5" x="22.36" y="17.58" width="2.03" height="6.66" transform="translate(44.28 -2.46) rotate(90)"/>
      <rect class="cls-5" x="22.36" y="17.58" width="2.03" height="6.66" transform="translate(46.74 41.81) rotate(180)"/>
    </g>
    <g>
      <path class="cls-6" d="M9.07,33.12c1.09-.69,2.38-.87,3.58-.54"/>
      <path class="cls-6" d="M13.44,32.86c.11.06.23.11.33.18l1,.59c.11.07.23.13.35.19,1.05.51,2.23.58,3.33.22.22-.07.43-.15.64-.25l1.16-.57"/>
      <path class="cls-6" d="M13.44,32.86c-.26-.12-.53-.23-.8-.29"/>
      <path class="cls-6" d="M20.99,32.84l.38-.19c1.31-.66,2.83-.64,4.12.04l1.49.79"/>
      <path class="cls-6" d="M32.04,33.43l.85-.53c1.38-.86,3.07-.93,4.5-.17"/>
      <path class="cls-6" d="M27,33.47l.4.21c1.43.75,3.12.69,4.5-.17l.14-.08"/>
      <path class="cls-6" d="M38.13,33.16l.67.39c.36.21.72.37,1.11.48h0c1.12.3,2.31.17,3.35-.41.03,0,.05-.02.08-.04l1.21-.69c.11-.07.23-.12.34-.18h0"/>
      <path class="cls-6" d="M45.66,32.44c1.18-.32,2.44-.14,3.51.52l.37.23"/>
      <path class="cls-6" d="M45.66,32.44c-.25.07-.51.16-.75.27"/>
      <line class="cls-6" x1="52.33" y1="34.88" x2="49.53" y2="33.18"/>
      <path class="cls-6" d="M37.38,32.73c.07.03.13.07.2.1l.55.33"/>
      <line class="cls-6" x1="20.99" y1="32.84" x2="20.25" y2="33.21"/>
      <path class="cls-6" d="M6.36,34.88l2.61-1.71s.07-.04.09-.06"/>
      <path class="cls-6" d="M6.37,38.51l2.6-1.71c1.46-.96,3.3-1.01,4.8-.12l1,.59c1.33.78,2.94.84,4.32.15l2.29-1.14c1.31-.65,2.82-.64,4.12.04l1.9.99c1.43.75,3.12.69,4.5-.17l.99-.61c1.45-.9,3.23-.92,4.7-.06l1.22.72c1.41.83,3.13.84,4.55.03l1.21-.69c1.45-.83,3.19-.8,4.62.07l3.16,1.93"/>
      <path class="cls-6" d="M6.37,42.13l2.6-1.71c1.46-.96,3.3-1.01,4.8-.12l1,.59c1.33.78,2.94.84,4.32.15l2.29-1.14c1.31-.65,2.82-.64,4.12.04l1.9.99c1.43.75,3.12.69,4.5-.17l.99-.61c1.45-.9,3.23-.92,4.7-.06l1.22.72c1.41.83,3.13.84,4.55.03l1.21-.69c1.45-.83,3.19-.8,4.62.07l3.16,1.93"/>
    </g>
  </g>
</svg>