<?xml version="1.0" encoding="UTF-8"?>
<svg id="Layer_1" data-name="Layer 1" xmlns="http://www.w3.org/2000/svg" width="20mm" height="20mm" viewBox="0 0 56.69 56.69">
  <defs>
    <style>
      .cls-1 {
        fill: #0a2e4d;
      }

      .cls-2 {
        fill: #8595a6;
      }

      .cls-3 {
        fill: #e8eaed;
      }
    </style>
  </defs>
  <circle class="cls-1" cx="28.35" cy="28.35" r="28.35"/>
  <g>
    <g>
      <path class="cls-2" d="M31.95,37.65c-.81,1.53-1.87,2.74-2.94,3.69-.02.02-.03.02-.04.04-1.58,1.37-3.18,2.17-4.1,2.56-.2.07-.4.14-.61.19.55-.36,2.21-1.71,2.1-4.59-.02-.7-.12-1.32-.25-1.86-.03-.13-.06-.26-.1-.39-.03-.09-.05-.18-.09-.26-.05-.15-.11-.31-.18-.45-.05-.11-.09-.22-.15-.32-.1-.21-.21-.4-.32-.58-.12-.19-.24-.36-.37-.53-.07-.09-.14-.19-.21-.27-.06-.07-.12-.13-.18-.2-.12-.15-.26-.3-.4-.44-.13-.14-.26-.29-.39-.43-.07-.08-.14-.15-.21-.22-.14-.15-.27-.29-.39-.43-.08-.09-.15-.18-.22-.27-.07-.09-.13-.16-.19-.25-.22-.31-.41-.64-.57-1.01-.03-.08-.07-.16-.09-.25-.13-.34-.22-.7-.29-1.12-.02-.12-.04-.24-.05-.36h0c-.09-.8-1.04-1.14-1.56-.57-.03.04-.07.08-.1.12-.09.1-.16.2-.25.31-.09.1-.17.22-.26.33-.41.58-.81,1.28-1.13,2.09-.06.16-.12.33-.18.5-.05.15-.09.29-.13.45,0,.04-.02.09-.03.13-.05.16-.09.34-.12.51-.02.14-.05.27-.07.41-.02.09-.03.19-.04.29-.02.16-.04.32-.05.49-.02.22-.02.44-.02.67,0,.12,0,.24,0,.36v.09c0,.09.02.19.02.29,0,.06,0,.12.02.19.02.19.04.38.06.57.05.39-.32.69-.7.59-.2-.05-.43-.12-.65-.24-.02,0-.02,0-.04-.02-.16-.09-.32-.19-.49-.32-.33-.26-.83-.02-.86.41-.02.19-.02.41,0,.64,0,.02,0,.05,0,.09,0,.12,0,.25.02.37.02.16.03.33.05.5.02.12.04.24.06.37.05.25.11.52.19.79.04.14.09.28.13.43,0,.03.02.06.03.1.29.83.74,1.74,1.41,2.71.05.06.1.12.16.15-1.03-.43-1.97-1.01-2.8-1.72-.07-.03-.14-.07-.2-.12-2.4-1.98-5.17-5.69-3.73-11.74,1.56-6.58,5.64-7.22,8.25-12.04.98-1.81,1.25-3.69,1.28-5.1.02-.83,1-1.23,1.57-.63,1.72,1.82,4.24,4.87,5.47,8.17.63,1.7.86,3.32.87,4.75.02,1.33-.15,2.49-.35,3.37-.16.77.66,1.38,1.35.99.57-.33,1.18-.77,1.67-1.35.09-.11.18-.22.26-.33.43-.6,1.32-.54,1.61.13.83,1.98,1.63,5.49-.53,9.57Z"/>
      <path class="cls-3" d="M26.37,39.54c.11,2.88-1.55,4.23-2.1,4.59-.58.16-1.18.28-1.79.34-.18.02-.36.03-.54.04-.32.02-.66.02-1.01,0-.15,0-.29-.02-.43-.03h-.02c-.13-.02-.26-.03-.39-.05-.17-.02-.33-.05-.49-.08-.09-.02-.16-.03-.24-.05-.15-.03-.29-.06-.43-.09-.03,0-.06-.02-.09-.02-.14-.03-.27-.06-.39-.09-.13-.04-.25-.07-.36-.1-.09-.03-.18-.05-.26-.08-.08-.02-.14-.05-.19-.06-.14-.05-.28-.11-.41-.16-.06-.03-.12-.09-.16-.15-.67-.97-1.12-1.89-1.41-2.71,0-.04-.02-.07-.03-.1-.05-.15-.09-.29-.13-.43-.08-.27-.14-.54-.19-.79-.02-.13-.05-.25-.06-.37-.02-.17-.04-.34-.05-.5,0-.15-.02-.31-.02-.46-.02-.23,0-.45,0-.64.03-.43.53-.67.86-.41.16.12.32.23.49.32.02,0,.02,0,.04.02.22.12.45.19.65.24.38.1.75-.2.7-.59-.02-.19-.05-.39-.06-.57,0-.07,0-.13-.02-.19,0-.1-.02-.19-.02-.29v-.09c0-.12,0-.24,0-.36,0-.23,0-.46.02-.67,0-.16.02-.32.05-.49,0-.1.02-.19.04-.29.02-.14.05-.27.07-.41.03-.17.07-.35.12-.51,0-.05.02-.09.03-.13.04-.15.09-.3.13-.45.05-.17.12-.34.18-.5.32-.81.72-1.51,1.13-2.09.09-.12.17-.23.26-.33.09-.11.16-.21.25-.31.03-.04.07-.08.1-.12.53-.56,1.48-.22,1.56.56h0c0,.13.02.26.05.37.06.42.15.78.29,1.12.02.09.06.17.09.25.16.37.36.7.57,1.01.06.09.12.16.19.25.07.09.14.19.22.27.12.15.25.29.39.43.07.07.14.15.21.22.13.14.26.29.39.43.14.14.28.29.4.44.06.07.12.13.18.2.07.09.14.18.21.27.13.17.26.34.37.53.12.18.22.37.32.58.05.1.1.21.15.32.07.14.12.29.18.45.03.09.05.17.09.26.04.12.07.26.1.39.13.53.22,1.15.25,1.86Z"/>
    </g>
    <g>
      <path class="cls-2" d="M46.91,40.42c-.47.89-1.09,1.59-1.71,2.14,0,0-.02.01-.02.02-.92.79-1.85,1.26-2.38,1.49-.12.04-.23.08-.35.11.32-.21,1.28-.99,1.22-2.67-.01-.41-.07-.77-.14-1.08-.02-.08-.04-.15-.06-.22-.02-.05-.03-.1-.05-.15-.03-.09-.06-.18-.1-.26-.03-.06-.05-.13-.09-.18-.06-.12-.12-.23-.19-.34-.07-.11-.14-.21-.22-.31-.04-.05-.08-.11-.12-.16-.04-.04-.07-.08-.1-.12-.07-.09-.15-.18-.23-.26-.08-.08-.15-.17-.23-.25-.04-.04-.08-.09-.12-.13-.08-.09-.16-.17-.22-.25-.04-.05-.09-.1-.13-.16-.04-.05-.08-.09-.11-.14-.13-.18-.24-.37-.33-.59-.02-.04-.04-.09-.05-.14-.08-.2-.13-.41-.17-.65-.01-.07-.02-.14-.03-.21h0c-.05-.46-.6-.66-.91-.33-.02.02-.04.04-.06.07-.05.06-.09.12-.14.18-.05.06-.1.13-.15.19-.24.34-.47.74-.66,1.21-.04.09-.07.19-.1.29-.03.09-.05.17-.08.26,0,.02-.01.05-.02.08-.03.09-.05.2-.07.3-.01.08-.03.16-.04.24,0,.05-.02.11-.02.17-.01.09-.02.19-.03.28,0,.13-.01.26-.01.39,0,.07,0,.14,0,.21v.05c0,.05,0,.11.01.17,0,.04,0,.07,0,.11,0,.11.02.22.04.33.03.22-.18.4-.4.34-.12-.03-.25-.07-.38-.14,0,0-.01,0-.02,0-.09-.05-.19-.11-.28-.18-.19-.15-.48,0-.5.24,0,.11-.01.24,0,.37,0,.01,0,.03,0,.05,0,.07,0,.14.01.22,0,.09.02.19.03.29,0,.07.02.14.04.22.03.14.06.3.11.46.02.08.05.16.08.25,0,.02.01.04.02.06.17.48.43,1.01.82,1.58.03.04.06.07.09.09-.6-.25-1.14-.59-1.63-1-.04-.02-.08-.04-.12-.07-1.39-1.15-3-3.3-2.17-6.82.91-3.82,3.28-4.19,4.79-6.99.57-1.05.73-2.14.75-2.96,0-.48.58-.71.91-.36,1,1.05,2.46,2.83,3.18,4.75.37.99.5,1.93.51,2.76,0,.77-.09,1.45-.2,1.96-.09.45.38.8.78.57.33-.19.69-.45.97-.79.05-.06.1-.13.15-.19.25-.35.77-.31.93.08.48,1.15.95,3.19-.31,5.56Z"/>
      <path class="cls-3" d="M43.67,41.52c.06,1.67-.9,2.46-1.22,2.67-.34.09-.68.16-1.04.2-.1,0-.21.02-.31.02-.18,0-.38.01-.58,0-.09,0-.17,0-.25-.02h-.01c-.08,0-.15-.02-.22-.03-.1-.01-.19-.03-.29-.04-.05,0-.09-.02-.14-.03-.09-.02-.17-.04-.25-.05-.02,0-.04,0-.05-.01-.08-.02-.16-.04-.22-.05-.08-.02-.14-.04-.21-.06-.05-.02-.1-.03-.15-.04-.04-.01-.08-.03-.11-.04-.08-.03-.16-.06-.24-.09-.04-.02-.07-.05-.09-.09-.39-.57-.65-1.1-.82-1.58,0-.02-.01-.04-.02-.06-.03-.09-.05-.17-.08-.25-.04-.16-.08-.31-.11-.46-.01-.08-.03-.14-.04-.22-.01-.1-.02-.2-.03-.29,0-.09,0-.18,0-.26,0-.13,0-.26,0-.37.02-.25.31-.39.5-.24.09.07.19.13.28.18,0,0,.01,0,.02,0,.13.07.26.11.38.14.22.06.44-.12.4-.34-.01-.11-.03-.22-.04-.33,0-.04,0-.08,0-.11,0-.06,0-.11-.01-.17v-.05c0-.07,0-.14,0-.21,0-.13,0-.26.01-.39,0-.09.01-.19.03-.28,0-.06.01-.11.02-.17.01-.08.03-.16.04-.24.02-.1.04-.2.07-.3,0-.03.01-.05.02-.08.02-.09.05-.18.08-.26.03-.1.07-.2.1-.29.18-.47.42-.88.66-1.21.05-.07.1-.13.15-.19.05-.06.09-.12.14-.18.02-.02.04-.04.06-.07.31-.33.86-.13.91.33h0c0,.08.01.15.03.22.04.24.09.45.17.65.01.05.04.1.05.14.09.22.21.41.33.59.04.05.07.09.11.14.04.05.08.11.13.16.07.09.14.17.22.25.04.04.08.09.12.13.08.08.15.17.23.25.08.08.16.17.23.26.04.04.07.08.1.12.04.05.08.1.12.16.08.1.15.2.22.31.07.1.13.22.19.34.03.06.06.12.09.18.04.08.07.17.1.26.02.05.03.1.05.15.02.07.04.15.06.22.08.31.13.67.14,1.08Z"/>
    </g>
  </g>
</svg>