<?xml version="1.0" encoding="UTF-8"?>
<svg id="Layer_1" data-name="Layer 1" xmlns="http://www.w3.org/2000/svg" viewBox="0 0 56.69 56.69">
  <defs>
    <style>
      .cls-1 {
        fill: none;
        stroke: #f4bf96;
        stroke-linecap: round;
        stroke-linejoin: round;
        stroke-width: 2px;
      }

      .cls-2 {
        fill: #89b1bd;
      }

      .cls-3 {
        fill: #fff;
      }

      .cls-4 {
        fill: #cc8544;
      }

      .cls-5 {
        fill: #f4bf96;
      }
    </style>
  </defs>
  <path class="cls-3" d="M51.49,12.76L30.27.52c-1.19-.69-2.66-.69-3.85,0L5.21,12.76c-1.19.69-1.93,1.96-1.93,3.34v24.49c0,1.38.73,2.65,1.93,3.34l21.21,12.25c1.19.69,2.66.69,3.85,0l21.21-12.25c1.19-.69,1.93-1.96,1.93-3.34v-24.49c0-1.38-.73-2.65-1.93-3.34Z"/>
  <g>
    <g>
      <path class="cls-4" d="M31.34,23.11c-.18.33-.4.59-.63.8,0,0,0,0,0,0-.34.3-.69.47-.88.55-.04.02-.09.03-.13.04.12-.08.48-.37.45-.99,0-.15-.03-.29-.05-.4,0-.03-.01-.06-.02-.08,0-.02-.01-.04-.02-.06-.01-.03-.02-.07-.04-.1-.01-.02-.02-.05-.03-.07-.02-.05-.05-.09-.07-.13-.03-.04-.05-.08-.08-.11-.02-.02-.03-.04-.05-.06-.01-.02-.03-.03-.04-.04-.03-.03-.06-.07-.09-.1-.03-.03-.06-.06-.09-.09-.02-.02-.03-.03-.05-.05-.03-.03-.06-.06-.08-.09-.02-.02-.03-.04-.05-.06-.02-.02-.03-.04-.04-.05-.05-.07-.09-.14-.12-.22,0-.02-.02-.04-.02-.05-.03-.07-.05-.15-.06-.24,0-.03,0-.05-.01-.08h0c-.02-.17-.22-.25-.34-.12,0,0-.02.02-.02.03-.02.02-.04.04-.05.07-.02.02-.04.05-.06.07-.09.13-.18.28-.24.45-.01.04-.03.07-.04.11-.01.03-.02.06-.03.1,0,0,0,.02,0,.03-.01.04-.02.07-.03.11,0,.03-.01.06-.02.09,0,.02,0,.04,0,.06,0,.04,0,.07-.01.11,0,.05,0,.1,0,.15,0,.03,0,.05,0,.08v.02s0,.04,0,.06c0,.01,0,.03,0,.04,0,.04,0,.08.01.12.01.08-.07.15-.15.13-.04-.01-.09-.03-.14-.05,0,0,0,0,0,0-.04-.02-.07-.04-.11-.07-.07-.06-.18,0-.19.09,0,.04,0,.09,0,.14,0,0,0,.01,0,.02,0,.03,0,.05,0,.08,0,.04,0,.07.01.11,0,.03,0,.05.01.08.01.05.02.11.04.17,0,.03.02.06.03.09,0,0,0,.01,0,.02.06.18.16.38.31.59.01.01.02.03.04.03-.22-.09-.43-.22-.6-.37-.02,0-.03-.02-.04-.03-.52-.43-1.12-1.23-.81-2.53.34-1.42,1.22-1.56,1.78-2.6.21-.39.27-.8.28-1.1,0-.18.22-.27.34-.14.37.39.92,1.05,1.18,1.76.14.37.19.72.19,1.03,0,.29-.03.54-.08.73-.04.17.14.3.29.21.12-.07.26-.17.36-.29.02-.02.04-.05.06-.07.09-.13.29-.12.35.03.18.43.35,1.18-.12,2.07Z"/>
      <g>
        <path class="cls-5" d="M30.14,23.52c.02.62-.34.91-.45.99-.13.04-.25.06-.39.07-.04,0-.08,0-.12,0-.07,0-.14,0-.22,0-.03,0-.06,0-.09,0h0s-.06,0-.08-.01c-.04,0-.07-.01-.11-.02-.02,0-.04,0-.05-.01-.03,0-.06-.01-.09-.02,0,0-.01,0-.02,0-.03,0-.06-.01-.08-.02-.03,0-.05-.02-.08-.02-.02,0-.04-.01-.06-.02-.02,0-.03-.01-.04-.01-.03-.01-.06-.02-.09-.04-.01,0-.03-.02-.04-.03-.15-.21-.24-.41-.31-.59,0,0,0-.02,0-.02-.01-.03-.02-.06-.03-.09-.02-.06-.03-.12-.04-.17,0-.03-.01-.05-.01-.08,0-.04,0-.07-.01-.11,0-.03,0-.07,0-.1,0-.05,0-.1,0-.14,0-.09.11-.15.19-.09.04.03.07.05.11.07,0,0,0,0,0,0,.05.03.1.04.14.05.08.02.16-.04.15-.13,0-.04-.01-.08-.01-.12,0-.02,0-.03,0-.04,0-.02,0-.04,0-.06v-.02s0-.05,0-.08c0-.05,0-.1,0-.15,0-.04,0-.07.01-.11,0-.02,0-.04,0-.06,0-.03.01-.06.02-.09,0-.04.02-.08.03-.11,0-.01,0-.02,0-.03,0-.03.02-.07.03-.1.01-.04.03-.07.04-.11.07-.18.16-.33.24-.45.02-.03.04-.05.06-.07.02-.02.04-.05.05-.07,0,0,.02-.02.02-.03.11-.12.32-.05.34.12h0s0,.06.01.08c.01.09.03.17.06.24,0,.02.01.04.02.05.04.08.08.15.12.22.01.02.03.04.04.05.02.02.03.04.05.06.03.03.05.06.08.09.02.02.03.03.05.05.03.03.06.06.09.09.03.03.06.06.09.1.01.02.03.03.04.04.02.02.03.04.05.06.03.04.06.07.08.11.03.04.05.08.07.13.01.02.02.05.03.07.02.03.03.06.04.1,0,.02.01.04.02.06,0,.03.02.06.02.08.03.12.05.25.05.4Z"/>
        <path class="cls-2" d="M28.36,24.42s.06.02.09.04c-.03,0-.05-.02-.07-.02,0,0-.02,0-.02-.01Z"/>
      </g>
    </g>
    <g id="Artwork_64x64" data-name="Artwork 64x64">
      <path class="cls-4" d="M45.96,18.14h-2c-.55,0-1,.45-1,1v3.12l-4.93-4.93c-.58-.58-1.53-.58-2.12,0l-8.93,8.93v12.48c0,.83.67,1.5,1.5,1.5h16.98c.83,0,1.5-.67,1.5-1.5v-19.6c0-.55-.45-1-1-1ZM31.97,33.16h-2v-2h2v2ZM31.97,30.17h-2v-2h2v2ZM34.97,33.16h-2v-2h2v2ZM34.97,30.17h-2v-2h2v2Z"/>
      <path class="cls-5" d="M48.42,29.25l-10.75-10.73c-.39-.39-1.02-.39-1.41,0l-10.75,10.73c-.29.29-.76.3-1.05,0,0,0,0,0,0,0l-.35-.35c-.29-.29-.29-.77,0-1.06l10.75-10.74c1.17-1.17,3.07-1.17,4.23,0l10.75,10.75c.29.29.29.77,0,1.06l-.35.35c-.29.29-.76.28-1.05,0,0,0,0,0,0,0Z"/>
      <rect class="cls-5" x="37.97" y="34.24" width="4" height="5.99"/>
    </g>
    <g>
      <path class="cls-4" d="M29.52,38.46c-.24.44-.54.8-.85,1.07,0,0,0,0-.01.01-.46.4-.92.63-1.19.74-.06.02-.12.04-.18.06.16-.11.64-.5.61-1.33,0-.2-.03-.38-.07-.54,0-.04-.02-.08-.03-.11,0-.03-.02-.05-.02-.08-.02-.04-.03-.09-.05-.13-.01-.03-.03-.06-.04-.09-.03-.06-.06-.12-.09-.17-.03-.05-.07-.1-.11-.15-.02-.03-.04-.05-.06-.08-.02-.02-.03-.04-.05-.06-.04-.04-.08-.09-.12-.13-.04-.04-.08-.08-.11-.12-.02-.02-.04-.04-.06-.07-.04-.04-.08-.08-.11-.13-.02-.02-.04-.05-.06-.08-.02-.02-.04-.05-.06-.07-.06-.09-.12-.19-.17-.29,0-.02-.02-.05-.03-.07-.04-.1-.07-.2-.08-.33,0-.03-.01-.07-.01-.11h0c-.02-.23-.3-.33-.45-.17,0,.01-.02.02-.03.03-.02.03-.05.06-.07.09-.02.03-.05.06-.07.1-.12.17-.24.37-.33.61-.02.05-.04.1-.05.15-.01.04-.03.09-.04.13,0,.01,0,.02,0,.04-.01.05-.02.1-.03.15,0,.04-.01.08-.02.12,0,.03,0,.05-.01.08,0,.05-.01.09-.01.14,0,.06,0,.13,0,.2,0,.04,0,.07,0,.11v.02s0,.05,0,.08c0,.02,0,.04,0,.06,0,.05.01.11.02.17.02.11-.09.2-.2.17-.06-.02-.12-.04-.19-.07,0,0,0,0-.01,0-.05-.02-.09-.06-.14-.09-.1-.08-.24,0-.25.12,0,.06,0,.12,0,.19,0,0,0,.02,0,.02,0,.04,0,.07,0,.11,0,.05,0,.1.02.15,0,.04.01.07.02.11.01.07.03.15.05.23.01.04.02.08.04.12,0,0,0,.02,0,.03.09.24.22.5.41.79.01.02.03.03.05.04-.3-.13-.57-.29-.81-.5-.02,0-.04-.02-.06-.04-.69-.57-1.5-1.65-1.08-3.41.45-1.91,1.64-2.09,2.39-3.49.28-.52.36-1.07.37-1.48,0-.24.29-.36.46-.18.5.53,1.23,1.41,1.59,2.37.18.49.25.96.25,1.38,0,.39-.04.72-.1.98-.05.22.19.4.39.29.17-.1.34-.22.48-.39.03-.03.05-.06.08-.1.12-.17.38-.16.47.04.24.57.47,1.59-.15,2.78Z"/>
      <g>
        <path class="cls-5" d="M27.9,39.01c.03.84-.45,1.23-.61,1.33-.17.05-.34.08-.52.1-.05,0-.11,0-.16.01-.09,0-.19,0-.29,0-.04,0-.08,0-.13,0h0s-.07,0-.11-.01c-.05,0-.1-.01-.14-.02-.02,0-.05,0-.07-.01-.04,0-.08-.02-.12-.03,0,0-.02,0-.03,0-.04,0-.08-.02-.11-.03-.04-.01-.07-.02-.1-.03-.03,0-.05-.02-.07-.02-.02,0-.04-.01-.06-.02-.04-.02-.08-.03-.12-.05-.02,0-.03-.02-.05-.04-.2-.28-.33-.55-.41-.79,0-.01,0-.02,0-.03-.01-.04-.03-.08-.04-.12-.02-.08-.04-.16-.05-.23,0-.04-.01-.07-.02-.11,0-.05-.01-.1-.02-.15,0-.04,0-.09,0-.13,0-.07,0-.13,0-.19,0-.12.15-.2.25-.12.05.04.09.07.14.09,0,0,0,0,.01,0,.07.03.13.05.19.07.11.03.22-.06.2-.17,0-.06-.01-.11-.02-.17,0-.02,0-.04,0-.06,0-.03,0-.06,0-.08v-.02s0-.07,0-.11c0-.07,0-.13,0-.2,0-.05,0-.09.01-.14,0-.03,0-.06.01-.08,0-.04.01-.08.02-.12,0-.05.02-.1.03-.15,0-.01,0-.03,0-.04.01-.04.02-.09.04-.13.02-.05.03-.1.05-.15.09-.24.21-.44.33-.61.02-.03.05-.07.07-.1.02-.03.05-.06.07-.09,0-.01.02-.02.03-.03.15-.16.43-.07.45.16h0s0,.07.01.11c.02.12.04.23.08.33,0,.02.02.05.03.07.05.11.1.2.17.29.02.02.04.05.06.07.02.03.04.05.06.08.03.04.07.08.11.13.02.02.04.04.06.07.04.04.08.08.11.12.04.04.08.08.12.13.02.02.03.04.05.06.02.02.04.05.06.08.04.05.07.1.11.15.03.05.07.11.09.17.02.03.03.06.04.09.02.04.04.09.05.13,0,.02.02.05.02.08.01.04.02.07.03.11.04.15.07.33.07.54Z"/>
        <path class="cls-2" d="M25.52,40.22s.08.03.12.05c-.04-.01-.07-.02-.09-.03-.01,0-.02,0-.03-.02Z"/>
      </g>
    </g>
    <g>
      <g>
        <line class="cls-1" x1="19.39" y1="38.66" x2="19.39" y2="20.3"/>
        <line class="cls-1" x1="22.16" y1="26.8" x2="19.39" y2="29.67"/>
        <line class="cls-1" x1="16.33" y1="22.88" x2="19.39" y2="26.58"/>
      </g>
      <g>
        <line class="cls-1" x1="10.32" y1="17.48" x2="10.32" y2="38.66"/>
        <line class="cls-1" x1="7.19" y1="19.68" x2="10.24" y2="26.79"/>
        <line class="cls-1" x1="10.76" y1="21.19" x2="13.33" y2="19.42"/>
      </g>
    </g>
    <g>
      <path class="cls-4" d="M16.65,38.97c-.29.56-.68,1-1.07,1.34,0,0-.01,0-.01.01-.57.5-1.15.79-1.49.93-.07.03-.15.05-.22.07.2-.13.8-.62.76-1.67,0-.26-.04-.48-.09-.67-.01-.05-.02-.1-.04-.14-.01-.03-.02-.06-.03-.1-.02-.06-.04-.11-.06-.16-.02-.04-.03-.08-.05-.12-.04-.08-.08-.15-.12-.21-.04-.07-.09-.13-.13-.19-.03-.03-.05-.07-.08-.1-.02-.03-.04-.05-.06-.07-.04-.06-.1-.11-.15-.16-.05-.05-.1-.1-.14-.15-.03-.03-.05-.06-.08-.08-.05-.05-.1-.1-.14-.16-.03-.03-.05-.06-.08-.1-.03-.03-.05-.06-.07-.09-.08-.11-.15-.23-.21-.37-.01-.03-.03-.06-.03-.09-.05-.12-.08-.26-.1-.41,0-.04-.01-.09-.02-.13h0c-.03-.29-.38-.41-.57-.21-.01.01-.03.03-.04.04-.03.04-.06.07-.09.11-.03.04-.06.08-.09.12-.15.21-.29.46-.41.76-.02.06-.04.12-.06.18-.02.05-.03.11-.05.16,0,.01,0,.03-.01.05-.02.06-.03.12-.04.19,0,.05-.02.1-.03.15,0,.03-.01.07-.01.1,0,.06-.01.12-.02.18,0,.08,0,.16,0,.24,0,.04,0,.09,0,.13v.03s0,.07,0,.1c0,.02,0,.04,0,.07,0,.07.01.14.02.21.02.14-.12.25-.25.21-.07-.02-.15-.04-.24-.09,0,0,0,0-.01,0-.06-.03-.12-.07-.18-.12-.12-.1-.3,0-.31.15,0,.07,0,.15,0,.23,0,0,0,.02,0,.03,0,.04,0,.09,0,.13,0,.06.01.12.02.18,0,.04.01.09.02.13.02.09.04.19.07.29.01.05.03.1.05.15,0,.01,0,.02.01.04.11.3.27.63.51.99.02.02.04.04.06.05-.37-.16-.72-.37-1.02-.62-.03-.01-.05-.03-.07-.04-.87-.72-1.88-2.07-1.36-4.27.57-2.39,2.05-2.62,3-4.37.36-.66.46-1.34.47-1.85,0-.3.37-.45.57-.23.62.66,1.54,1.77,1.99,2.97.23.62.31,1.21.32,1.73,0,.48-.06.9-.13,1.22-.06.28.24.5.49.36.21-.12.43-.28.61-.49.03-.04.06-.08.1-.12.15-.22.48-.2.58.05.3.72.59,1.99-.19,3.48Z"/>
      <g>
        <path class="cls-5" d="M14.62,39.66c.04,1.05-.56,1.54-.76,1.67-.21.06-.43.1-.65.12-.06,0-.13.01-.2.01-.12,0-.24,0-.37,0-.05,0-.1,0-.16-.01h0s-.09-.01-.14-.02c-.06,0-.12-.02-.18-.03-.03,0-.06-.01-.09-.02-.05-.01-.1-.02-.15-.03-.01,0-.02,0-.03,0-.05-.01-.1-.02-.14-.03-.05-.01-.09-.03-.13-.04-.03-.01-.06-.02-.09-.03-.03,0-.05-.02-.07-.02-.05-.02-.1-.04-.15-.06-.02-.01-.04-.03-.06-.05-.24-.35-.41-.69-.51-.99,0-.01,0-.03-.01-.04-.02-.05-.03-.1-.05-.15-.03-.1-.05-.2-.07-.29,0-.05-.02-.09-.02-.13,0-.06-.01-.12-.02-.18,0-.06,0-.11,0-.17,0-.08,0-.16,0-.23.01-.15.19-.24.31-.15.06.04.12.08.18.12,0,0,0,0,.01,0,.08.04.16.07.24.09.14.04.27-.07.25-.21,0-.07-.02-.14-.02-.21,0-.03,0-.05,0-.07,0-.04,0-.07,0-.1v-.03s0-.09,0-.13c0-.08,0-.17,0-.24,0-.06,0-.12.02-.18,0-.04,0-.07.01-.1,0-.05.02-.1.03-.15.01-.06.03-.13.04-.19,0-.02,0-.03.01-.05.01-.06.03-.11.05-.16.02-.06.04-.12.06-.18.12-.29.26-.55.41-.76.03-.04.06-.08.09-.12.03-.04.06-.08.09-.11.01-.01.03-.03.04-.04.19-.21.54-.08.57.21h0s0,.09.02.13c.02.15.06.28.1.41,0,.03.02.06.03.09.06.13.13.26.21.37.02.03.04.06.07.09.03.03.05.07.08.1.04.05.09.1.14.16.03.03.05.05.08.08.05.05.1.1.14.15.05.05.1.1.15.16.02.03.04.05.06.07.03.03.05.06.08.1.05.06.09.12.13.19.04.06.08.13.12.21.02.04.04.08.05.12.03.05.04.11.06.16.01.03.02.06.03.1.01.04.03.09.04.14.05.19.08.42.09.67Z"/>
        <path class="cls-2" d="M11.63,41.17s.1.04.15.06c-.04-.01-.08-.03-.11-.04-.01,0-.03-.01-.04-.02Z"/>
      </g>
    </g>
  </g>
</svg>